%TF.GenerationSoftware,KiCad,Pcbnew,9.0.3*%
%TF.CreationDate,2025-09-15T21:45:31+02:00*%
%TF.ProjectId,MMS2,4d4d5332-2e6b-4696-9361-645f70636258,rev?*%
%TF.SameCoordinates,Original*%
%TF.FileFunction,Soldermask,Bot*%
%TF.FilePolarity,Negative*%
%FSLAX46Y46*%
G04 Gerber Fmt 4.6, Leading zero omitted, Abs format (unit mm)*
G04 Created by KiCad (PCBNEW 9.0.3) date 2025-09-15 21:45:31*
%MOMM*%
%LPD*%
G01*
G04 APERTURE LIST*
G04 Aperture macros list*
%AMRoundRect*
0 Rectangle with rounded corners*
0 $1 Rounding radius*
0 $2 $3 $4 $5 $6 $7 $8 $9 X,Y pos of 4 corners*
0 Add a 4 corners polygon primitive as box body*
4,1,4,$2,$3,$4,$5,$6,$7,$8,$9,$2,$3,0*
0 Add four circle primitives for the rounded corners*
1,1,$1+$1,$2,$3*
1,1,$1+$1,$4,$5*
1,1,$1+$1,$6,$7*
1,1,$1+$1,$8,$9*
0 Add four rect primitives between the rounded corners*
20,1,$1+$1,$2,$3,$4,$5,0*
20,1,$1+$1,$4,$5,$6,$7,0*
20,1,$1+$1,$6,$7,$8,$9,0*
20,1,$1+$1,$8,$9,$2,$3,0*%
%AMRotRect*
0 Rectangle, with rotation*
0 The origin of the aperture is its center*
0 $1 length*
0 $2 width*
0 $3 Rotation angle, in degrees counterclockwise*
0 Add horizontal line*
21,1,$1,$2,0,0,$3*%
G04 Aperture macros list end*
%ADD10C,1.700000*%
%ADD11R,1.700000X1.700000*%
%ADD12C,4.100000*%
%ADD13RoundRect,1.025000X-1.025000X1.025000X-1.025000X-1.025000X1.025000X-1.025000X1.025000X1.025000X0*%
%ADD14R,2.000000X0.900000*%
%ADD15C,3.250000*%
%ADD16R,1.500000X1.500000*%
%ADD17C,1.500000*%
%ADD18C,2.300000*%
%ADD19C,5.600000*%
%ADD20RotRect,1.000000X1.000000X45.000000*%
%ADD21C,1.000000*%
%ADD22C,0.650000*%
%ADD23O,2.100000X1.000000*%
%ADD24O,1.800000X1.000000*%
%ADD25C,2.900000*%
%ADD26RoundRect,0.102000X-0.825000X-0.825000X0.825000X-0.825000X0.825000X0.825000X-0.825000X0.825000X0*%
%ADD27C,1.854000*%
%ADD28RoundRect,1.025000X1.025000X-1.025000X1.025000X1.025000X-1.025000X1.025000X-1.025000X-1.025000X0*%
G04 APERTURE END LIST*
D10*
%TO.C,REF\u002A\u002A*%
X161460000Y-89800000D03*
X158920000Y-89800000D03*
X156380000Y-89800000D03*
X153840000Y-89800000D03*
X151300000Y-89800000D03*
X148760000Y-89800000D03*
X146220000Y-89800000D03*
X143680000Y-89800000D03*
X141140000Y-89800000D03*
X138600000Y-89800000D03*
X136060000Y-89800000D03*
X133520000Y-89800000D03*
X130980000Y-89800000D03*
X128440000Y-89800000D03*
X125900000Y-89800000D03*
D11*
X123360000Y-89800000D03*
%TD*%
D12*
%TO.C,J7*%
X156400000Y-126150000D03*
D13*
X156400000Y-133350000D03*
D14*
X162400000Y-136500000D03*
X162400000Y-123000000D03*
%TD*%
D15*
%TO.C,J9*%
X166290000Y-105820000D03*
X166290000Y-118520000D03*
D16*
X163750000Y-108610000D03*
D17*
X161970000Y-109626000D03*
X163750000Y-110642000D03*
X161970000Y-111658000D03*
X163750000Y-112674000D03*
X161970000Y-113690000D03*
X163750000Y-114706000D03*
X161970000Y-115722000D03*
X157150000Y-105310000D03*
X157150000Y-107600000D03*
X157150000Y-116740000D03*
X157150000Y-119030000D03*
D18*
X162860000Y-104040000D03*
X162860000Y-120300000D03*
%TD*%
D19*
%TO.C,H3*%
X114800000Y-154000000D03*
%TD*%
%TO.C,H2*%
X148500000Y-106800000D03*
%TD*%
D20*
%TO.C,J3*%
X102007898Y-93407898D03*
D21*
X102905924Y-94305924D03*
X103803949Y-95203949D03*
X104701975Y-96101975D03*
X105600000Y-97000000D03*
X106498026Y-97898026D03*
%TD*%
D19*
%TO.C,H4*%
X164000000Y-129000000D03*
%TD*%
D22*
%TO.C,J800*%
X86285000Y-92110000D03*
X86285000Y-97890000D03*
D23*
X86785000Y-90680000D03*
D24*
X82605000Y-90680000D03*
D23*
X86785000Y-99320000D03*
D24*
X82605000Y-99320000D03*
%TD*%
D19*
%TO.C,H4*%
X94000000Y-92000000D03*
%TD*%
D15*
%TO.C,J8*%
X83585000Y-117007695D03*
X83585000Y-104307695D03*
D16*
X86125000Y-114217695D03*
D17*
X87905000Y-113201695D03*
X86125000Y-112185695D03*
X87905000Y-111169695D03*
X86125000Y-110153695D03*
X87905000Y-109137695D03*
X86125000Y-108121695D03*
X87905000Y-107105695D03*
X92725000Y-117517695D03*
X92725000Y-115227695D03*
X92725000Y-106087695D03*
X92725000Y-103797695D03*
D18*
X87015000Y-118787695D03*
X87015000Y-102527695D03*
%TD*%
D25*
%TO.C,J1*%
X117430000Y-96860000D03*
X167430000Y-96860000D03*
D26*
X161480000Y-94620000D03*
D27*
X158940000Y-94620000D03*
X156400000Y-94620000D03*
X153860000Y-94620000D03*
X151320000Y-94620000D03*
X148780000Y-94620000D03*
X146240000Y-94620000D03*
X143700000Y-94620000D03*
X141160000Y-94620000D03*
X138620000Y-94620000D03*
X136080000Y-94620000D03*
X133540000Y-94620000D03*
X131000000Y-94620000D03*
X128460000Y-94620000D03*
X125920000Y-94620000D03*
X123380000Y-94620000D03*
X161480000Y-97160000D03*
X158940000Y-97160000D03*
X156400000Y-97160000D03*
X153860000Y-97160000D03*
X151320000Y-97160000D03*
X148780000Y-97160000D03*
X146240000Y-97160000D03*
X143700000Y-97160000D03*
X141160000Y-97160000D03*
X138620000Y-97160000D03*
X136080000Y-97160000D03*
X133540000Y-97160000D03*
X131000000Y-97160000D03*
X128460000Y-97160000D03*
X125920000Y-97160000D03*
X123380000Y-97160000D03*
X161480000Y-99700000D03*
X158940000Y-99700000D03*
X156400000Y-99700000D03*
X153860000Y-99700000D03*
X151320000Y-99700000D03*
X148780000Y-99700000D03*
X146240000Y-99700000D03*
X143700000Y-99700000D03*
X141160000Y-99700000D03*
X138620000Y-99700000D03*
X136080000Y-99700000D03*
X133540000Y-99700000D03*
X131000000Y-99700000D03*
X128460000Y-99700000D03*
X125920000Y-99700000D03*
X123380000Y-99700000D03*
%TD*%
D14*
%TO.C,J2*%
X88475000Y-136097122D03*
X88475000Y-122597122D03*
D28*
X94475000Y-132947122D03*
D12*
X94475000Y-125747122D03*
%TD*%
D19*
%TO.C,H1*%
X114800000Y-146850000D03*
%TD*%
%TO.C,H4*%
X86000000Y-129000000D03*
%TD*%
D21*
%TO.C,TP700*%
X107400000Y-95100000D03*
%TD*%
%TO.C,TP701*%
X105100000Y-92900000D03*
%TD*%
M02*
