%TF.GenerationSoftware,KiCad,Pcbnew,9.0.3*%
%TF.CreationDate,2025-09-29T10:56:50+02:00*%
%TF.ProjectId,MMS2,4d4d5332-2e6b-4696-9361-645f70636258,rev?*%
%TF.SameCoordinates,Original*%
%TF.FileFunction,Soldermask,Top*%
%TF.FilePolarity,Negative*%
%FSLAX46Y46*%
G04 Gerber Fmt 4.6, Leading zero omitted, Abs format (unit mm)*
G04 Created by KiCad (PCBNEW 9.0.3) date 2025-09-29 10:56:50*
%MOMM*%
%LPD*%
G01*
G04 APERTURE LIST*
G04 Aperture macros list*
%AMRoundRect*
0 Rectangle with rounded corners*
0 $1 Rounding radius*
0 $2 $3 $4 $5 $6 $7 $8 $9 X,Y pos of 4 corners*
0 Add a 4 corners polygon primitive as box body*
4,1,4,$2,$3,$4,$5,$6,$7,$8,$9,$2,$3,0*
0 Add four circle primitives for the rounded corners*
1,1,$1+$1,$2,$3*
1,1,$1+$1,$4,$5*
1,1,$1+$1,$6,$7*
1,1,$1+$1,$8,$9*
0 Add four rect primitives between the rounded corners*
20,1,$1+$1,$2,$3,$4,$5,0*
20,1,$1+$1,$4,$5,$6,$7,0*
20,1,$1+$1,$6,$7,$8,$9,0*
20,1,$1+$1,$8,$9,$2,$3,0*%
%AMRotRect*
0 Rectangle, with rotation*
0 The origin of the aperture is its center*
0 $1 length*
0 $2 width*
0 $3 Rotation angle, in degrees counterclockwise*
0 Add horizontal line*
21,1,$1,$2,0,0,$3*%
%AMFreePoly0*
4,1,6,1.000000,0.000000,0.500000,-0.750000,-0.500000,-0.750000,-0.500000,0.750000,0.500000,0.750000,1.000000,0.000000,1.000000,0.000000,$1*%
%AMFreePoly1*
4,1,6,0.500000,-0.750000,-0.650000,-0.750000,-0.150000,0.000000,-0.650000,0.750000,0.500000,0.750000,0.500000,-0.750000,0.500000,-0.750000,$1*%
G04 Aperture macros list end*
%ADD10R,1.500000X1.500000*%
%ADD11RoundRect,0.269000X0.494000X-0.269000X0.494000X0.269000X-0.494000X0.269000X-0.494000X-0.269000X0*%
%ADD12RoundRect,0.159000X0.159000X0.189000X-0.159000X0.189000X-0.159000X-0.189000X0.159000X-0.189000X0*%
%ADD13RoundRect,0.239000X0.274000X-0.239000X0.274000X0.239000X-0.274000X0.239000X-0.274000X-0.239000X0*%
%ADD14RoundRect,0.159000X-0.159000X-0.189000X0.159000X-0.189000X0.159000X0.189000X-0.159000X0.189000X0*%
%ADD15RoundRect,0.159000X-0.189000X0.159000X-0.189000X-0.159000X0.189000X-0.159000X0.189000X0.159000X0*%
%ADD16RoundRect,0.159000X0.189000X-0.159000X0.189000X0.159000X-0.189000X0.159000X-0.189000X-0.159000X0*%
%ADD17C,1.296000*%
%ADD18RoundRect,0.200000X0.400000X0.200000X-0.400000X0.200000X-0.400000X-0.200000X0.400000X-0.200000X0*%
%ADD19R,2.000000X0.900000*%
%ADD20RoundRect,1.025000X-1.025000X1.025000X-1.025000X-1.025000X1.025000X-1.025000X1.025000X1.025000X0*%
%ADD21C,4.100000*%
%ADD22RoundRect,0.260556X0.677444X-1.027444X0.677444X1.027444X-0.677444X1.027444X-0.677444X-1.027444X0*%
%ADD23RoundRect,0.269000X0.269000X0.494000X-0.269000X0.494000X-0.269000X-0.494000X0.269000X-0.494000X0*%
%ADD24C,5.600000*%
%ADD25RoundRect,0.159000X-0.021213X0.246073X-0.246073X0.021213X0.021213X-0.246073X0.246073X-0.021213X0*%
%ADD26RoundRect,0.159000X-0.246073X-0.021213X-0.021213X-0.246073X0.246073X0.021213X0.021213X0.246073X0*%
%ADD27O,0.590000X2.050000*%
%ADD28RoundRect,0.267273X-0.570727X0.320727X-0.570727X-0.320727X0.570727X-0.320727X0.570727X0.320727X0*%
%ADD29RoundRect,0.269000X-0.494000X0.269000X-0.494000X-0.269000X0.494000X-0.269000X0.494000X0.269000X0*%
%ADD30RoundRect,0.150000X0.150000X-0.587500X0.150000X0.587500X-0.150000X0.587500X-0.150000X-0.587500X0*%
%ADD31C,1.500000*%
%ADD32C,2.300000*%
%ADD33RoundRect,0.075000X0.350000X0.075000X-0.350000X0.075000X-0.350000X-0.075000X0.350000X-0.075000X0*%
%ADD34R,1.600000X2.400000*%
%ADD35RoundRect,0.150000X0.150000X-0.512500X0.150000X0.512500X-0.150000X0.512500X-0.150000X-0.512500X0*%
%ADD36RoundRect,0.250001X-0.949999X-1.499999X0.949999X-1.499999X0.949999X1.499999X-0.949999X1.499999X0*%
%ADD37RoundRect,0.100000X-0.100000X0.125000X-0.100000X-0.125000X0.100000X-0.125000X0.100000X0.125000X0*%
%ADD38RoundRect,0.075000X0.441942X0.548008X-0.548008X-0.441942X-0.441942X-0.548008X0.548008X0.441942X0*%
%ADD39RoundRect,0.075000X-0.441942X0.548008X-0.548008X0.441942X0.441942X-0.548008X0.548008X-0.441942X0*%
%ADD40RoundRect,0.239000X-0.239000X-0.274000X0.239000X-0.274000X0.239000X0.274000X-0.239000X0.274000X0*%
%ADD41RoundRect,0.239000X-0.274000X0.239000X-0.274000X-0.239000X0.274000X-0.239000X0.274000X0.239000X0*%
%ADD42RoundRect,0.075000X0.662500X0.075000X-0.662500X0.075000X-0.662500X-0.075000X0.662500X-0.075000X0*%
%ADD43RoundRect,0.075000X0.075000X0.662500X-0.075000X0.662500X-0.075000X-0.662500X0.075000X-0.662500X0*%
%ADD44RoundRect,0.159000X0.021213X-0.246073X0.246073X-0.021213X-0.021213X0.246073X-0.246073X0.021213X0*%
%ADD45RoundRect,0.159000X0.246073X0.021213X0.021213X0.246073X-0.246073X-0.021213X-0.021213X-0.246073X0*%
%ADD46RoundRect,0.219000X0.219000X0.294000X-0.219000X0.294000X-0.219000X-0.294000X0.219000X-0.294000X0*%
%ADD47RoundRect,0.150000X-0.425000X0.150000X-0.425000X-0.150000X0.425000X-0.150000X0.425000X0.150000X0*%
%ADD48RoundRect,0.075000X-0.500000X0.075000X-0.500000X-0.075000X0.500000X-0.075000X0.500000X0.075000X0*%
%ADD49O,2.100000X1.000000*%
%ADD50O,1.800000X1.000000*%
%ADD51RoundRect,0.250001X0.999999X-0.499999X0.999999X0.499999X-0.999999X0.499999X-0.999999X-0.499999X0*%
%ADD52RoundRect,0.150000X0.512500X0.150000X-0.512500X0.150000X-0.512500X-0.150000X0.512500X-0.150000X0*%
%ADD53R,1.250000X1.000000*%
%ADD54R,2.300000X1.000000*%
%ADD55RoundRect,0.250000X0.350000X-0.450000X0.350000X0.450000X-0.350000X0.450000X-0.350000X-0.450000X0*%
%ADD56RoundRect,0.220000X0.220000X0.255000X-0.220000X0.255000X-0.220000X-0.255000X0.220000X-0.255000X0*%
%ADD57RoundRect,0.150000X-0.590000X-0.150000X0.590000X-0.150000X0.590000X0.150000X-0.590000X0.150000X0*%
%ADD58RoundRect,0.102000X-0.825000X-0.825000X0.825000X-0.825000X0.825000X0.825000X-0.825000X0.825000X0*%
%ADD59C,1.854000*%
%ADD60RoundRect,0.250000X-0.565685X0.070711X0.070711X-0.565685X0.565685X-0.070711X-0.070711X0.565685X0*%
%ADD61RoundRect,0.100000X0.125000X0.100000X-0.125000X0.100000X-0.125000X-0.100000X0.125000X-0.100000X0*%
%ADD62RoundRect,1.025000X1.025000X-1.025000X1.025000X1.025000X-1.025000X1.025000X-1.025000X-1.025000X0*%
%ADD63R,1.700000X1.700000*%
%ADD64C,1.700000*%
%ADD65RoundRect,0.102000X-0.112500X0.331500X-0.112500X-0.331500X0.112500X-0.331500X0.112500X0.331500X0*%
%ADD66RoundRect,0.102000X-0.112500X0.281500X-0.112500X-0.281500X0.112500X-0.281500X0.112500X0.281500X0*%
%ADD67RoundRect,0.102000X-0.281500X0.112500X-0.281500X-0.112500X0.281500X-0.112500X0.281500X0.112500X0*%
%ADD68FreePoly0,270.000000*%
%ADD69FreePoly1,270.000000*%
%ADD70RoundRect,0.062500X0.350000X0.062500X-0.350000X0.062500X-0.350000X-0.062500X0.350000X-0.062500X0*%
%ADD71RoundRect,0.062500X0.062500X0.350000X-0.062500X0.350000X-0.062500X-0.350000X0.062500X-0.350000X0*%
%ADD72R,0.600000X1.550000*%
%ADD73RoundRect,0.050000X-0.050000X0.375000X-0.050000X-0.375000X0.050000X-0.375000X0.050000X0.375000X0*%
%ADD74RoundRect,0.050000X-0.375000X0.050000X-0.375000X-0.050000X0.375000X-0.050000X0.375000X0.050000X0*%
%ADD75R,1.650000X1.650000*%
%ADD76RoundRect,0.100000X-0.125000X-0.100000X0.125000X-0.100000X0.125000X0.100000X-0.125000X0.100000X0*%
%ADD77RoundRect,0.250000X0.636396X-0.282843X-0.282843X0.636396X-0.636396X0.282843X0.282843X-0.636396X0*%
%ADD78R,1.000000X1.000000*%
%ADD79C,1.000000*%
%ADD80RotRect,1.000000X1.000000X225.000000*%
G04 APERTURE END LIST*
%TO.C,JP301*%
G36*
X141350000Y-128360000D02*
G01*
X139850000Y-128360000D01*
X139850000Y-130810000D01*
X141350000Y-130810000D01*
X141350000Y-128360000D01*
G37*
%TD*%
D10*
%TO.C,CAP+1*%
X98500000Y-125000000D03*
%TD*%
D11*
%TO.C,C11*%
X129700000Y-130550000D03*
X129700000Y-128650000D03*
%TD*%
D12*
%TO.C,C34*%
X155100000Y-103375000D03*
X154100000Y-103375000D03*
%TD*%
D13*
%TO.C,D3*%
X115300000Y-120390000D03*
X115300000Y-118810000D03*
%TD*%
D14*
%TO.C,R501*%
X99900000Y-115500000D03*
X100900000Y-115500000D03*
%TD*%
D12*
%TO.C,C703*%
X107046000Y-101439888D03*
X106046000Y-101439888D03*
%TD*%
%TO.C,R403*%
X146388129Y-108800000D03*
X145388129Y-108800000D03*
%TD*%
%TO.C,R710*%
X95600000Y-96500000D03*
X94600000Y-96500000D03*
%TD*%
D15*
%TO.C,R16*%
X121500000Y-114000000D03*
X121500000Y-115000000D03*
%TD*%
D16*
%TO.C,C702*%
X110170000Y-94100000D03*
X110170000Y-93100000D03*
%TD*%
D17*
%TO.C,*%
X84000000Y-135000000D03*
%TD*%
D12*
%TO.C,C503*%
X97100000Y-111700000D03*
X96100000Y-111700000D03*
%TD*%
D16*
%TO.C,C426*%
X128100000Y-104200000D03*
X128100000Y-103200000D03*
%TD*%
D18*
%TO.C,U9*%
X113150000Y-119070000D03*
X113150000Y-116530000D03*
X106850000Y-116530000D03*
X106850000Y-119070000D03*
%TD*%
D11*
%TO.C,C28*%
X131700000Y-130550000D03*
X131700000Y-128650000D03*
%TD*%
D19*
%TO.C,J7*%
X162600000Y-123000000D03*
X162600000Y-136500000D03*
D20*
X156600000Y-133350000D03*
D21*
X156600000Y-126150000D03*
%TD*%
D22*
%TO.C,D6*%
X90400000Y-101800000D03*
X90400000Y-97800000D03*
%TD*%
D15*
%TO.C,R10*%
X105300000Y-134600000D03*
X105300000Y-135600000D03*
%TD*%
D23*
%TO.C,C16*%
X108550000Y-135000000D03*
X106650000Y-135000000D03*
%TD*%
D24*
%TO.C,H1*%
X148000000Y-119400000D03*
%TD*%
D25*
%TO.C,C314*%
X144510928Y-111892894D03*
X143803822Y-112600000D03*
%TD*%
D26*
%TO.C,C26*%
X131846447Y-119746447D03*
X132553553Y-120453553D03*
%TD*%
D24*
%TO.C,H2*%
X94000000Y-92100000D03*
%TD*%
D15*
%TO.C,R25*%
X154900000Y-107500000D03*
X154900000Y-108500000D03*
%TD*%
D26*
%TO.C,C401*%
X140446447Y-113446447D03*
X141153553Y-114153553D03*
%TD*%
D27*
%TO.C,U6*%
X122750000Y-106700000D03*
X121480000Y-106700000D03*
X120200000Y-106700000D03*
X118930000Y-106700000D03*
X118930000Y-112240000D03*
X120200000Y-112240000D03*
X121480000Y-112240000D03*
X122750000Y-112240000D03*
%TD*%
D28*
%TO.C,D1*%
X98600000Y-128000000D03*
X98600000Y-130800000D03*
%TD*%
D29*
%TO.C,C6*%
X102800000Y-127000000D03*
X102800000Y-128900000D03*
%TD*%
D12*
%TO.C,R704*%
X107000000Y-90000000D03*
X106000000Y-90000000D03*
%TD*%
D15*
%TO.C,C705*%
X110170000Y-99000000D03*
X110170000Y-100000000D03*
%TD*%
D18*
%TO.C,U8*%
X113150000Y-114870000D03*
X113150000Y-112330000D03*
X106850000Y-112330000D03*
X106850000Y-114870000D03*
%TD*%
D16*
%TO.C,C704*%
X97600000Y-96500000D03*
X97600000Y-95500000D03*
%TD*%
D14*
%TO.C,C33*%
X112100000Y-105800000D03*
X113100000Y-105800000D03*
%TD*%
D30*
%TO.C,Q700*%
X96250000Y-99937500D03*
X98150000Y-99937500D03*
X97200000Y-98062500D03*
%TD*%
D10*
%TO.C,J9*%
X163890000Y-108570000D03*
D31*
X162110000Y-109586000D03*
X163890000Y-110602000D03*
X162110000Y-111618000D03*
X163890000Y-112634000D03*
X162110000Y-113650000D03*
X163890000Y-114666000D03*
X162110000Y-115682000D03*
X157290000Y-105270000D03*
X157290000Y-107560000D03*
X157290000Y-116700000D03*
X157290000Y-118990000D03*
D32*
X163000000Y-104000000D03*
X163000000Y-120260000D03*
%TD*%
D15*
%TO.C,R26*%
X97090000Y-118890000D03*
X97090000Y-119890000D03*
%TD*%
D16*
%TO.C,C502*%
X102400000Y-113900000D03*
X102400000Y-112900000D03*
%TD*%
D14*
%TO.C,C416*%
X145400000Y-103400000D03*
X146400000Y-103400000D03*
%TD*%
D33*
%TO.C,U501*%
X101200000Y-114300000D03*
X101200000Y-113650000D03*
X101200000Y-113000000D03*
X101200000Y-112350000D03*
X98300000Y-112350000D03*
X98300000Y-113000000D03*
X98300000Y-113650000D03*
X98300000Y-114300000D03*
D34*
X99750000Y-113325000D03*
%TD*%
D35*
%TO.C,U5*%
X134650000Y-134887500D03*
X135600000Y-134887500D03*
X136550000Y-134887500D03*
X136550000Y-132612500D03*
X135600000Y-132612500D03*
X134650000Y-132612500D03*
%TD*%
D14*
%TO.C,C10*%
X113600000Y-134300000D03*
X114600000Y-134300000D03*
%TD*%
D36*
%TO.C,L1*%
X117100000Y-131750000D03*
X123100000Y-131750000D03*
%TD*%
D14*
%TO.C,R713*%
X111100000Y-93110000D03*
X112100000Y-93110000D03*
%TD*%
D25*
%TO.C,C403*%
X129453553Y-105346447D03*
X128746447Y-106053553D03*
%TD*%
D16*
%TO.C,R711*%
X96600000Y-96500000D03*
X96600000Y-95500000D03*
%TD*%
%TO.C,C500*%
X102450000Y-118475000D03*
X102450000Y-117475000D03*
%TD*%
D37*
%TO.C,U3*%
X155100000Y-116112500D03*
X154300000Y-116112500D03*
X154700000Y-117262500D03*
%TD*%
D16*
%TO.C,R706*%
X108046000Y-101039888D03*
X108046000Y-100039888D03*
%TD*%
D15*
%TO.C,C700*%
X111200000Y-99000000D03*
X111200000Y-100000000D03*
%TD*%
D12*
%TO.C,R901*%
X106275000Y-103000000D03*
X105275000Y-103000000D03*
%TD*%
D13*
%TO.C,D2*%
X138050000Y-130290000D03*
X138050000Y-128710000D03*
%TD*%
D12*
%TO.C,R715*%
X99600000Y-92000000D03*
X98600000Y-92000000D03*
%TD*%
D14*
%TO.C,R405*%
X143400000Y-103400000D03*
X144400000Y-103400000D03*
%TD*%
D38*
%TO.C,U1*%
X139253553Y-111038819D03*
X138900000Y-110685266D03*
X138546447Y-110331713D03*
X138192893Y-109978159D03*
X137839340Y-109624606D03*
X137485786Y-109271052D03*
X137132233Y-108917499D03*
X136778680Y-108563946D03*
X136425126Y-108210392D03*
X136071573Y-107856839D03*
X135718020Y-107503286D03*
X135364466Y-107149732D03*
X135010913Y-106796179D03*
X134657359Y-106442625D03*
X134303806Y-106089072D03*
X133950253Y-105735519D03*
D39*
X131227891Y-105735519D03*
X130874338Y-106089072D03*
X130520785Y-106442625D03*
X130167231Y-106796179D03*
X129813678Y-107149732D03*
X129460124Y-107503286D03*
X129106571Y-107856839D03*
X128753018Y-108210392D03*
X128399464Y-108563946D03*
X128045911Y-108917499D03*
X127692358Y-109271052D03*
X127338804Y-109624606D03*
X126985251Y-109978159D03*
X126631697Y-110331713D03*
X126278144Y-110685266D03*
X125924591Y-111038819D03*
D38*
X125924591Y-113761181D03*
X126278144Y-114114734D03*
X126631697Y-114468287D03*
X126985251Y-114821841D03*
X127338804Y-115175394D03*
X127692358Y-115528948D03*
X128045911Y-115882501D03*
X128399464Y-116236054D03*
X128753018Y-116589608D03*
X129106571Y-116943161D03*
X129460124Y-117296714D03*
X129813678Y-117650268D03*
X130167231Y-118003821D03*
X130520785Y-118357375D03*
X130874338Y-118710928D03*
X131227891Y-119064481D03*
D39*
X133950253Y-119064481D03*
X134303806Y-118710928D03*
X134657359Y-118357375D03*
X135010913Y-118003821D03*
X135364466Y-117650268D03*
X135718020Y-117296714D03*
X136071573Y-116943161D03*
X136425126Y-116589608D03*
X136778680Y-116236054D03*
X137132233Y-115882501D03*
X137485786Y-115528948D03*
X137839340Y-115175394D03*
X138192893Y-114821841D03*
X138546447Y-114468287D03*
X138900000Y-114114734D03*
X139253553Y-113761181D03*
%TD*%
D40*
%TO.C,D301*%
X102360000Y-110700000D03*
X103940000Y-110700000D03*
%TD*%
D11*
%TO.C,C13*%
X125700000Y-130550000D03*
X125700000Y-128650000D03*
%TD*%
D14*
%TO.C,R801*%
X89000000Y-93600000D03*
X90000000Y-93600000D03*
%TD*%
%TO.C,R3*%
X114500000Y-112300000D03*
X115500000Y-112300000D03*
%TD*%
D29*
%TO.C,C14*%
X100800000Y-127000000D03*
X100800000Y-128900000D03*
%TD*%
D16*
%TO.C,R714*%
X98600000Y-94000000D03*
X98600000Y-93000000D03*
%TD*%
D12*
%TO.C,R15*%
X100050000Y-105700000D03*
X99050000Y-105700000D03*
%TD*%
%TO.C,R709*%
X97200000Y-101460112D03*
X96200000Y-101460112D03*
%TD*%
D41*
%TO.C,D700*%
X113400000Y-90320000D03*
X113400000Y-91900000D03*
%TD*%
D42*
%TO.C,U700*%
X108458500Y-98489888D03*
X108458500Y-97989888D03*
X108458500Y-97489888D03*
X108458500Y-96989888D03*
X108458500Y-96489888D03*
X108458500Y-95989888D03*
X108458500Y-95489888D03*
X108458500Y-94989888D03*
X108458500Y-94489888D03*
X108458500Y-93989888D03*
X108458500Y-93489888D03*
X108458500Y-92989888D03*
D43*
X107046000Y-91577388D03*
X106546000Y-91577388D03*
X106046000Y-91577388D03*
X105546000Y-91577388D03*
X105046000Y-91577388D03*
X104546000Y-91577388D03*
X104046000Y-91577388D03*
X103546000Y-91577388D03*
X103046000Y-91577388D03*
X102546000Y-91577388D03*
X102046000Y-91577388D03*
X101546000Y-91577388D03*
D42*
X100133500Y-92989888D03*
X100133500Y-93489888D03*
X100133500Y-93989888D03*
X100133500Y-94489888D03*
X100133500Y-94989888D03*
X100133500Y-95489888D03*
X100133500Y-95989888D03*
X100133500Y-96489888D03*
X100133500Y-96989888D03*
X100133500Y-97489888D03*
X100133500Y-97989888D03*
X100133500Y-98489888D03*
D43*
X101546000Y-99902388D03*
X102046000Y-99902388D03*
X102546000Y-99902388D03*
X103046000Y-99902388D03*
X103546000Y-99902388D03*
X104046000Y-99902388D03*
X104546000Y-99902388D03*
X105046000Y-99902388D03*
X105546000Y-99902388D03*
X106046000Y-99902388D03*
X106546000Y-99902388D03*
X107046000Y-99902388D03*
%TD*%
D33*
%TO.C,U500*%
X101250000Y-118650000D03*
X101250000Y-118000000D03*
X101250000Y-117350000D03*
X101250000Y-116700000D03*
X98350000Y-116700000D03*
X98350000Y-117350000D03*
X98350000Y-118000000D03*
X98350000Y-118650000D03*
D34*
X99800000Y-117675000D03*
%TD*%
D14*
%TO.C,R406*%
X145400000Y-104400000D03*
X146400000Y-104400000D03*
%TD*%
%TO.C,C706*%
X108046000Y-90000000D03*
X109046000Y-90000000D03*
%TD*%
%TO.C,R708*%
X103500000Y-90000000D03*
X104500000Y-90000000D03*
%TD*%
D44*
%TO.C,C404*%
X140046447Y-111653553D03*
X140753553Y-110946447D03*
%TD*%
D12*
%TO.C,R308*%
X103050000Y-109400000D03*
X102050000Y-109400000D03*
%TD*%
D16*
%TO.C,R803*%
X96150000Y-108000000D03*
X96150000Y-107000000D03*
%TD*%
%TO.C,R705*%
X108946000Y-101039888D03*
X108946000Y-100039888D03*
%TD*%
D15*
%TO.C,R5*%
X114500000Y-116500000D03*
X114500000Y-117500000D03*
%TD*%
D14*
%TO.C,R404*%
X145388129Y-106960246D03*
X146388129Y-106960246D03*
%TD*%
D17*
%TO.C,REF\u002A\u002A*%
X167000000Y-90000000D03*
%TD*%
D45*
%TO.C,C29*%
X126953553Y-107953553D03*
X126246447Y-107246447D03*
%TD*%
D46*
%TO.C,R12*%
X112520000Y-135500000D03*
X110880000Y-135500000D03*
%TD*%
D12*
%TO.C,R805*%
X87800000Y-101500000D03*
X86800000Y-101500000D03*
%TD*%
D15*
%TO.C,C801*%
X89200000Y-91120000D03*
X89200000Y-92120000D03*
%TD*%
D29*
%TO.C,C8*%
X106900000Y-127000000D03*
X106900000Y-128900000D03*
%TD*%
D47*
%TO.C,J800*%
X87375000Y-92220000D03*
X87375000Y-93020000D03*
D48*
X87375000Y-94170000D03*
X87375000Y-95170000D03*
X87375000Y-95670000D03*
X87375000Y-96670000D03*
D47*
X87375000Y-97820000D03*
X87375000Y-98620000D03*
X87375000Y-98620000D03*
X87375000Y-97820000D03*
D48*
X87375000Y-97170000D03*
X87375000Y-96170000D03*
X87375000Y-94670000D03*
X87375000Y-93670000D03*
D47*
X87375000Y-93020000D03*
X87375000Y-92220000D03*
D49*
X86800000Y-91100000D03*
D50*
X82620000Y-91100000D03*
D49*
X86800000Y-99740000D03*
D50*
X82620000Y-99740000D03*
%TD*%
D12*
%TO.C,R23*%
X113700000Y-120400000D03*
X112700000Y-120400000D03*
%TD*%
D44*
%TO.C,C313*%
X142403822Y-114000000D03*
X143110928Y-113292894D03*
%TD*%
D13*
%TO.C,D701*%
X111600000Y-91900000D03*
X111600000Y-90320000D03*
%TD*%
D51*
%TO.C,L301*%
X151100000Y-132600000D03*
X151100000Y-128900000D03*
%TD*%
D15*
%TO.C,R802*%
X95150000Y-107000000D03*
X95150000Y-108000000D03*
%TD*%
D29*
%TO.C,C9*%
X106900000Y-130400000D03*
X106900000Y-132300000D03*
%TD*%
D45*
%TO.C,C422*%
X130107106Y-120207106D03*
X129400000Y-119500000D03*
%TD*%
D12*
%TO.C,R707*%
X114000000Y-93110000D03*
X113000000Y-93110000D03*
%TD*%
D52*
%TO.C,U301*%
X147700000Y-134250000D03*
X147700000Y-133300000D03*
X147700000Y-132350000D03*
X145425000Y-132350000D03*
X145425000Y-133300000D03*
X145425000Y-134250000D03*
%TD*%
D12*
%TO.C,C17*%
X146462500Y-135450000D03*
X145462500Y-135450000D03*
%TD*%
D53*
%TO.C,SW2*%
X146350000Y-105700000D03*
D54*
X153575000Y-105700000D03*
%TD*%
D16*
%TO.C,C312*%
X99850000Y-109150000D03*
X99850000Y-108150000D03*
%TD*%
D12*
%TO.C,R903*%
X109700000Y-103562500D03*
X108700000Y-103562500D03*
%TD*%
D15*
%TO.C,R6*%
X155100000Y-119710000D03*
X155100000Y-120710000D03*
%TD*%
D12*
%TO.C,R4*%
X110800000Y-134400000D03*
X109800000Y-134400000D03*
%TD*%
D16*
%TO.C,C21*%
X115575000Y-136200000D03*
X115575000Y-135200000D03*
%TD*%
D14*
%TO.C,C45*%
X94990000Y-120900000D03*
X95990000Y-120900000D03*
%TD*%
D29*
%TO.C,C24*%
X127700000Y-132650000D03*
X127700000Y-134550000D03*
%TD*%
%TO.C,C7*%
X102800000Y-130400000D03*
X102800000Y-132300000D03*
%TD*%
D15*
%TO.C,R20*%
X121540000Y-103870000D03*
X121540000Y-104870000D03*
%TD*%
D16*
%TO.C,C424*%
X133010000Y-104200000D03*
X133010000Y-103200000D03*
%TD*%
D15*
%TO.C,R24*%
X115500000Y-116500000D03*
X115500000Y-117500000D03*
%TD*%
%TO.C,R712*%
X99570000Y-99522612D03*
X99570000Y-100522612D03*
%TD*%
%TO.C,R1*%
X105500000Y-118100000D03*
X105500000Y-119100000D03*
%TD*%
D16*
%TO.C,C423*%
X132010000Y-104200000D03*
X132010000Y-103200000D03*
%TD*%
D17*
%TO.C,*%
X167000000Y-135000000D03*
%TD*%
D12*
%TO.C,R27*%
X155100000Y-104290000D03*
X154100000Y-104290000D03*
%TD*%
D14*
%TO.C,R500*%
X98100000Y-119875000D03*
X99100000Y-119875000D03*
%TD*%
D12*
%TO.C,R902*%
X109700000Y-104500000D03*
X108700000Y-104500000D03*
%TD*%
D55*
%TO.C,Y700*%
X113070000Y-97500000D03*
X113070000Y-95300000D03*
X111470000Y-95300000D03*
X111470000Y-97500000D03*
%TD*%
D56*
%TO.C,FB401*%
X130800000Y-103900000D03*
X129220000Y-103900000D03*
%TD*%
D57*
%TO.C,Q7*%
X134260000Y-128900000D03*
X134260000Y-130800000D03*
X136140000Y-129850000D03*
%TD*%
D12*
%TO.C,R900*%
X106275000Y-104000000D03*
X105275000Y-104000000D03*
%TD*%
D16*
%TO.C,C708*%
X110170000Y-96000000D03*
X110170000Y-95000000D03*
%TD*%
D14*
%TO.C,C701*%
X101000000Y-90000000D03*
X102000000Y-90000000D03*
%TD*%
D29*
%TO.C,C15*%
X100800000Y-130400000D03*
X100800000Y-132300000D03*
%TD*%
D15*
%TO.C,R53*%
X95200000Y-104800000D03*
X95200000Y-105800000D03*
%TD*%
%TO.C,R2*%
X105500000Y-113900000D03*
X105500000Y-114900000D03*
%TD*%
D16*
%TO.C,R18*%
X120540000Y-104870000D03*
X120540000Y-103870000D03*
%TD*%
D44*
%TO.C,C402*%
X125046447Y-108753553D03*
X125753553Y-108046447D03*
%TD*%
D16*
%TO.C,R307*%
X143000000Y-130850000D03*
X143000000Y-129850000D03*
%TD*%
D29*
%TO.C,C4*%
X104900000Y-127000000D03*
X104900000Y-128900000D03*
%TD*%
D16*
%TO.C,R716*%
X98600000Y-96500000D03*
X98600000Y-95500000D03*
%TD*%
D11*
%TO.C,C12*%
X127700000Y-130550000D03*
X127700000Y-128650000D03*
%TD*%
D14*
%TO.C,R906*%
X101400000Y-103000000D03*
X102400000Y-103000000D03*
%TD*%
D10*
%TO.C,CAP-1*%
X98500000Y-135200000D03*
%TD*%
D29*
%TO.C,C20*%
X147600000Y-128550000D03*
X147600000Y-130450000D03*
%TD*%
D16*
%TO.C,R22*%
X122540000Y-104870000D03*
X122540000Y-103870000D03*
%TD*%
D10*
%TO.C,J8*%
X86120000Y-115690000D03*
D31*
X87900000Y-114674000D03*
X86120000Y-113658000D03*
X87900000Y-112642000D03*
X86120000Y-111626000D03*
X87900000Y-110610000D03*
X86120000Y-109594000D03*
X87900000Y-108578000D03*
X92720000Y-118990000D03*
X92720000Y-116700000D03*
X92720000Y-107560000D03*
X92720000Y-105270000D03*
D32*
X87010000Y-120260000D03*
X87010000Y-104000000D03*
%TD*%
D14*
%TO.C,R13*%
X137725000Y-131575000D03*
X138725000Y-131575000D03*
%TD*%
D53*
%TO.C,SW1*%
X146350000Y-110100000D03*
D54*
X153575000Y-110100000D03*
%TD*%
D16*
%TO.C,R804*%
X100750000Y-109150000D03*
X100750000Y-108150000D03*
%TD*%
D14*
%TO.C,R907*%
X101400000Y-104000000D03*
X102400000Y-104000000D03*
%TD*%
D29*
%TO.C,C22*%
X131700000Y-132650000D03*
X131700000Y-134550000D03*
%TD*%
D24*
%TO.C,H3*%
X164000000Y-129000000D03*
%TD*%
D14*
%TO.C,C501*%
X97900000Y-115500000D03*
X98900000Y-115500000D03*
%TD*%
D16*
%TO.C,C27*%
X113600000Y-136200000D03*
X113600000Y-135200000D03*
%TD*%
D12*
%TO.C,R14*%
X100050000Y-106600000D03*
X99050000Y-106600000D03*
%TD*%
D45*
%TO.C,R401*%
X141153553Y-115553553D03*
X140446447Y-114846447D03*
%TD*%
D29*
%TO.C,C23*%
X129700000Y-132650000D03*
X129700000Y-134550000D03*
%TD*%
D58*
%TO.C,J1*%
X161000000Y-94600000D03*
D59*
X158460000Y-94600000D03*
X155920000Y-94600000D03*
X153380000Y-94600000D03*
X150840000Y-94600000D03*
X148300000Y-94600000D03*
X145760000Y-94600000D03*
X143220000Y-94600000D03*
X140680000Y-94600000D03*
X138140000Y-94600000D03*
X135600000Y-94600000D03*
X133060000Y-94600000D03*
X130520000Y-94600000D03*
X127980000Y-94600000D03*
X125440000Y-94600000D03*
X122900000Y-94600000D03*
X161000000Y-97140000D03*
X158460000Y-97140000D03*
X155920000Y-97140000D03*
X153380000Y-97140000D03*
X150840000Y-97140000D03*
X148300000Y-97140000D03*
X145760000Y-97140000D03*
X143220000Y-97140000D03*
X140680000Y-97140000D03*
X138140000Y-97140000D03*
X135600000Y-97140000D03*
X133060000Y-97140000D03*
X130520000Y-97140000D03*
X127980000Y-97140000D03*
X125440000Y-97140000D03*
X122900000Y-97140000D03*
X161000000Y-99680000D03*
X158460000Y-99680000D03*
X155920000Y-99680000D03*
X153380000Y-99680000D03*
X150840000Y-99680000D03*
X148300000Y-99680000D03*
X145760000Y-99680000D03*
X143220000Y-99680000D03*
X140680000Y-99680000D03*
X138140000Y-99680000D03*
X135600000Y-99680000D03*
X133060000Y-99680000D03*
X130520000Y-99680000D03*
X127980000Y-99680000D03*
X125440000Y-99680000D03*
X122900000Y-99680000D03*
%TD*%
D14*
%TO.C,C900*%
X105900000Y-109400000D03*
X106900000Y-109400000D03*
%TD*%
D29*
%TO.C,C25*%
X125700000Y-132650000D03*
X125700000Y-134550000D03*
%TD*%
D15*
%TO.C,R19*%
X119540000Y-103870000D03*
X119540000Y-104870000D03*
%TD*%
D60*
%TO.C,X1*%
X139744366Y-108144366D03*
X141300000Y-109700000D03*
X142544508Y-108455492D03*
X140988874Y-106899858D03*
%TD*%
D61*
%TO.C,U401*%
X90075000Y-95500000D03*
X90075000Y-94700000D03*
X88925000Y-95100000D03*
%TD*%
D16*
%TO.C,C3*%
X133400000Y-134950000D03*
X133400000Y-133950000D03*
%TD*%
D26*
%TO.C,C410*%
X139746447Y-115546447D03*
X140453553Y-116253553D03*
%TD*%
D14*
%TO.C,C904*%
X103950000Y-109400000D03*
X104950000Y-109400000D03*
%TD*%
D12*
%TO.C,C400*%
X128199999Y-105100000D03*
X127200001Y-105100000D03*
%TD*%
D19*
%TO.C,J2*%
X88475000Y-136500000D03*
X88475000Y-123000000D03*
D62*
X94475000Y-133350000D03*
D21*
X94475000Y-126150000D03*
%TD*%
D16*
%TO.C,R21*%
X123600000Y-104900000D03*
X123600000Y-103900000D03*
%TD*%
D63*
%TO.C,J4*%
X161000000Y-89800000D03*
D64*
X158460000Y-89800000D03*
X155920000Y-89800000D03*
X153380000Y-89800000D03*
X150840000Y-89800000D03*
X148300000Y-89800000D03*
X145760000Y-89800000D03*
X143220000Y-89800000D03*
X140680000Y-89800000D03*
X138140000Y-89800000D03*
X135600000Y-89800000D03*
X133060000Y-89800000D03*
X130520000Y-89800000D03*
X127980000Y-89800000D03*
X125440000Y-89800000D03*
X122900000Y-89800000D03*
%TD*%
D65*
%TO.C,U801*%
X98250000Y-108781500D03*
D66*
X97850000Y-108731500D03*
D67*
X97281500Y-108900000D03*
X97281500Y-109300000D03*
X97281500Y-109700000D03*
D66*
X97850000Y-109868500D03*
X98250000Y-109868500D03*
D67*
X98818500Y-109700000D03*
X98818500Y-109300000D03*
X98818500Y-108900000D03*
%TD*%
D12*
%TO.C,R703*%
X109600000Y-92039888D03*
X108600000Y-92039888D03*
%TD*%
D14*
%TO.C,R51*%
X94990000Y-119800000D03*
X95990000Y-119800000D03*
%TD*%
D15*
%TO.C,R11*%
X144000000Y-129850000D03*
X144000000Y-130850000D03*
%TD*%
D68*
%TO.C,JP301*%
X140600000Y-128860000D03*
D69*
X140600000Y-130310000D03*
%TD*%
D14*
%TO.C,C800*%
X82100000Y-101500000D03*
X83100000Y-101500000D03*
%TD*%
D16*
%TO.C,C425*%
X127200000Y-104200000D03*
X127200000Y-103200000D03*
%TD*%
D70*
%TO.C,U302*%
X105162500Y-107525000D03*
X105162500Y-107025000D03*
X105162500Y-106525000D03*
X105162500Y-106025000D03*
D71*
X104450000Y-105312500D03*
X103950000Y-105312500D03*
X103450000Y-105312500D03*
X102950000Y-105312500D03*
D70*
X102237500Y-106025000D03*
X102237500Y-106525000D03*
X102237500Y-107025000D03*
X102237500Y-107525000D03*
D71*
X102950000Y-108237500D03*
X103450000Y-108237500D03*
X103950000Y-108237500D03*
X104450000Y-108237500D03*
D63*
X103700000Y-106775000D03*
%TD*%
D14*
%TO.C,R800*%
X84100000Y-101500000D03*
X85100000Y-101500000D03*
%TD*%
D16*
%TO.C,R17*%
X118540000Y-104870000D03*
X118540000Y-103870000D03*
%TD*%
D14*
%TO.C,C415*%
X145388129Y-107900000D03*
X146388129Y-107900000D03*
%TD*%
D72*
%TO.C,U2*%
X114670000Y-127300000D03*
X113400000Y-127300000D03*
X112130000Y-127300000D03*
X110860000Y-127300000D03*
X110860000Y-132700000D03*
X112130000Y-132700000D03*
X113400000Y-132700000D03*
X114670000Y-132700000D03*
%TD*%
D73*
%TO.C,U7*%
X114400000Y-107050000D03*
X114000000Y-107050000D03*
X113600000Y-107050000D03*
X113200000Y-107050000D03*
X112800000Y-107050000D03*
D74*
X112150000Y-107700000D03*
X112150000Y-108100000D03*
X112150000Y-108500000D03*
X112150000Y-108900000D03*
X112150000Y-109300000D03*
D73*
X112800000Y-109950000D03*
X113200000Y-109950000D03*
X113600000Y-109950000D03*
X114000000Y-109950000D03*
X114400000Y-109950000D03*
D74*
X115050000Y-109300000D03*
X115050000Y-108900000D03*
X115050000Y-108500000D03*
X115050000Y-108100000D03*
X115050000Y-107700000D03*
D75*
X113600000Y-108500000D03*
%TD*%
D26*
%TO.C,R402*%
X139046447Y-116246447D03*
X139753553Y-116953553D03*
%TD*%
D76*
%TO.C,U4*%
X95075000Y-109100000D03*
X95075000Y-109900000D03*
X96225000Y-109500000D03*
%TD*%
D55*
%TO.C,Y900*%
X110100000Y-108600000D03*
X110100000Y-106400000D03*
X108400000Y-106400000D03*
X108400000Y-108600000D03*
%TD*%
D29*
%TO.C,C2*%
X108900000Y-130400000D03*
X108900000Y-132300000D03*
%TD*%
D44*
%TO.C,C30*%
X139446447Y-106353553D03*
X140153553Y-105646447D03*
%TD*%
D14*
%TO.C,R702*%
X104046000Y-101439888D03*
X105046000Y-101439888D03*
%TD*%
D15*
%TO.C,C707*%
X110170000Y-96900000D03*
X110170000Y-97900000D03*
%TD*%
D14*
%TO.C,C902*%
X105900000Y-110400000D03*
X106900000Y-110400000D03*
%TD*%
D15*
%TO.C,R7*%
X137700000Y-134250000D03*
X137700000Y-135250000D03*
%TD*%
D29*
%TO.C,C5*%
X104900000Y-130400000D03*
X104900000Y-132300000D03*
%TD*%
%TO.C,C19*%
X143300000Y-132850000D03*
X143300000Y-134750000D03*
%TD*%
D15*
%TO.C,C32*%
X122800000Y-114000000D03*
X122800000Y-115000000D03*
%TD*%
D12*
%TO.C,R9*%
X99200000Y-132200000D03*
X98200000Y-132200000D03*
%TD*%
D13*
%TO.C,D4*%
X115300000Y-115190000D03*
X115300000Y-113610000D03*
%TD*%
D12*
%TO.C,R700*%
X109046000Y-91000000D03*
X108046000Y-91000000D03*
%TD*%
D24*
%TO.C,H4*%
X86000000Y-129000000D03*
%TD*%
D29*
%TO.C,C1*%
X108900000Y-127000000D03*
X108900000Y-128900000D03*
%TD*%
D15*
%TO.C,R701*%
X110100000Y-90000000D03*
X110100000Y-91000000D03*
%TD*%
D12*
%TO.C,R8*%
X99200000Y-126700000D03*
X98200000Y-126700000D03*
%TD*%
D77*
%TO.C,X2*%
X141416117Y-112783883D03*
X143183883Y-111016117D03*
%TD*%
D26*
%TO.C,C31*%
X143646447Y-109546447D03*
X144353553Y-110253553D03*
%TD*%
D29*
%TO.C,C18*%
X145500000Y-128550000D03*
X145500000Y-130450000D03*
%TD*%
D78*
%TO.C,J5*%
X108130000Y-110500000D03*
D79*
X109400000Y-110500000D03*
X110670000Y-110500000D03*
%TD*%
D80*
%TO.C,J3*%
X102050936Y-93494824D03*
D79*
X102948962Y-94392850D03*
X103846987Y-95290875D03*
X104745013Y-96188901D03*
X105643038Y-97086926D03*
X106541064Y-97984952D03*
%TD*%
M02*
