%TF.GenerationSoftware,KiCad,Pcbnew,9.0.3*%
%TF.CreationDate,2025-09-15T21:45:31+02:00*%
%TF.ProjectId,MMS2,4d4d5332-2e6b-4696-9361-645f70636258,rev?*%
%TF.SameCoordinates,Original*%
%TF.FileFunction,Copper,L2,Bot*%
%TF.FilePolarity,Positive*%
%FSLAX46Y46*%
G04 Gerber Fmt 4.6, Leading zero omitted, Abs format (unit mm)*
G04 Created by KiCad (PCBNEW 9.0.3) date 2025-09-15 21:45:31*
%MOMM*%
%LPD*%
G01*
G04 APERTURE LIST*
G04 Aperture macros list*
%AMRoundRect*
0 Rectangle with rounded corners*
0 $1 Rounding radius*
0 $2 $3 $4 $5 $6 $7 $8 $9 X,Y pos of 4 corners*
0 Add a 4 corners polygon primitive as box body*
4,1,4,$2,$3,$4,$5,$6,$7,$8,$9,$2,$3,0*
0 Add four circle primitives for the rounded corners*
1,1,$1+$1,$2,$3*
1,1,$1+$1,$4,$5*
1,1,$1+$1,$6,$7*
1,1,$1+$1,$8,$9*
0 Add four rect primitives between the rounded corners*
20,1,$1+$1,$2,$3,$4,$5,0*
20,1,$1+$1,$4,$5,$6,$7,0*
20,1,$1+$1,$6,$7,$8,$9,0*
20,1,$1+$1,$8,$9,$2,$3,0*%
%AMRotRect*
0 Rectangle, with rotation*
0 The origin of the aperture is its center*
0 $1 length*
0 $2 width*
0 $3 Rotation angle, in degrees counterclockwise*
0 Add horizontal line*
21,1,$1,$2,0,0,$3*%
G04 Aperture macros list end*
%TA.AperFunction,ComponentPad*%
%ADD10C,1.700000*%
%TD*%
%TA.AperFunction,ComponentPad*%
%ADD11R,1.700000X1.700000*%
%TD*%
%TA.AperFunction,ComponentPad*%
%ADD12C,4.100000*%
%TD*%
%TA.AperFunction,ComponentPad*%
%ADD13RoundRect,1.025000X-1.025000X1.025000X-1.025000X-1.025000X1.025000X-1.025000X1.025000X1.025000X0*%
%TD*%
%TA.AperFunction,ComponentPad*%
%ADD14R,2.000000X0.900000*%
%TD*%
%TA.AperFunction,ComponentPad*%
%ADD15R,1.500000X1.500000*%
%TD*%
%TA.AperFunction,ComponentPad*%
%ADD16C,1.500000*%
%TD*%
%TA.AperFunction,ComponentPad*%
%ADD17C,2.300000*%
%TD*%
%TA.AperFunction,ComponentPad*%
%ADD18C,5.600000*%
%TD*%
%TA.AperFunction,ComponentPad*%
%ADD19RotRect,1.000000X1.000000X45.000000*%
%TD*%
%TA.AperFunction,ComponentPad*%
%ADD20C,1.000000*%
%TD*%
%TA.AperFunction,HeatsinkPad*%
%ADD21O,2.100000X1.000000*%
%TD*%
%TA.AperFunction,HeatsinkPad*%
%ADD22O,1.800000X1.000000*%
%TD*%
%TA.AperFunction,ComponentPad*%
%ADD23R,1.650000X1.650000*%
%TD*%
%TA.AperFunction,ComponentPad*%
%ADD24C,1.650000*%
%TD*%
%TA.AperFunction,ComponentPad*%
%ADD25RoundRect,1.025000X1.025000X-1.025000X1.025000X1.025000X-1.025000X1.025000X-1.025000X-1.025000X0*%
%TD*%
%TA.AperFunction,ComponentPad*%
%ADD26C,0.600000*%
%TD*%
%TA.AperFunction,SMDPad,CuDef*%
%ADD27R,4.900000X2.950000*%
%TD*%
%TA.AperFunction,SMDPad,CuDef*%
%ADD28C,1.000000*%
%TD*%
%TA.AperFunction,ViaPad*%
%ADD29C,0.500000*%
%TD*%
%TA.AperFunction,Conductor*%
%ADD30C,0.120000*%
%TD*%
%TA.AperFunction,Conductor*%
%ADD31C,0.170000*%
%TD*%
%TA.AperFunction,Conductor*%
%ADD32C,0.200000*%
%TD*%
G04 APERTURE END LIST*
D10*
%TO.P,REF\u002A\u002A,16*%
%TO.N,N/C*%
X161460000Y-89800000D03*
%TO.P,REF\u002A\u002A,15*%
X158920000Y-89800000D03*
%TO.P,REF\u002A\u002A,14*%
X156380000Y-89800000D03*
%TO.P,REF\u002A\u002A,13*%
X153840000Y-89800000D03*
%TO.P,REF\u002A\u002A,12*%
X151300000Y-89800000D03*
%TO.P,REF\u002A\u002A,11*%
X148760000Y-89800000D03*
%TO.P,REF\u002A\u002A,10*%
X146220000Y-89800000D03*
%TO.P,REF\u002A\u002A,9*%
X143680000Y-89800000D03*
%TO.P,REF\u002A\u002A,8*%
X141140000Y-89800000D03*
%TO.P,REF\u002A\u002A,7*%
X138600000Y-89800000D03*
%TO.P,REF\u002A\u002A,6*%
X136060000Y-89800000D03*
%TO.P,REF\u002A\u002A,5*%
X133520000Y-89800000D03*
%TO.P,REF\u002A\u002A,4*%
X130980000Y-89800000D03*
%TO.P,REF\u002A\u002A,3*%
X128440000Y-89800000D03*
%TO.P,REF\u002A\u002A,2*%
X125900000Y-89800000D03*
D11*
%TO.P,REF\u002A\u002A,1*%
X123360000Y-89800000D03*
%TD*%
D12*
%TO.P,J7,2,Pin_2*%
%TO.N,BRD_VIN*%
X156400000Y-126150000D03*
D13*
%TO.P,J7,1,Pin_1*%
%TO.N,GNDPWR*%
X156400000Y-133350000D03*
D14*
%TO.P,J7,*%
%TO.N,*%
X162400000Y-136500000D03*
X162400000Y-123000000D03*
%TD*%
D15*
%TO.P,J9,1*%
%TO.N,/CAN auto terminator/CAN2.-*%
X163750000Y-108610000D03*
D16*
%TO.P,J9,2*%
%TO.N,/CAN auto terminator/CAN2.+*%
X161970000Y-109626000D03*
%TO.P,J9,3*%
%TO.N,GND*%
X163750000Y-110642000D03*
%TO.P,J9,4*%
%TO.N,/CAN auto terminator/CAN1.-*%
X161970000Y-111658000D03*
%TO.P,J9,5*%
%TO.N,/CAN auto terminator/CAN1.+*%
X163750000Y-112674000D03*
%TO.P,J9,6*%
%TO.N,+12V*%
X161970000Y-113690000D03*
%TO.P,J9,7*%
%TO.N,/MMS_CONNECTOR_DOWNSTREAM/USB_MMS_CONN.D-*%
X163750000Y-114706000D03*
%TO.P,J9,8*%
%TO.N,/MMS_CONNECTOR_DOWNSTREAM/USB_MMS_CONN.D+*%
X161970000Y-115722000D03*
%TO.P,J9,9*%
%TO.N,GND*%
X157150000Y-105310000D03*
%TO.P,J9,10*%
%TO.N,Net-(J9-Pad10)*%
X157150000Y-107600000D03*
%TO.P,J9,11*%
%TO.N,GND*%
X157150000Y-116740000D03*
%TO.P,J9,12*%
%TO.N,Net-(J9-Pad12)*%
X157150000Y-119030000D03*
D17*
%TO.P,J9,SH*%
%TO.N,Net-(C46-Pad1)*%
X162860000Y-104040000D03*
X162860000Y-120300000D03*
%TD*%
D18*
%TO.P,H3,1,1*%
%TO.N,unconnected-(H3-Pad1)*%
X114800000Y-154000000D03*
%TD*%
%TO.P,H2,1,1*%
%TO.N,unconnected-(H2-Pad1)*%
X148500000Y-106800000D03*
%TD*%
D19*
%TO.P,J3,1,Pin_1*%
%TO.N,+3V3*%
X102007898Y-93407898D03*
D20*
%TO.P,J3,2,Pin_2*%
%TO.N,/STlink-BMprobe/DIO*%
X102905924Y-94305924D03*
%TO.P,J3,3,Pin_3*%
%TO.N,/STlink-BMprobe/CLK*%
X103803949Y-95203949D03*
%TO.P,J3,4,Pin_4*%
%TO.N,/STlink-BMprobe/STLINK-RST*%
X104701975Y-96101975D03*
%TO.P,J3,5,Pin_5*%
%TO.N,GND*%
X105600000Y-97000000D03*
%TO.P,J3,6,Pin_6*%
%TO.N,/STlink-BMprobe/STLINK-BOOT0*%
X106498026Y-97898026D03*
%TD*%
D18*
%TO.P,H4,1,1*%
%TO.N,unconnected-(H4-Pad1)*%
X164000000Y-129000000D03*
%TD*%
D21*
%TO.P,J800,S1,SHIELD*%
%TO.N,Net-(J800-SHIELD)*%
X86785000Y-90680000D03*
D22*
X82605000Y-90680000D03*
D21*
X86785000Y-99320000D03*
D22*
X82605000Y-99320000D03*
%TD*%
D18*
%TO.P,H4,1,1*%
%TO.N,unconnected-(H4-Pad1)*%
X94000000Y-92000000D03*
%TD*%
D15*
%TO.P,J8,1*%
%TO.N,/CAN auto terminator/CAN2.-*%
X86125000Y-114217695D03*
D16*
%TO.P,J8,2*%
%TO.N,/CAN auto terminator/CAN2.+*%
X87905000Y-113201695D03*
%TO.P,J8,3*%
%TO.N,GND*%
X86125000Y-112185695D03*
%TO.P,J8,4*%
%TO.N,/CAN auto terminator/CAN1.-*%
X87905000Y-111169695D03*
%TO.P,J8,5*%
%TO.N,/CAN auto terminator/CAN1.+*%
X86125000Y-110153695D03*
%TO.P,J8,6*%
%TO.N,+12V*%
X87905000Y-109137695D03*
%TO.P,J8,7*%
%TO.N,/MMS_CONNECTOR_UPSTREAM/USB_MMS_CONN.D-*%
X86125000Y-108121695D03*
%TO.P,J8,8*%
%TO.N,/MMS_CONNECTOR_UPSTREAM/USB_MMS_CONN.D+*%
X87905000Y-107105695D03*
%TO.P,J8,9*%
%TO.N,GND*%
X92725000Y-117517695D03*
%TO.P,J8,10*%
%TO.N,Net-(J8-Pad10)*%
X92725000Y-115227695D03*
%TO.P,J8,11*%
%TO.N,GND*%
X92725000Y-106087695D03*
%TO.P,J8,12*%
%TO.N,Net-(J8-Pad12)*%
X92725000Y-103797695D03*
D17*
%TO.P,J8,SH*%
%TO.N,Net-(C45-Pad1)*%
X87015000Y-118787695D03*
X87015000Y-102527695D03*
%TD*%
D23*
%TO.P,J1,A1,A1*%
%TO.N,/Interboard_connector/Chainbus.SDA*%
X161480000Y-94620000D03*
D24*
%TO.P,J1,A2,A2*%
%TO.N,/Interboard_connector/Chainbus.SCL*%
X158940000Y-94620000D03*
%TO.P,J1,A3,A3*%
%TO.N,/Interboard_connector/Chainbus_I2C_addr0*%
X156400000Y-94620000D03*
%TO.P,J1,A4,A4*%
%TO.N,/Interboard_connector/Chainbus_I2C_addr1*%
X153860000Y-94620000D03*
%TO.P,J1,A5,A5*%
%TO.N,/Interboard_connector/Chainbus_I2C_addr2*%
X151320000Y-94620000D03*
%TO.P,J1,A6,A6*%
%TO.N,/Interboard_connector/Chainbus.RX*%
X148780000Y-94620000D03*
%TO.P,J1,A7,A7*%
%TO.N,/Interboard_connector/Chainbus.TX*%
X146240000Y-94620000D03*
%TO.P,J1,A8,A8*%
%TO.N,/Interboard_connector/Chainbus_UART_addr0*%
X143700000Y-94620000D03*
%TO.P,J1,A9,A9*%
%TO.N,/Interboard_connector/Chainbus_UART_addr1*%
X141160000Y-94620000D03*
%TO.P,J1,A10,A10*%
%TO.N,/Interboard_connector/Chainbus_UART_addr2*%
X138620000Y-94620000D03*
%TO.P,J1,A11,A11*%
%TO.N,/Interboard_connector/Chainbus.MISO*%
X136080000Y-94620000D03*
%TO.P,J1,A12,A12*%
%TO.N,/Interboard_connector/Chainbus.MOSI*%
X133540000Y-94620000D03*
%TO.P,J1,A13,A13*%
%TO.N,/Interboard_connector/Chainbus.SCK*%
X131000000Y-94620000D03*
%TO.P,J1,A14,A14*%
%TO.N,/Interboard_connector/Chainbus_SPI_CS0*%
X128460000Y-94620000D03*
%TO.P,J1,A15,A15*%
%TO.N,/Interboard_connector/Chainbus_SPI_CS1*%
X125920000Y-94620000D03*
%TO.P,J1,A16,A16*%
%TO.N,/Interboard_connector/Chainbus_SPI_CS2*%
X123380000Y-94620000D03*
%TO.P,J1,B1,B1*%
%TO.N,unconnected-(J1-PadB1)*%
X161480000Y-97160000D03*
%TO.P,J1,B2,B2*%
%TO.N,unconnected-(J1-PadB2)*%
X158940000Y-97160000D03*
%TO.P,J1,B3,B3*%
%TO.N,unconnected-(J1-PadB3)*%
X156400000Y-97160000D03*
%TO.P,J1,B4,B4*%
%TO.N,unconnected-(J1-PadB4)*%
X153860000Y-97160000D03*
%TO.P,J1,B5,B5*%
%TO.N,unconnected-(J1-PadB5)*%
X151320000Y-97160000D03*
%TO.P,J1,B6,B6*%
%TO.N,unconnected-(J1-PadB6)*%
X148780000Y-97160000D03*
%TO.P,J1,B7,B7*%
%TO.N,GND*%
X146240000Y-97160000D03*
%TO.P,J1,B8,B8*%
X143700000Y-97160000D03*
%TO.P,J1,B9,B9*%
X141160000Y-97160000D03*
%TO.P,J1,B10,B10*%
X138620000Y-97160000D03*
%TO.P,J1,B11,B11*%
%TO.N,unconnected-(J1-PadB11)*%
X136080000Y-97160000D03*
%TO.P,J1,B12,B12*%
%TO.N,unconnected-(J1-PadB12)*%
X133540000Y-97160000D03*
%TO.P,J1,B13,B13*%
%TO.N,GND*%
X131000000Y-97160000D03*
%TO.P,J1,B14,B14*%
X128460000Y-97160000D03*
%TO.P,J1,B15,B15*%
X125920000Y-97160000D03*
%TO.P,J1,B16,B16*%
X123380000Y-97160000D03*
%TO.P,J1,C1,C1*%
%TO.N,/Interboard_connector/Altmode1*%
X161480000Y-99700000D03*
%TO.P,J1,C2,C2*%
%TO.N,/Interboard_connector/Altmode2*%
X158940000Y-99700000D03*
%TO.P,J1,C3,C3*%
%TO.N,/Interboard_connector/Altmode3*%
X156400000Y-99700000D03*
%TO.P,J1,C4,C4*%
%TO.N,/Interboard_connector/Altmode4*%
X153860000Y-99700000D03*
%TO.P,J1,C5,C5*%
%TO.N,/Interboard_connector/Altmode5*%
X151320000Y-99700000D03*
%TO.P,J1,C6,C6*%
%TO.N,/Interboard_connector/Altmode6*%
X148780000Y-99700000D03*
%TO.P,J1,C7,C7*%
%TO.N,/Interboard_connector/Altmode7*%
X146240000Y-99700000D03*
%TO.P,J1,C8,C8*%
%TO.N,/Interboard_connector/Altmode8*%
X143700000Y-99700000D03*
%TO.P,J1,C9,C9*%
%TO.N,/Interboard_connector/Altmode9*%
X141160000Y-99700000D03*
%TO.P,J1,C10,C10*%
%TO.N,/Interboard_connector/Altmode10*%
X138620000Y-99700000D03*
%TO.P,J1,C11,C11*%
%TO.N,/Interboard_connector/Altmode11*%
X136080000Y-99700000D03*
%TO.P,J1,C12,C12*%
%TO.N,/Interboard_connector/Altmode12*%
X133540000Y-99700000D03*
%TO.P,J1,C13,C13*%
%TO.N,/Interboard_connector/Altmode13*%
X131000000Y-99700000D03*
%TO.P,J1,C14,C14*%
%TO.N,/Interboard_connector/Altmode14*%
X128460000Y-99700000D03*
%TO.P,J1,C15,C15*%
%TO.N,/Interboard_connector/Altmode15*%
X125920000Y-99700000D03*
%TO.P,J1,C16,C16*%
%TO.N,/Interboard_connector/Altmode16*%
X123380000Y-99700000D03*
%TD*%
D14*
%TO.P,J2,*%
%TO.N,*%
X88475000Y-136097122D03*
X88475000Y-122597122D03*
D25*
%TO.P,J2,1,Pin_1*%
%TO.N,GNDPWR*%
X94475000Y-132947122D03*
D12*
%TO.P,J2,2,Pin_2*%
%TO.N,BRD_VIN*%
X94475000Y-125747122D03*
%TD*%
D26*
%TO.P,U2,9,GND*%
%TO.N,GND*%
X114715000Y-130200000D03*
X113415000Y-130200000D03*
X112115000Y-130200000D03*
X110815000Y-130200000D03*
D27*
X112765000Y-130850000D03*
D26*
X114715000Y-131500000D03*
X113415000Y-131500000D03*
X112115000Y-131500000D03*
X110815000Y-131500000D03*
%TD*%
D18*
%TO.P,H1,1,1*%
%TO.N,GND*%
X114800000Y-146850000D03*
%TD*%
%TO.P,H4,1,1*%
%TO.N,unconnected-(H4-Pad1)*%
X86000000Y-129000000D03*
%TD*%
D28*
%TO.P,TP700,1,1*%
%TO.N,/STlink-BMprobe/STLINK_TX*%
X107400000Y-95100000D03*
%TD*%
%TO.P,TP701,1,1*%
%TO.N,/STlink-BMprobe/STLINK_RX*%
X105100000Y-92900000D03*
%TD*%
D29*
%TO.N,GND*%
X131700000Y-128550000D03*
X123000000Y-136450000D03*
X121800000Y-136450000D03*
X103400000Y-134100000D03*
X116400000Y-136450000D03*
X135600000Y-136700000D03*
X90100000Y-92700000D03*
X131700000Y-136250000D03*
X128300000Y-136250000D03*
X148000000Y-135900000D03*
X117000000Y-136450000D03*
X101400000Y-134100000D03*
X95200000Y-119500000D03*
X127100000Y-128550000D03*
X132300000Y-128550000D03*
X89900000Y-91700000D03*
X118800000Y-136450000D03*
X93500000Y-135850000D03*
X129100000Y-128550000D03*
X94700000Y-137050000D03*
X89000000Y-92700000D03*
X125100000Y-128550000D03*
X104300000Y-134100000D03*
X96600000Y-94600000D03*
X132300000Y-136250000D03*
X91200000Y-96800000D03*
X148350000Y-132325000D03*
X103100000Y-114100000D03*
X100200000Y-134100000D03*
X147650000Y-132325000D03*
X95300000Y-136450000D03*
X95200000Y-114600000D03*
X143300000Y-136500000D03*
X106300000Y-134100000D03*
X146200000Y-132325000D03*
X129100000Y-136250000D03*
X94700000Y-136450000D03*
X109500000Y-134100000D03*
X92900000Y-137050000D03*
X94100000Y-136450000D03*
X144800000Y-132325000D03*
X128300000Y-128550000D03*
X131100000Y-128550000D03*
X127100000Y-136250000D03*
X120000000Y-136450000D03*
X139500000Y-132450000D03*
X104600000Y-113800000D03*
X100800000Y-134100000D03*
X127700000Y-136250000D03*
X95500000Y-111600000D03*
X95200000Y-116700000D03*
X106900000Y-134100000D03*
X146950000Y-132325000D03*
X129700000Y-128550000D03*
X94100000Y-135850000D03*
X95300000Y-137050000D03*
X88400000Y-95300000D03*
X120600000Y-136450000D03*
X125700000Y-136250000D03*
X127700000Y-128550000D03*
X142200000Y-130700000D03*
X118200000Y-136450000D03*
X131100000Y-136250000D03*
X126300000Y-136250000D03*
X130300000Y-128550000D03*
X95900000Y-136450000D03*
X123600000Y-136450000D03*
X95300000Y-135850000D03*
X107500000Y-134100000D03*
X91000000Y-94000000D03*
X122400000Y-136450000D03*
X108900000Y-135200000D03*
X92900000Y-136450000D03*
X121200000Y-136450000D03*
X93500000Y-136450000D03*
X130300000Y-136250000D03*
X129700000Y-136250000D03*
X95900000Y-137050000D03*
X119400000Y-136450000D03*
X125700000Y-128550000D03*
X126300000Y-128550000D03*
X124200000Y-136450000D03*
X102200000Y-89100000D03*
X95600000Y-95500000D03*
X148650000Y-135900000D03*
X104900000Y-134100000D03*
X147300000Y-135900000D03*
X145500000Y-132325000D03*
X94100000Y-137050000D03*
X97600000Y-94600000D03*
X124200000Y-135250000D03*
X108300000Y-134100000D03*
X124200000Y-135850000D03*
X144000000Y-136500000D03*
X105500000Y-134100000D03*
X94700000Y-135850000D03*
X108900000Y-134100000D03*
X102500000Y-119200000D03*
X117600000Y-136450000D03*
X91200000Y-98000000D03*
X93500000Y-137050000D03*
X102200000Y-134100000D03*
X142600000Y-136500000D03*
X102800000Y-134100000D03*
X95900000Y-135850000D03*
X92900000Y-135850000D03*
%TO.N,+3V3*%
X100300000Y-90000000D03*
%TO.N,+5V*%
X103100000Y-112500000D03*
X102478552Y-116600000D03*
%TO.N,/CAN auto terminator/CAN2.-*%
X106975000Y-120900000D03*
X120519203Y-117969203D03*
X89724722Y-116250662D03*
%TO.N,/CAN auto terminator/CAN2.+*%
X120080797Y-117530797D03*
X111775000Y-119700000D03*
X89286316Y-115812256D03*
%TO.N,/CAN auto terminator/CAN1.-*%
X94750000Y-112800000D03*
X107075000Y-117050000D03*
X117919203Y-117380797D03*
%TO.N,/CAN auto terminator/CAN1.+*%
X117480797Y-117819203D03*
X94750000Y-113800000D03*
X113775000Y-118350000D03*
%TO.N,/USB switch/USBC_CONN.D-*%
X100265668Y-110915668D03*
X99915668Y-103984332D03*
%TO.N,/USB switch/USBC_CONN.D+*%
X99484332Y-104415668D03*
X99834332Y-110484332D03*
%TO.N,/STlink-BMprobe/USB_RENUM*%
X102000000Y-101300000D03*
X94600000Y-97600000D03*
%TO.N,/MCU/SWD.SWDIO*%
X98200000Y-97300000D03*
%TO.N,Net-(U801-SEL)*%
X96900000Y-108000000D03*
X98800000Y-108400000D03*
%TO.N,/STlink-BMprobe/STLINK_TX*%
X107321056Y-93578916D03*
%TO.N,/STlink-BMprobe/STLINK_RX*%
X106500000Y-92900000D03*
%TO.N,/STlink-BMprobe/DIO*%
X98822935Y-97495437D03*
%TO.N,/CAN_TR2/CAN.TX*%
X102450000Y-114900000D03*
%TO.N,/CAN_TR2/CAN.RX*%
X102450000Y-111900000D03*
%TO.N,/CAN_TR1/CAN.TX*%
X103350000Y-116600000D03*
%TO.N,/CAN_TR1/CAN.RX*%
X101250000Y-115900000D03*
%TO.N,/VRM/LMR36520ADDAR/LMR36520ADDAR_VOUT*%
X127100000Y-132450000D03*
X132300000Y-132450000D03*
X126300000Y-132450000D03*
X127700000Y-132450000D03*
X129100000Y-132450000D03*
X125700000Y-132450000D03*
X125100000Y-132450000D03*
X129700000Y-132450000D03*
X130300000Y-132450000D03*
X128300000Y-132450000D03*
X131700000Y-132450000D03*
X131100000Y-132450000D03*
%TO.N,BRD_VIN*%
X105300000Y-126700000D03*
X101800000Y-126700000D03*
X101200000Y-126700000D03*
X102400000Y-126700000D03*
X103900000Y-126700000D03*
X99200000Y-126700000D03*
X99800000Y-126700000D03*
X106500000Y-126700000D03*
X104500000Y-126700000D03*
X103300000Y-126700000D03*
X105900000Y-126700000D03*
X100400000Y-126700000D03*
%TD*%
D30*
%TO.N,/CAN auto terminator/CAN2.-*%
X120519203Y-117969203D02*
X120250503Y-117969203D01*
X91080000Y-116149706D02*
X90550294Y-115620000D01*
X106400000Y-120405156D02*
X104006687Y-120405156D01*
X106400000Y-120405156D02*
X106400000Y-120900000D01*
X87780000Y-114720825D02*
X87780000Y-116149706D01*
X90950294Y-120420000D02*
X89980000Y-119449706D01*
X87269175Y-114210000D02*
X87780000Y-114720825D01*
X89980000Y-119449706D02*
X89980000Y-117650294D01*
X91080000Y-116550294D02*
X91080000Y-116149706D01*
X89724722Y-115981962D02*
X89724722Y-116250662D01*
X87780000Y-116149706D02*
X88150294Y-116520000D01*
X89186684Y-116520000D02*
X89456022Y-116250662D01*
X104006687Y-120405156D02*
X103991843Y-120420000D01*
X117814550Y-120405156D02*
X106400000Y-120405156D01*
X89980000Y-117650294D02*
X91080000Y-116550294D01*
X90086684Y-115620000D02*
X89724722Y-115981962D01*
X86125000Y-114210000D02*
X87269175Y-114210000D01*
X90550294Y-115620000D02*
X90086684Y-115620000D01*
X120250503Y-117969203D02*
X117814550Y-120405156D01*
X89456022Y-116250662D02*
X89724722Y-116250662D01*
X88150294Y-116520000D02*
X89186684Y-116520000D01*
X103991843Y-120420000D02*
X90950294Y-120420000D01*
%TO.N,/CAN auto terminator/CAN2.+*%
X103900000Y-120180000D02*
X91049706Y-120180000D01*
X89286316Y-116080956D02*
X89286316Y-115812256D01*
X87700000Y-114300000D02*
X88020000Y-114620000D01*
X120080797Y-117799497D02*
X117715138Y-120165156D01*
X111200000Y-120165156D02*
X111200000Y-119700000D01*
X88020000Y-116050294D02*
X88249706Y-116280000D01*
X120080797Y-117530797D02*
X120080797Y-117799497D01*
X117715138Y-120165156D02*
X111200000Y-120165156D01*
X91320000Y-116050294D02*
X90649706Y-115380000D01*
X89087272Y-116280000D02*
X89286316Y-116080956D01*
X90220000Y-117749706D02*
X91320000Y-116649706D01*
X90220000Y-119350294D02*
X90220000Y-117749706D01*
X89555016Y-115812256D02*
X89286316Y-115812256D01*
X89987272Y-115380000D02*
X89555016Y-115812256D01*
X91049706Y-120180000D02*
X90220000Y-119350294D01*
X87700000Y-113399000D02*
X87700000Y-114300000D01*
X88020000Y-114620000D02*
X88020000Y-116050294D01*
X88249706Y-116280000D02*
X89087272Y-116280000D01*
X103914844Y-120165156D02*
X103900000Y-120180000D01*
X90649706Y-115380000D02*
X89987272Y-115380000D01*
X91320000Y-116649706D02*
X91320000Y-116050294D01*
X111200000Y-120165156D02*
X103914844Y-120165156D01*
X87905000Y-113194000D02*
X87700000Y-113399000D01*
%TO.N,/CAN auto terminator/CAN1.-*%
X99478706Y-117559000D02*
X94750000Y-112830294D01*
X117089047Y-117559000D02*
X106500000Y-117559000D01*
X106500000Y-117559000D02*
X106500000Y-117050000D01*
X94750000Y-112830294D02*
X94750000Y-112800000D01*
X117896609Y-117358203D02*
X117289844Y-117358203D01*
X106500000Y-117559000D02*
X99478706Y-117559000D01*
X117919203Y-117380797D02*
X117896609Y-117358203D01*
X117289844Y-117358203D02*
X117089047Y-117559000D01*
%TO.N,/CAN auto terminator/CAN1.+*%
X95350000Y-113800000D02*
X94750000Y-113800000D01*
X117231300Y-117800000D02*
X113200000Y-117800000D01*
X113200000Y-117800000D02*
X99350000Y-117800000D01*
X99350000Y-117800000D02*
X95350000Y-113800000D01*
X113200000Y-117800000D02*
X113200000Y-118350000D01*
D31*
%TO.N,/USB switch/USBC_CONN.D-*%
X100320332Y-110627658D02*
X102340000Y-108607990D01*
X100265668Y-110740304D02*
X100320332Y-110685640D01*
X102340000Y-106642010D02*
X99915668Y-104217678D01*
X100265668Y-110915668D02*
X100265668Y-110740304D01*
X102340000Y-108607990D02*
X102340000Y-106642010D01*
X100320332Y-110685640D02*
X100320332Y-110627658D01*
X99915668Y-104217678D02*
X99915668Y-103984332D01*
%TO.N,/USB switch/USBC_CONN.D+*%
X102060000Y-106757990D02*
X99717678Y-104415668D01*
X99717678Y-104415668D02*
X99484332Y-104415668D01*
X100122342Y-110429668D02*
X102060000Y-108492010D01*
X102060000Y-108492010D02*
X102060000Y-106757990D01*
X100064360Y-110429668D02*
X100122342Y-110429668D01*
X99834332Y-110484332D02*
X100009696Y-110484332D01*
X100009696Y-110484332D02*
X100064360Y-110429668D01*
D32*
%TO.N,/STlink-BMprobe/USB_RENUM*%
X95800000Y-101300000D02*
X94600000Y-100100000D01*
X94600000Y-100100000D02*
X94600000Y-97600000D01*
X102000000Y-101300000D02*
X95800000Y-101300000D01*
%TO.N,Net-(U801-SEL)*%
X98400000Y-108000000D02*
X98800000Y-108400000D01*
X96900000Y-108000000D02*
X98400000Y-108000000D01*
%TO.N,/STlink-BMprobe/STLINK_TX*%
X107321056Y-95021056D02*
X107400000Y-95100000D01*
X107321056Y-93578916D02*
X107321000Y-93578972D01*
X107321056Y-93578916D02*
X107321056Y-95021056D01*
%TO.N,/STlink-BMprobe/STLINK_RX*%
X106500000Y-92900000D02*
X105100000Y-92900000D01*
%TO.N,/STlink-BMprobe/DIO*%
X98827498Y-97500000D02*
X99711848Y-97500000D01*
X99711848Y-97500000D02*
X102905924Y-94305924D01*
X98822935Y-97495437D02*
X98827498Y-97500000D01*
%TD*%
M02*
