M48
; DRILL file {KiCad 9.0.3} date 2025-09-29T10:56:50+0200
; FORMAT={-:-/ absolute / inch / decimal}
; #@! TF.CreationDate,2025-09-29T10:56:50+02:00
; #@! TF.GenerationSoftware,Kicad,Pcbnew,9.0.3
; #@! TF.FileFunction,Plated,1,4,PTH
FMAT,2
INCH
; #@! TA.AperFunction,Plated,PTH,ViaDrill
T1C0.0118
; #@! TA.AperFunction,Plated,PTH,ComponentDrill
T2C0.0236
; #@! TA.AperFunction,Plated,PTH,ComponentDrill
T3C0.0256
; #@! TA.AperFunction,Plated,PTH,ComponentDrill
T4C0.0276
; #@! TA.AperFunction,Plated,PTH,ComponentDrill
T5C0.0350
; #@! TA.AperFunction,Plated,PTH,ComponentDrill
T6C0.0394
; #@! TA.AperFunction,Plated,PTH,ComponentDrill
T7C0.0433
; #@! TA.AperFunction,Plated,PTH,ComponentDrill
T8C0.0618
; #@! TA.AperFunction,Plated,PTH,ComponentDrill
T9C0.1063
; #@! TA.AperFunction,Plated,PTH,ComponentDrill
T10C0.1260
%
G90
G05
T1
X3.2283Y-3.6614
X3.2323Y-4.0315
X3.2677Y-3.8189
X3.2677Y-4.3701
X3.2677Y-4.5276
X3.2677Y-4.7638
X3.2677Y-4.9213
X3.2677Y-5.2362
X3.2717Y-4.0315
X3.311Y-3.9567
X3.3465Y-3.622
X3.3504Y-4.0315
X3.3543Y-3.7008
X3.3543Y-3.7638
X3.374Y-3.7205
X3.374Y-3.7835
X3.378Y-3.685
X3.3858Y-3.9961
X3.3995Y-3.8046
X3.4646Y-4.9213
X3.465Y-5.2362
X3.4764Y-3.878
X3.4764Y-3.9055
X3.4803Y-3.6268
X3.4803Y-3.6535
X3.5039Y-3.878
X3.5039Y-3.9055
X3.5254Y-3.7441
X3.5315Y-4.0748
X3.5433Y-3.626
X3.5433Y-3.6535
X3.5433Y-4.1024
X3.563Y-4.0748
X3.5787Y-4.1024
X3.5945Y-4.0748
X3.7165Y-4.2126
X3.7244Y-3.8425
X3.7559Y-4.3976
X3.7638Y-4.311
X3.7854Y-5.0374
X3.7874Y-4.8957
X3.7913Y-4.528
X3.7913Y-4.5778
X3.8031Y-3.7323
X3.8051Y-4.1909
X3.811Y-4.122
X3.813Y-4.8957
X3.813Y-4.9193
X3.813Y-4.9429
X3.813Y-4.9873
X3.813Y-5.0118
X3.813Y-5.0374
X3.815Y-4.2323
X3.815Y-4.7618
X3.8157Y-5.1811
X3.8157Y-5.2047
X3.8157Y-5.2283
X3.8157Y-5.252
X3.8157Y-5.2756
X3.8157Y-5.2992
X3.8157Y-5.3228
X3.8157Y-5.3465
X3.8268Y-3.9094
X3.8268Y-4.2638
X3.8307Y-4.437
X3.8307Y-4.4843
X3.8396Y-4.5974
X3.8425Y-3.7323
X3.8583Y-4.0079
X3.8652Y-5.1161
X3.8661Y-3.8307
X3.8701Y-4.3976
X3.8898Y-4.2677
X3.8909Y-4.241
X3.8915Y-4.1152
X3.8927Y-5.1161
X3.8937Y-3.8543
X3.8981Y-3.8262
X3.9055Y-4.3425
X3.9085Y-4.4291
X3.9094Y-4.4921
X3.9134Y-4.6024
X3.9134Y-4.6614
X3.9167Y-4.1109
X3.9193Y-5.1171
X3.9213Y-3.5827
X3.9291Y-4.0669
X3.9305Y-4.3498
X3.9331Y-4.2283
X3.9331Y-4.7087
X3.9409Y-4.0984
X3.9449Y-4.4291
X3.9449Y-4.4921
X3.9449Y-4.6024
X3.9449Y-4.6614
X3.9475Y-4.3701
X3.9567Y-3.6299
X3.9606Y-4.2283
X3.9646Y-4.7077
X3.9843Y-4.3701
X4.0157Y-3.9882
X4.0276Y-4.5935
X4.0335Y-4.4055
X4.0462Y-3.5284
X4.0472Y-3.5551
X4.0591Y-4.4252
X4.0591Y-4.4961
X4.063Y-4.2244
X4.063Y-4.6644
X4.0866Y-4.4173
X4.0966Y-4.024
X4.0984Y-4.6604
X4.1024Y-4.185
X4.1338Y-4.3382
X4.1341Y-4.3638
X4.1437Y-3.5571
X4.1496Y-3.7244
X4.1535Y-4.437
X4.1535Y-4.563
X4.1753Y-4.0241
X4.1929Y-4.2795
X4.1929Y-5.2441
X4.2009Y-4.0235
X4.2087Y-4.4843
X4.2203Y-3.7364
X4.2205Y-3.7087
X4.2205Y-4.2638
X4.2205Y-5.2441
X4.2362Y-5.315
X4.248Y-5.2441
X4.252Y-3.622
X4.2559Y-4.0079
X4.2598Y-4.5276
X4.2736Y-5.2441
X4.2835Y-4.0079
X4.2913Y-3.9016
X4.2931Y-3.5039
X4.3012Y-5.2441
X4.3189Y-5.3189
X4.3386Y-3.9646
X4.3465Y-3.6343
X4.3622Y-5.1181
X4.3661Y-4.1535
X4.3699Y-3.6956
X4.378Y-3.9646
X4.3819Y-4.4961
X4.3937Y-5.089
X4.3937Y-5.1472
X4.3976Y-3.6969
X4.4055Y-3.8819
X4.4055Y-3.9094
X4.4055Y-4.7402
X4.4134Y-4.2087
X4.4291Y-3.6339
X4.4291Y-3.6969
X4.4396Y-5.1181
X4.4567Y-4.6339
X4.4606Y-3.6969
X4.4724Y-4.2717
X4.4811Y-5.0917
X4.4811Y-5.1453
X4.4843Y-4.1654
X4.4941Y-4.498
X4.5108Y-5.3228
X4.5118Y-4.8937
X4.5118Y-4.9213
X4.5118Y-4.9488
X4.5169Y-5.1185
X4.5236Y-3.6654
X4.5276Y-4.3268
X4.5295Y-4.2165
X4.5394Y-4.8937
X4.5394Y-4.9213
X4.5394Y-4.9488
X4.5472Y-4.3898
X4.5502Y-5.2864
X4.5551Y-4.1772
X4.5669Y-4.2559
X4.5669Y-4.9213
X4.5669Y-4.9488
X4.5669Y-4.9764
X4.5669Y-5.0039
X4.5669Y-5.0315
X4.5827Y-5.3386
X4.5945Y-4.9764
X4.5945Y-5.0039
X4.5945Y-5.0315
X4.6106Y-5.3386
X4.6181Y-3.5079
X4.6181Y-3.5512
X4.6181Y-3.5906
X4.622Y-4.9764
X4.622Y-5.0039
X4.622Y-5.0315
X4.6385Y-5.3386
X4.6417Y-3.5315
X4.6417Y-3.5709
X4.6417Y-4.0591
X4.6496Y-5.0039
X4.6496Y-5.0315
X4.6563Y-4.5277
X4.6614Y-4.1575
X4.6644Y-4.314
X4.6664Y-5.3386
X4.6689Y-4.5039
X4.6732Y-4.0591
X4.6943Y-5.3386
X4.6969Y-4.5039
X4.6988Y-5.0266
X4.7202Y-4.533
X4.7223Y-5.3386
X4.7224Y-4.502
X4.7268Y-5.0266
X4.7457Y-4.063
X4.748Y-4.5315
X4.7502Y-5.3386
X4.752Y-3.9409
X4.7548Y-5.0266
X4.7559Y-4.2795
X4.7638Y-4.5531
X4.7781Y-5.3386
X4.7795Y-4.5748
X4.7828Y-5.0266
X4.806Y-5.3386
X4.8108Y-5.0266
X4.8228Y-4.6142
X4.8244Y-4.063
X4.8307Y-4.3228
X4.8339Y-5.3386
X4.8346Y-4.555
X4.8346Y-4.2717
X4.8388Y-5.0266
X4.8583Y-4.4606
X4.8618Y-5.3386
X4.8661Y-4.063
X4.8668Y-5.0266
X4.874Y-4.1575
X4.8858Y-4.4646
X4.8898Y-5.2835
X4.8898Y-5.311
X4.8898Y-5.3386
X4.8948Y-5.0226
X4.9016Y-4.4961
X4.9035Y-4.4409
X4.921Y-4.2519
X4.9228Y-5.0226
X4.9488Y-5.3307
X4.9508Y-5.0226
X4.9528Y-4.1718
X4.9528Y-4.2047
X4.9545Y-4.3132
X4.9733Y-4.2957
X4.9777Y-5.3307
X4.9788Y-5.0226
X5.0039Y-4.4567
X5.0066Y-5.3307
X5.0068Y-5.0226
X5.0082Y-4.3862
X5.0118Y-4.0354
X5.0197Y-4.6535
X5.0221Y-4.478
X5.026Y-4.3678
X5.0348Y-5.0226
X5.0354Y-4.1693
X5.0354Y-5.3307
X5.0433Y-4.0354
X5.0465Y-4.5013
X5.05Y-4.6366
X5.0512Y-4.1929
X5.0628Y-5.0226
X5.0643Y-5.3307
X5.0682Y-4.6777
X5.0908Y-5.0226
X5.0932Y-5.3307
X5.116Y-4.5657
X5.1188Y-5.0226
X5.122Y-5.3307
X5.1342Y-4.5837
X5.1378Y-4.3583
X5.1417Y-4.3898
X5.1468Y-5.0226
X5.1496Y-4.5157
X5.1509Y-5.3307
X5.1614Y-4.748
X5.1654Y-4.0512
X5.1748Y-5.0226
X5.1798Y-5.3307
X5.189Y-4.2126
X5.2028Y-5.0226
X5.2047Y-4.6024
X5.2087Y-5.3307
X5.2165Y-4.2008
X5.2259Y-4.4589
X5.2283Y-4.5709
X5.2362Y-4.3661
X5.2362Y-4.5
X5.244Y-4.4408
X5.2441Y-4.7165
X5.252Y-4.3937
X5.2598Y-4.5315
X5.2779Y-4.5616
X5.2857Y-4.6158
X5.2913Y-4.2717
X5.315Y-4.3819
X5.3368Y-4.3543
X5.3386Y-5.3484
X5.3504Y-4.1693
X5.3762Y-4.3622
X5.4055Y-4.6279
X5.4057Y-4.4923
X5.4237Y-4.4742
X5.4417Y-4.456
X5.4724Y-5.2874
X5.4803Y-5.1457
X5.4856Y-4.4003
X5.4857Y-4.4549
X5.4921Y-5.311
X5.5079Y-5.2874
X5.5176Y-4.3325
X5.5197Y-5.1654
X5.5276Y-5.311
X5.5394Y-5.189
X5.5472Y-5.2874
X5.5551Y-5.1654
X5.5591Y-4.1496
X5.5669Y-5.311
X5.5709Y-5.189
X5.5906Y-4.1929
X5.5906Y-5.1654
X5.5924Y-4.5438
X5.5984Y-5.1122
X5.6044Y-4.427
X5.6142Y-5.3406
X5.6181Y-4.0709
X5.6244Y-4.408
X5.6417Y-5.3406
X5.6457Y-4.5866
X5.6693Y-5.3406
X5.7008Y-5.1762
X5.7126Y-4.3346
X5.7206Y-4.177
X5.7283Y-5.1762
X5.7362Y-4.4094
X5.7559Y-5.1762
X5.7638Y-4.0433
X5.7854Y-5.1762
X5.7913Y-4.248
X5.7914Y-4.2835
X5.7992Y-5.311
X5.7992Y-5.3582
X5.815Y-5.3346
X6.0491Y-4.0451
X6.0509Y-4.2014
X6.0512Y-4.126
X6.0551Y-4.2717
X6.0906Y-4.5945
X6.0945Y-4.0079
X6.1181Y-4.3346
X6.1339Y-4.189
X6.1496Y-4.0079
X6.2992Y-4.7244
X6.378Y-5.2756
X6.4961Y-5.2756
X6.6142Y-5.1969
T3
X4.0178Y-3.6809
X4.0531Y-3.7163
X4.0885Y-3.7516
X4.1238Y-3.787
X4.1592Y-3.8223
X4.1945Y-3.8577
X4.2571Y-4.3504
X4.3071Y-4.3504
X4.3571Y-4.3504
T4
X3.878Y-4.9213
X3.878Y-5.3228
T5
X3.3906Y-4.3147
X3.3906Y-4.3947
X3.3906Y-4.4747
X3.3906Y-4.5547
X3.4606Y-4.2747
X3.4606Y-4.3547
X3.4606Y-4.4347
X3.4606Y-4.5147
X3.6504Y-4.1445
X3.6504Y-4.2346
X3.6504Y-4.5945
X3.6504Y-4.6846
X6.1925Y-4.1445
X6.1925Y-4.2346
X6.1925Y-4.5945
X6.1925Y-4.6846
X6.3823Y-4.3144
X6.3823Y-4.3944
X6.3823Y-4.4744
X6.3823Y-4.5544
X6.4524Y-4.2744
X6.4524Y-4.3544
X6.4524Y-4.4344
X6.4524Y-4.5144
T6
X4.8386Y-3.5354
X4.9386Y-3.5354
X5.0386Y-3.5354
X5.1386Y-3.5354
X5.2386Y-3.5354
X5.3386Y-3.5354
X5.4386Y-3.5354
X5.5386Y-3.5354
X5.6386Y-3.5354
X5.7386Y-3.5354
X5.8386Y-3.5354
X5.9386Y-3.5354
X6.0386Y-3.5354
X6.1386Y-3.5354
X6.2386Y-3.5354
X6.3386Y-3.5354
T7
X4.8386Y-3.7244
X4.8386Y-3.8244
X4.8386Y-3.9244
X4.9386Y-3.7244
X4.9386Y-3.8244
X4.9386Y-3.9244
X5.0386Y-3.7244
X5.0386Y-3.8244
X5.0386Y-3.9244
X5.1386Y-3.7244
X5.1386Y-3.8244
X5.1386Y-3.9244
X5.2386Y-3.7244
X5.2386Y-3.8244
X5.2386Y-3.9244
X5.3386Y-3.7244
X5.3386Y-3.8244
X5.3386Y-3.9244
X5.4386Y-3.7244
X5.4386Y-3.8244
X5.4386Y-3.9244
X5.5386Y-3.7244
X5.5386Y-3.8244
X5.5386Y-3.9244
X5.6386Y-3.7244
X5.6386Y-3.8244
X5.6386Y-3.9244
X5.7386Y-3.7244
X5.7386Y-3.8244
X5.7386Y-3.9244
X5.8386Y-3.7244
X5.8386Y-3.8244
X5.8386Y-3.9244
X5.9386Y-3.7244
X5.9386Y-3.8244
X5.9386Y-3.9244
X6.0386Y-3.7244
X6.0386Y-3.8244
X6.0386Y-3.9244
X6.1386Y-3.7244
X6.1386Y-3.8244
X6.1386Y-3.9244
X6.2386Y-3.7244
X6.2386Y-3.8244
X6.2386Y-3.9244
X6.3386Y-3.7244
X6.3386Y-3.8244
X6.3386Y-3.9244
T8
X3.4256Y-4.0945
X3.4256Y-4.7346
X6.4173Y-4.0945
X6.4173Y-4.7346
T9
X3.7195Y-4.9665
X3.7195Y-5.25
X6.1654Y-4.9665
X6.1654Y-5.25
T10
X3.3858Y-5.0787
X3.7008Y-3.626
X5.8268Y-4.7008
X6.4567Y-5.0787
T2
G00X3.2685Y-3.5866
M15
G01X3.237Y-3.5866
M16
G05
G00X3.2685Y-3.9268
M15
G01X3.237Y-3.9268
M16
G05
G00X3.439Y-3.5866
M15
G01X3.3957Y-3.5866
M16
G05
G00X3.439Y-3.9268
M15
G01X3.3957Y-3.9268
M16
G05
G00X3.4616Y-4.8425
M15
G01X3.5049Y-4.8425
M16
G05
G00X3.4616Y-5.374
M15
G01X3.5049Y-5.374
M16
G05
G00X6.4232Y-4.8425
M15
G01X6.3799Y-4.8425
M16
G05
G00X6.4232Y-5.374
M15
G01X6.3799Y-5.374
M16
G05
M30
