M48
; DRILL file {KiCad 9.0.3} date 2025-09-15T21:45:31+0200
; FORMAT={-:-/ absolute / inch / decimal}
; #@! TF.CreationDate,2025-09-15T21:45:31+02:00
; #@! TF.GenerationSoftware,Kicad,Pcbnew,9.0.3
; #@! TF.FileFunction,Plated,1,2,PTH
FMAT,2
INCH
; #@! TA.AperFunction,Plated,PTH,ViaDrill
T1C0.0118
; #@! TA.AperFunction,Plated,PTH,ComponentDrill
T2C0.0118
; #@! TA.AperFunction,Plated,PTH,ComponentDrill
T3C0.0236
; #@! TA.AperFunction,Plated,PTH,ComponentDrill
T4C0.0256
; #@! TA.AperFunction,Plated,PTH,ComponentDrill
T5C0.0350
; #@! TA.AperFunction,Plated,PTH,ComponentDrill
T6C0.0394
; #@! TA.AperFunction,Plated,PTH,ComponentDrill
T7C0.0433
; #@! TA.AperFunction,Plated,PTH,ComponentDrill
T8C0.0618
; #@! TA.AperFunction,Plated,PTH,ComponentDrill
T9C0.1063
; #@! TA.AperFunction,Plated,PTH,ComponentDrill
T10C0.1260
%
G90
G05
T1
X3.4803Y-3.752
X3.5039Y-3.6496
X3.5152Y-4.5595
X3.5325Y-4.5768
X3.5394Y-3.6102
X3.5472Y-3.6496
X3.5827Y-3.7008
X3.5906Y-3.811
X3.5906Y-3.8583
X3.6575Y-5.3484
X3.6575Y-5.372
X3.6575Y-5.3957
X3.6811Y-5.3484
X3.6811Y-5.372
X3.6811Y-5.3957
X3.7047Y-5.3484
X3.7047Y-5.372
X3.7047Y-5.3957
X3.7244Y-3.8425
X3.7283Y-5.3484
X3.7283Y-5.372
X3.7283Y-5.3957
X3.7303Y-4.4409
X3.7303Y-4.4803
X3.748Y-4.5118
X3.748Y-4.5945
X3.748Y-4.7047
X3.752Y-5.3484
X3.752Y-5.372
X3.752Y-5.3957
X3.7598Y-4.3937
X3.7638Y-3.7598
X3.7756Y-5.3484
X3.7756Y-5.372
X3.7756Y-5.3957
X3.8031Y-3.7244
X3.815Y-4.252
X3.8425Y-3.7244
X3.8661Y-3.8307
X3.8898Y-4.2677
X3.8907Y-3.8384
X3.9055Y-4.9882
X3.9167Y-4.1109
X3.9291Y-4.9882
X3.9305Y-4.3498
X3.9337Y-4.0939
X3.9449Y-5.2795
X3.9475Y-4.3668
X3.9488Y-3.5433
X3.9528Y-4.9882
X3.9685Y-5.2795
X3.9843Y-4.9882
X3.9862Y-4.563
X3.9921Y-5.2795
X4.0079Y-4.9882
X4.0157Y-3.9882
X4.0236Y-3.5079
X4.0236Y-5.2795
X4.0315Y-4.9882
X4.0335Y-4.4055
X4.0335Y-4.5236
X4.0346Y-4.5906
X4.0354Y-4.6929
X4.0472Y-5.2795
X4.0591Y-4.4291
X4.0591Y-4.4921
X4.0669Y-4.9882
X4.0689Y-4.5906
X4.0709Y-5.2795
X4.0906Y-4.9882
X4.1063Y-5.2795
X4.1142Y-4.9882
X4.1181Y-4.4803
X4.1299Y-5.2795
X4.1457Y-4.9882
X4.1535Y-5.2795
X4.1693Y-4.9882
X4.185Y-5.2795
X4.1929Y-3.6575
X4.1929Y-4.9882
X4.2087Y-5.2795
X4.2116Y-4.7598
X4.2156Y-4.6083
X4.2252Y-3.6842
X4.2323Y-5.2795
X4.2638Y-5.2795
X4.2874Y-5.2795
X4.2874Y-5.3228
X4.311Y-5.2795
X4.4006Y-4.7126
X4.4793Y-4.6594
X4.5827Y-5.372
X4.6063Y-5.372
X4.6252Y-4.6386
X4.6299Y-5.372
X4.6425Y-4.6213
X4.6535Y-5.372
X4.6772Y-5.372
X4.7008Y-5.372
X4.7244Y-5.372
X4.7276Y-4.6272
X4.7449Y-4.6445
X4.748Y-5.372
X4.7717Y-5.372
X4.7953Y-5.372
X4.8189Y-5.372
X4.8425Y-5.372
X4.8661Y-5.372
X4.8898Y-5.3248
X4.8898Y-5.3484
X4.8898Y-5.372
X4.9252Y-5.061
X4.9252Y-5.2146
X4.9488Y-5.061
X4.9488Y-5.2146
X4.9488Y-5.3642
X4.9724Y-5.061
X4.9724Y-5.2146
X4.9724Y-5.3642
X5.0039Y-5.061
X5.0039Y-5.2146
X5.0039Y-5.3642
X5.0276Y-5.061
X5.0276Y-5.2146
X5.0276Y-5.3642
X5.0512Y-5.061
X5.0512Y-5.2146
X5.0512Y-5.3642
X5.0827Y-5.061
X5.0827Y-5.2146
X5.0827Y-5.3642
X5.1063Y-5.061
X5.1063Y-5.2146
X5.1063Y-5.3642
X5.1299Y-5.061
X5.1299Y-5.2146
X5.1299Y-5.3642
X5.1614Y-5.061
X5.1614Y-5.2146
X5.1614Y-5.3642
X5.185Y-5.061
X5.185Y-5.2146
X5.185Y-5.3642
X5.2087Y-5.061
X5.2087Y-5.2146
X5.2087Y-5.3642
X5.3386Y-5.3819
X5.4921Y-5.2146
X5.5984Y-5.1457
X5.6142Y-5.374
X5.6417Y-5.374
X5.6693Y-5.374
X5.7008Y-5.2096
X5.7283Y-5.2096
X5.7559Y-5.2096
X5.7854Y-5.2096
X5.7992Y-5.3504
X5.813Y-5.2096
X5.8268Y-5.3504
X5.8406Y-5.2096
X5.8524Y-5.3504
T2
X4.3628Y-5.126
X4.3628Y-5.1772
X4.414Y-5.126
X4.414Y-5.1772
X4.4652Y-5.126
X4.4652Y-5.1772
X4.5163Y-5.126
X4.5163Y-5.1772
T4
X4.0161Y-3.6775
X4.0514Y-3.7128
X4.0868Y-3.7482
X4.1221Y-3.7835
X4.1575Y-3.8189
X4.1928Y-3.8543
T5
X3.3907Y-4.2568
X3.3907Y-4.3368
X3.3907Y-4.4168
X3.3907Y-4.4968
X3.4608Y-4.2168
X3.4608Y-4.2968
X3.4608Y-4.3768
X3.4608Y-4.4568
X3.6506Y-4.0865
X3.6506Y-4.1767
X3.6506Y-4.5365
X3.6506Y-4.6267
X6.187Y-4.1461
X6.187Y-4.2362
X6.187Y-4.5961
X6.187Y-4.6862
X6.3768Y-4.316
X6.3768Y-4.396
X6.3768Y-4.476
X6.3768Y-4.556
X6.4469Y-4.276
X6.4469Y-4.356
X6.4469Y-4.436
X6.4469Y-4.516
T6
X4.8567Y-3.5354
X4.9567Y-3.5354
X5.0567Y-3.5354
X5.1567Y-3.5354
X5.2567Y-3.5354
X5.3567Y-3.5354
X5.4567Y-3.5354
X5.5567Y-3.5354
X5.6567Y-3.5354
X5.7567Y-3.5354
X5.8567Y-3.5354
X5.9567Y-3.5354
X6.0567Y-3.5354
X6.1567Y-3.5354
X6.2567Y-3.5354
X6.3567Y-3.5354
T7
X4.8575Y-3.7252
X4.8575Y-3.8252
X4.8575Y-3.9252
X4.9575Y-3.7252
X4.9575Y-3.8252
X4.9575Y-3.9252
X5.0575Y-3.7252
X5.0575Y-3.8252
X5.0575Y-3.9252
X5.1575Y-3.7252
X5.1575Y-3.8252
X5.1575Y-3.9252
X5.2575Y-3.7252
X5.2575Y-3.8252
X5.2575Y-3.9252
X5.3575Y-3.7252
X5.3575Y-3.8252
X5.3575Y-3.9252
X5.4575Y-3.7252
X5.4575Y-3.8252
X5.4575Y-3.9252
X5.5575Y-3.7252
X5.5575Y-3.8252
X5.5575Y-3.9252
X5.6575Y-3.7252
X5.6575Y-3.8252
X5.6575Y-3.9252
X5.7575Y-3.7252
X5.7575Y-3.8252
X5.7575Y-3.9252
X5.8575Y-3.7252
X5.8575Y-3.8252
X5.8575Y-3.9252
X5.9575Y-3.7252
X5.9575Y-3.8252
X5.9575Y-3.9252
X6.0575Y-3.7252
X6.0575Y-3.8252
X6.0575Y-3.9252
X6.1575Y-3.7252
X6.1575Y-3.8252
X6.1575Y-3.9252
X6.2575Y-3.7252
X6.2575Y-3.8252
X6.2575Y-3.9252
X6.3575Y-3.7252
X6.3575Y-3.8252
X6.3575Y-3.9252
T8
X3.4258Y-4.0365
X3.4258Y-4.6767
X6.4118Y-4.0961
X6.4118Y-4.7362
T9
X3.7195Y-4.9507
X3.7195Y-5.2341
X6.1575Y-4.9665
X6.1575Y-5.25
T10
X3.3858Y-5.0787
X3.7008Y-3.622
X4.5197Y-5.7815
X4.5197Y-6.063
X5.8465Y-4.2047
X6.4567Y-5.0787
T3
G00X3.2679Y-3.5701
M15
G01X3.2364Y-3.5701
M16
G05
G00X3.2679Y-3.9102
M15
G01X3.2364Y-3.9102
M16
G05
G00X3.4384Y-3.5701
M15
G01X3.3951Y-3.5701
M16
G05
G00X3.4384Y-3.9102
M15
G01X3.3951Y-3.9102
M16
G05
G00X3.4616Y-4.8267
M15
G01X3.5049Y-4.8267
M16
G05
G00X3.4616Y-5.3582
M15
G01X3.5049Y-5.3582
M16
G05
G00X6.4154Y-4.8425
M15
G01X6.372Y-4.8425
M16
G05
G00X6.4154Y-5.374
M15
G01X6.372Y-5.374
M16
G05
M30
