%TF.GenerationSoftware,KiCad,Pcbnew,9.0.3*%
%TF.CreationDate,2025-09-28T17:56:07+02:00*%
%TF.ProjectId,MMS2,4d4d5332-2e6b-4696-9361-645f70636258,rev?*%
%TF.SameCoordinates,Original*%
%TF.FileFunction,Legend,Bot*%
%TF.FilePolarity,Positive*%
%FSLAX46Y46*%
G04 Gerber Fmt 4.6, Leading zero omitted, Abs format (unit mm)*
G04 Created by KiCad (PCBNEW 9.0.3) date 2025-09-28 17:56:07*
%MOMM*%
%LPD*%
G01*
G04 APERTURE LIST*
G04 Aperture macros list*
%AMRoundRect*
0 Rectangle with rounded corners*
0 $1 Rounding radius*
0 $2 $3 $4 $5 $6 $7 $8 $9 X,Y pos of 4 corners*
0 Add a 4 corners polygon primitive as box body*
4,1,4,$2,$3,$4,$5,$6,$7,$8,$9,$2,$3,0*
0 Add four circle primitives for the rounded corners*
1,1,$1+$1,$2,$3*
1,1,$1+$1,$4,$5*
1,1,$1+$1,$6,$7*
1,1,$1+$1,$8,$9*
0 Add four rect primitives between the rounded corners*
20,1,$1+$1,$2,$3,$4,$5,0*
20,1,$1+$1,$4,$5,$6,$7,0*
20,1,$1+$1,$6,$7,$8,$9,0*
20,1,$1+$1,$8,$9,$2,$3,0*%
%AMRotRect*
0 Rectangle, with rotation*
0 The origin of the aperture is its center*
0 $1 length*
0 $2 width*
0 $3 Rotation angle, in degrees counterclockwise*
0 Add horizontal line*
21,1,$1,$2,0,0,$3*%
G04 Aperture macros list end*
%ADD10C,0.100000*%
%ADD11C,0.200000*%
%ADD12C,0.150000*%
%ADD13C,0.300000*%
%ADD14C,0.220000*%
%ADD15C,0.120000*%
%ADD16C,1.854000*%
%ADD17RoundRect,0.102000X-0.825000X-0.825000X0.825000X-0.825000X0.825000X0.825000X-0.825000X0.825000X0*%
%ADD18C,2.900000*%
%ADD19C,4.100000*%
%ADD20RoundRect,1.025000X1.025000X-1.025000X1.025000X1.025000X-1.025000X1.025000X-1.025000X-1.025000X0*%
%ADD21R,2.000000X0.900000*%
%ADD22C,1.700000*%
%ADD23R,1.700000X1.700000*%
%ADD24RoundRect,1.025000X-1.025000X1.025000X-1.025000X-1.025000X1.025000X-1.025000X1.025000X1.025000X0*%
%ADD25C,2.300000*%
%ADD26C,1.500000*%
%ADD27R,1.500000X1.500000*%
%ADD28C,3.250000*%
%ADD29O,1.800000X1.000000*%
%ADD30O,2.100000X1.000000*%
%ADD31C,0.650000*%
%ADD32C,5.600000*%
%ADD33RoundRect,0.750000X1.750000X1.750000X-1.750000X1.750000X-1.750000X-1.750000X1.750000X-1.750000X0*%
%ADD34R,1.000000X1.000000*%
%ADD35C,1.000000*%
%ADD36RotRect,1.000000X1.000000X225.000000*%
%ADD37R,1.150000X5.000000*%
G04 APERTURE END LIST*
D10*
X138100000Y-104500000D02*
X153600000Y-104500000D01*
X153600000Y-111500000D01*
X138100000Y-111500000D01*
X138100000Y-104500000D01*
X123950000Y-101400000D02*
X123950000Y-102400000D01*
X151800000Y-101400000D02*
X123950000Y-101400000D01*
X123550000Y-104000000D02*
X153600000Y-104000000D01*
X151800000Y-101400000D02*
X153600000Y-101400000D01*
X122150000Y-102050000D02*
X123250000Y-102050000D01*
X153600000Y-102050000D02*
X152500000Y-102050000D01*
X123250000Y-102050000D02*
X123550000Y-102350000D01*
X152500000Y-102050000D02*
X152200000Y-102350000D01*
X123550000Y-102400000D02*
X123550000Y-104000000D01*
X122150000Y-103500000D02*
X123250000Y-103500000D01*
X123250000Y-103500000D02*
X123550000Y-103200000D01*
X122150000Y-104000000D02*
X122150000Y-101400000D01*
X152200000Y-102400000D02*
X152200000Y-104000000D01*
X123297214Y-102800000D02*
G75*
G02*
X122402786Y-102800000I-447214J0D01*
G01*
X122402786Y-102800000D02*
G75*
G02*
X123297214Y-102800000I447214J0D01*
G01*
X123550000Y-104000000D02*
X122150000Y-104000000D01*
X151800000Y-101400000D02*
X151800000Y-102400000D01*
X118150000Y-119700000D02*
X138050000Y-119700000D01*
X122100000Y-104500000D02*
X137700000Y-104500000D01*
X137700000Y-111500000D01*
X122100000Y-111500000D01*
X122100000Y-104500000D01*
X151800000Y-102400000D02*
X152200000Y-102400000D01*
X123950000Y-101400000D02*
X122150000Y-101400000D01*
X153600000Y-104000000D02*
X153600000Y-101400000D01*
X123950000Y-102400000D02*
X123550000Y-102400000D01*
X121300000Y-106700000D02*
G75*
G02*
X111300000Y-106700000I-5000000J0D01*
G01*
X111300000Y-106700000D02*
G75*
G02*
X121300000Y-106700000I5000000J0D01*
G01*
X153347214Y-102800000D02*
G75*
G02*
X152452786Y-102800000I-447214J0D01*
G01*
X152452786Y-102800000D02*
G75*
G02*
X153347214Y-102800000I447214J0D01*
G01*
D11*
X116363660Y-107262457D02*
X116458898Y-107214838D01*
X116458898Y-107214838D02*
X116554136Y-107119600D01*
X116554136Y-107119600D02*
X116696993Y-106976742D01*
X116696993Y-106976742D02*
X116792231Y-106929123D01*
X116792231Y-106929123D02*
X116887469Y-106929123D01*
X116839850Y-107167219D02*
X116935088Y-107119600D01*
X116935088Y-107119600D02*
X117030326Y-107024361D01*
X117030326Y-107024361D02*
X117077945Y-106833885D01*
X117077945Y-106833885D02*
X117077945Y-106500552D01*
X117077945Y-106500552D02*
X117030326Y-106310076D01*
X117030326Y-106310076D02*
X116935088Y-106214838D01*
X116935088Y-106214838D02*
X116839850Y-106167219D01*
X116839850Y-106167219D02*
X116649374Y-106167219D01*
X116649374Y-106167219D02*
X116554136Y-106214838D01*
X116554136Y-106214838D02*
X116458898Y-106310076D01*
X116458898Y-106310076D02*
X116411279Y-106500552D01*
X116411279Y-106500552D02*
X116411279Y-106833885D01*
X116411279Y-106833885D02*
X116458898Y-107024361D01*
X116458898Y-107024361D02*
X116554136Y-107119600D01*
X116554136Y-107119600D02*
X116649374Y-107167219D01*
X116649374Y-107167219D02*
X116839850Y-107167219D01*
X115411279Y-107071980D02*
X115458898Y-107119600D01*
X115458898Y-107119600D02*
X115601755Y-107167219D01*
X115601755Y-107167219D02*
X115696993Y-107167219D01*
X115696993Y-107167219D02*
X115839850Y-107119600D01*
X115839850Y-107119600D02*
X115935088Y-107024361D01*
X115935088Y-107024361D02*
X115982707Y-106929123D01*
X115982707Y-106929123D02*
X116030326Y-106738647D01*
X116030326Y-106738647D02*
X116030326Y-106595790D01*
X116030326Y-106595790D02*
X115982707Y-106405314D01*
X115982707Y-106405314D02*
X115935088Y-106310076D01*
X115935088Y-106310076D02*
X115839850Y-106214838D01*
X115839850Y-106214838D02*
X115696993Y-106167219D01*
X115696993Y-106167219D02*
X115601755Y-106167219D01*
X115601755Y-106167219D02*
X115458898Y-106214838D01*
X115458898Y-106214838D02*
X115411279Y-106262457D01*
D12*
G36*
X150036775Y-102111271D02*
G01*
X150051137Y-102123581D01*
X150068771Y-102128075D01*
X150078670Y-102126473D01*
X150087676Y-102121627D01*
X150108192Y-102107070D01*
X150137697Y-102092562D01*
X150156630Y-102087902D01*
X150183175Y-102086114D01*
X150217613Y-102089476D01*
X150248290Y-102099254D01*
X150276058Y-102115175D01*
X150300753Y-102137014D01*
X150321616Y-102163726D01*
X150339685Y-102196609D01*
X150353739Y-102233083D01*
X150364891Y-102275793D01*
X150371675Y-102320619D01*
X150372365Y-102357517D01*
X150367248Y-102391470D01*
X150357222Y-102417698D01*
X150341557Y-102439203D01*
X150321074Y-102454628D01*
X150296390Y-102463878D01*
X150265680Y-102467182D01*
X150234874Y-102464972D01*
X150211751Y-102459073D01*
X150174333Y-102441194D01*
X150146831Y-102423267D01*
X150134617Y-102417120D01*
X150122407Y-102415158D01*
X150108458Y-102418517D01*
X150100425Y-102428005D01*
X150072044Y-102478368D01*
X150100944Y-102503352D01*
X150130125Y-102523455D01*
X150160577Y-102539964D01*
X150190648Y-102552569D01*
X150221309Y-102561886D01*
X150251856Y-102567907D01*
X150312233Y-102572401D01*
X150362343Y-102567289D01*
X150406071Y-102552520D01*
X150444105Y-102528101D01*
X150474508Y-102494586D01*
X150496131Y-102453345D01*
X150509581Y-102401431D01*
X150512376Y-102344545D01*
X150503377Y-102275793D01*
X150486146Y-102214520D01*
X150461270Y-102158605D01*
X150428603Y-102107917D01*
X150389560Y-102065109D01*
X150343829Y-102030024D01*
X150291325Y-102003267D01*
X150233822Y-101986626D01*
X150169497Y-101980894D01*
X150127888Y-101983429D01*
X150092921Y-101990523D01*
X150063545Y-102001606D01*
X150023920Y-102026715D01*
X149990760Y-102060908D01*
X150036775Y-102111271D01*
G37*
G36*
X149695890Y-101986143D02*
G01*
X149753063Y-102001606D01*
X149806091Y-102026719D01*
X149853154Y-102060371D01*
X149893831Y-102102174D01*
X149928820Y-102153281D01*
X149955605Y-102210633D01*
X149974249Y-102275793D01*
X149982851Y-102342519D01*
X149979916Y-102398940D01*
X149966035Y-102450554D01*
X149942937Y-102492387D01*
X149922149Y-102515923D01*
X149897150Y-102535640D01*
X149867418Y-102551690D01*
X149817718Y-102566957D01*
X149757313Y-102572401D01*
X149696285Y-102567158D01*
X149639441Y-102551690D01*
X149586680Y-102526484D01*
X149539546Y-102492387D01*
X149498749Y-102450088D01*
X149464026Y-102398940D01*
X149437416Y-102341485D01*
X149418695Y-102275793D01*
X149410777Y-102214501D01*
X149550098Y-102214501D01*
X149558499Y-102276916D01*
X149575371Y-102337434D01*
X149596612Y-102383524D01*
X149621514Y-102417942D01*
X149653302Y-102444532D01*
X149690620Y-102460500D01*
X149735184Y-102466058D01*
X149770147Y-102462543D01*
X149796463Y-102453000D01*
X149816184Y-102438157D01*
X149830537Y-102417649D01*
X149841156Y-102384427D01*
X149843731Y-102338891D01*
X149835471Y-102276916D01*
X149818677Y-102216854D01*
X149797269Y-102170620D01*
X149771919Y-102135646D01*
X149739562Y-102108565D01*
X149701601Y-102092309D01*
X149656294Y-102086651D01*
X149622004Y-102090169D01*
X149596189Y-102099734D01*
X149576830Y-102114652D01*
X149562749Y-102135353D01*
X149552449Y-102168696D01*
X149550098Y-102214501D01*
X149410777Y-102214501D01*
X149410142Y-102209587D01*
X149412930Y-102153281D01*
X149420967Y-102117663D01*
X149433287Y-102086929D01*
X149449713Y-102060371D01*
X149482476Y-102026922D01*
X149525087Y-102001606D01*
X149574462Y-101986333D01*
X149634312Y-101980894D01*
X149695890Y-101986143D01*
G37*
G36*
X149129706Y-102060371D02*
G01*
X149087159Y-102028180D01*
X149041926Y-102002974D01*
X148993419Y-101986756D01*
X148967626Y-101982393D01*
X148939637Y-101980894D01*
X148895884Y-101985141D01*
X148861430Y-101996868D01*
X148832568Y-102016184D01*
X148811311Y-102041613D01*
X148797184Y-102072496D01*
X148789525Y-102110441D01*
X148788950Y-102151347D01*
X148795533Y-102198563D01*
X148871493Y-102564000D01*
X149006706Y-102564000D01*
X148930746Y-102198563D01*
X148926555Y-102163524D01*
X148929246Y-102137116D01*
X148937341Y-102117133D01*
X148951427Y-102101836D01*
X148972439Y-102092018D01*
X149003042Y-102088312D01*
X149037507Y-102092305D01*
X149072114Y-102104579D01*
X149105349Y-102123350D01*
X149139330Y-102148787D01*
X149225645Y-102564000D01*
X149360858Y-102564000D01*
X149241472Y-101989833D01*
X149158820Y-101989833D01*
X149143526Y-101992805D01*
X149134269Y-102000863D01*
X149129609Y-102015039D01*
X149129706Y-102060371D01*
G37*
G36*
X148498192Y-102060371D02*
G01*
X148455645Y-102028180D01*
X148410411Y-102002974D01*
X148361905Y-101986756D01*
X148336112Y-101982393D01*
X148308122Y-101980894D01*
X148264369Y-101985141D01*
X148229916Y-101996868D01*
X148201054Y-102016184D01*
X148179797Y-102041613D01*
X148165670Y-102072496D01*
X148158011Y-102110441D01*
X148157435Y-102151347D01*
X148164019Y-102198563D01*
X148239979Y-102564000D01*
X148375191Y-102564000D01*
X148299232Y-102198563D01*
X148295041Y-102163524D01*
X148297732Y-102137116D01*
X148305826Y-102117133D01*
X148319913Y-102101836D01*
X148340925Y-102092018D01*
X148371528Y-102088312D01*
X148405993Y-102092305D01*
X148440600Y-102104579D01*
X148473834Y-102123350D01*
X148507815Y-102148787D01*
X148594131Y-102564000D01*
X148729344Y-102564000D01*
X148609958Y-101989833D01*
X148527306Y-101989833D01*
X148512012Y-101992805D01*
X148502754Y-102000863D01*
X148498094Y-102015039D01*
X148498192Y-102060371D01*
G37*
G36*
X147798737Y-101986573D02*
G01*
X147855101Y-102003267D01*
X147906989Y-102029739D01*
X147952554Y-102063986D01*
X147991804Y-102105493D01*
X148024703Y-102154111D01*
X148049752Y-102207540D01*
X148066273Y-102264607D01*
X148074175Y-102315291D01*
X148075981Y-102359277D01*
X148072526Y-102397524D01*
X148063708Y-102434799D01*
X148050786Y-102466615D01*
X148033984Y-102493755D01*
X148012722Y-102517497D01*
X147987742Y-102537013D01*
X147958611Y-102552520D01*
X147910265Y-102567243D01*
X147853831Y-102572401D01*
X147791891Y-102567907D01*
X147759601Y-102561896D01*
X147726824Y-102552569D01*
X147694618Y-102539923D01*
X147662442Y-102523455D01*
X147631881Y-102503235D01*
X147602749Y-102478368D01*
X147631081Y-102428005D01*
X147639198Y-102418550D01*
X147653649Y-102415158D01*
X147666335Y-102416965D01*
X147681297Y-102422974D01*
X147716078Y-102440315D01*
X147761263Y-102457705D01*
X147787781Y-102463460D01*
X147819588Y-102465521D01*
X147851155Y-102462803D01*
X147877376Y-102455165D01*
X147899990Y-102442085D01*
X147917627Y-102423853D01*
X147930174Y-102400815D01*
X147938339Y-102370657D01*
X147940862Y-102337029D01*
X147937752Y-102294258D01*
X147590146Y-102294258D01*
X147573504Y-102291326D01*
X147562742Y-102283364D01*
X147555322Y-102269554D01*
X147547404Y-102241110D01*
X147540167Y-102184349D01*
X147658996Y-102184349D01*
X147662588Y-102210873D01*
X147917627Y-102210873D01*
X147899951Y-102170830D01*
X147878904Y-102138988D01*
X147854612Y-102114104D01*
X147825811Y-102095314D01*
X147793053Y-102083912D01*
X147755254Y-102079959D01*
X147726679Y-102082729D01*
X147704598Y-102090315D01*
X147686231Y-102102680D01*
X147672944Y-102118549D01*
X147664135Y-102137617D01*
X147659462Y-102160266D01*
X147658996Y-102184349D01*
X147540167Y-102184349D01*
X147539687Y-102180586D01*
X147542714Y-102130566D01*
X147555594Y-102085129D01*
X147576371Y-102048891D01*
X147605428Y-102019780D01*
X147643000Y-101998235D01*
X147686227Y-101985416D01*
X147737376Y-101980894D01*
X147798737Y-101986573D01*
G37*
G36*
X147003475Y-102111271D02*
G01*
X147017836Y-102123581D01*
X147035471Y-102128075D01*
X147045369Y-102126473D01*
X147054375Y-102121627D01*
X147074891Y-102107070D01*
X147104396Y-102092562D01*
X147123329Y-102087902D01*
X147149874Y-102086114D01*
X147184312Y-102089476D01*
X147214989Y-102099254D01*
X147242757Y-102115175D01*
X147267452Y-102137014D01*
X147288315Y-102163726D01*
X147306385Y-102196609D01*
X147320439Y-102233083D01*
X147331591Y-102275793D01*
X147338374Y-102320619D01*
X147339064Y-102357517D01*
X147333947Y-102391470D01*
X147323921Y-102417698D01*
X147308256Y-102439203D01*
X147287773Y-102454628D01*
X147263089Y-102463878D01*
X147232379Y-102467182D01*
X147201574Y-102464972D01*
X147178450Y-102459073D01*
X147141032Y-102441194D01*
X147113531Y-102423267D01*
X147101316Y-102417120D01*
X147089106Y-102415158D01*
X147075157Y-102418517D01*
X147067124Y-102428005D01*
X147038743Y-102478368D01*
X147067643Y-102503352D01*
X147096824Y-102523455D01*
X147127277Y-102539964D01*
X147157348Y-102552569D01*
X147188008Y-102561886D01*
X147218555Y-102567907D01*
X147278932Y-102572401D01*
X147329042Y-102567289D01*
X147372770Y-102552520D01*
X147410804Y-102528101D01*
X147441207Y-102494586D01*
X147462830Y-102453345D01*
X147476280Y-102401431D01*
X147479075Y-102344545D01*
X147470076Y-102275793D01*
X147452846Y-102214520D01*
X147427969Y-102158605D01*
X147395302Y-102107917D01*
X147356259Y-102065109D01*
X147310528Y-102030024D01*
X147258025Y-102003267D01*
X147200521Y-101986626D01*
X147136196Y-101980894D01*
X147094587Y-101983429D01*
X147059620Y-101990523D01*
X147030244Y-102001606D01*
X146990619Y-102026715D01*
X146957459Y-102060908D01*
X147003475Y-102111271D01*
G37*
G36*
X146775254Y-102572939D02*
G01*
X146822187Y-102567553D01*
X146855578Y-102553142D01*
X146879009Y-102530685D01*
X146893518Y-102501072D01*
X146899093Y-102463182D01*
X146893907Y-102414034D01*
X146827229Y-102093392D01*
X146884724Y-102093392D01*
X146894624Y-102091506D01*
X146901821Y-102086114D01*
X146905541Y-102077675D01*
X146904898Y-102064279D01*
X146893517Y-102009422D01*
X146800020Y-101994327D01*
X146739057Y-101837621D01*
X146724989Y-101820280D01*
X146715414Y-101815703D01*
X146704033Y-101814125D01*
X146633984Y-101814125D01*
X146671549Y-101994865D01*
X146521535Y-101994865D01*
X146542002Y-102093392D01*
X146692016Y-102093392D01*
X146756692Y-102404509D01*
X146758347Y-102429619D01*
X146752588Y-102446519D01*
X146740138Y-102457608D01*
X146720397Y-102461613D01*
X146698660Y-102458535D01*
X146682540Y-102452087D01*
X146670034Y-102445639D01*
X146659532Y-102442562D01*
X146650300Y-102445639D01*
X146644047Y-102454872D01*
X146617473Y-102522039D01*
X146653767Y-102544124D01*
X146693237Y-102560092D01*
X146734460Y-102569762D01*
X146775254Y-102572939D01*
G37*
G36*
X146240537Y-101986143D02*
G01*
X146297711Y-102001606D01*
X146350739Y-102026719D01*
X146397801Y-102060371D01*
X146438478Y-102102174D01*
X146473468Y-102153281D01*
X146500253Y-102210633D01*
X146518897Y-102275793D01*
X146527499Y-102342519D01*
X146524563Y-102398940D01*
X146510682Y-102450554D01*
X146487585Y-102492387D01*
X146466797Y-102515923D01*
X146441798Y-102535640D01*
X146412065Y-102551690D01*
X146362365Y-102566957D01*
X146301960Y-102572401D01*
X146240933Y-102567158D01*
X146184089Y-102551690D01*
X146131328Y-102526484D01*
X146084193Y-102492387D01*
X146043396Y-102450088D01*
X146008674Y-102398940D01*
X145982063Y-102341485D01*
X145963342Y-102275793D01*
X145955425Y-102214501D01*
X146094746Y-102214501D01*
X146103147Y-102276916D01*
X146120018Y-102337434D01*
X146141259Y-102383524D01*
X146166161Y-102417942D01*
X146197949Y-102444532D01*
X146235267Y-102460500D01*
X146279832Y-102466058D01*
X146314794Y-102462543D01*
X146341111Y-102453000D01*
X146360832Y-102438157D01*
X146375184Y-102417649D01*
X146385804Y-102384427D01*
X146388379Y-102338891D01*
X146380118Y-102276916D01*
X146363325Y-102216854D01*
X146341916Y-102170620D01*
X146316566Y-102135646D01*
X146284209Y-102108565D01*
X146246248Y-102092309D01*
X146200942Y-102086651D01*
X146166651Y-102090169D01*
X146140836Y-102099734D01*
X146121478Y-102114652D01*
X146107397Y-102135353D01*
X146097096Y-102168696D01*
X146094746Y-102214501D01*
X145955425Y-102214501D01*
X145954790Y-102209587D01*
X145957578Y-102153281D01*
X145965615Y-102117663D01*
X145977935Y-102086929D01*
X145994361Y-102060371D01*
X146027124Y-102026922D01*
X146069734Y-102001606D01*
X146119109Y-101986333D01*
X146178960Y-101980894D01*
X146240537Y-101986143D01*
G37*
G36*
X145679288Y-102089436D02*
G01*
X145639946Y-102042407D01*
X145600104Y-102008591D01*
X145570839Y-101992114D01*
X145540535Y-101982426D01*
X145508611Y-101979184D01*
X145472982Y-101983986D01*
X145449797Y-101996575D01*
X145480083Y-102100085D01*
X145490976Y-102114348D01*
X145505826Y-102118549D01*
X145529567Y-102115765D01*
X145560488Y-102112932D01*
X145582311Y-102114663D01*
X145601814Y-102119673D01*
X145620061Y-102127798D01*
X145637327Y-102138968D01*
X145668297Y-102169498D01*
X145696775Y-102210336D01*
X145770293Y-102564000D01*
X145905505Y-102564000D01*
X145786120Y-101989833D01*
X145706741Y-101989833D01*
X145688152Y-101992123D01*
X145679337Y-101997405D01*
X145674943Y-102006733D01*
X145674012Y-102024516D01*
X145679288Y-102089436D01*
G37*
G36*
X144847564Y-101982004D02*
G01*
X144883412Y-101990262D01*
X144916810Y-102003853D01*
X144963816Y-102031998D01*
X145008450Y-102068187D01*
X145008353Y-102015039D01*
X145013013Y-102000863D01*
X145022270Y-101992805D01*
X145037564Y-101989833D01*
X145120216Y-101989833D01*
X145278583Y-102751480D01*
X145143370Y-102751480D01*
X145094521Y-102516421D01*
X145071359Y-102539868D01*
X145043426Y-102557600D01*
X145010578Y-102568375D01*
X144966050Y-102572401D01*
X144912134Y-102566709D01*
X144861465Y-102549736D01*
X144814730Y-102522825D01*
X144772267Y-102486770D01*
X144735632Y-102443336D01*
X144704026Y-102391662D01*
X144679553Y-102334876D01*
X144662260Y-102272422D01*
X144652006Y-102203663D01*
X144651803Y-102187084D01*
X144792051Y-102187084D01*
X144793910Y-102223746D01*
X144801821Y-102272422D01*
X144814240Y-102320268D01*
X144829127Y-102358933D01*
X144847920Y-102393238D01*
X144868304Y-102419652D01*
X144892053Y-102440848D01*
X144917592Y-102455458D01*
X144945420Y-102464223D01*
X144975331Y-102467182D01*
X145005840Y-102464140D01*
X145031751Y-102455458D01*
X145053997Y-102439993D01*
X145073468Y-102415158D01*
X145019930Y-102157726D01*
X144985828Y-102127729D01*
X144953447Y-102106533D01*
X144918403Y-102092987D01*
X144877927Y-102088312D01*
X144852433Y-102090984D01*
X144832156Y-102098424D01*
X144815563Y-102111200D01*
X144802944Y-102130322D01*
X144795365Y-102154021D01*
X144792051Y-102187084D01*
X144651803Y-102187084D01*
X144651318Y-102147370D01*
X144659482Y-102095624D01*
X144674961Y-102055584D01*
X144698607Y-102022510D01*
X144728792Y-101998773D01*
X144764956Y-101984280D01*
X144808757Y-101979184D01*
X144847564Y-101982004D01*
G37*
G36*
X144295973Y-101986143D02*
G01*
X144353147Y-102001606D01*
X144406175Y-102026719D01*
X144453237Y-102060371D01*
X144493915Y-102102174D01*
X144528904Y-102153281D01*
X144555689Y-102210633D01*
X144574333Y-102275793D01*
X144582935Y-102342519D01*
X144580000Y-102398940D01*
X144566119Y-102450554D01*
X144543021Y-102492387D01*
X144522233Y-102515923D01*
X144497234Y-102535640D01*
X144467501Y-102551690D01*
X144417801Y-102566957D01*
X144357397Y-102572401D01*
X144296369Y-102567158D01*
X144239525Y-102551690D01*
X144186764Y-102526484D01*
X144139630Y-102492387D01*
X144098833Y-102450088D01*
X144064110Y-102398940D01*
X144037499Y-102341485D01*
X144018778Y-102275793D01*
X144010861Y-102214501D01*
X144150182Y-102214501D01*
X144158583Y-102276916D01*
X144175454Y-102337434D01*
X144196695Y-102383524D01*
X144221598Y-102417942D01*
X144253385Y-102444532D01*
X144290704Y-102460500D01*
X144335268Y-102466058D01*
X144370230Y-102462543D01*
X144396547Y-102453000D01*
X144416268Y-102438157D01*
X144430621Y-102417649D01*
X144441240Y-102384427D01*
X144443815Y-102338891D01*
X144435554Y-102276916D01*
X144418761Y-102216854D01*
X144397352Y-102170620D01*
X144372002Y-102135646D01*
X144339646Y-102108565D01*
X144301684Y-102092309D01*
X144256378Y-102086651D01*
X144222087Y-102090169D01*
X144196272Y-102099734D01*
X144176914Y-102114652D01*
X144162833Y-102135353D01*
X144152532Y-102168696D01*
X144150182Y-102214501D01*
X144010861Y-102214501D01*
X144010226Y-102209587D01*
X144013014Y-102153281D01*
X144021051Y-102117663D01*
X144033371Y-102086929D01*
X144049797Y-102060371D01*
X144082560Y-102026922D01*
X144125170Y-102001606D01*
X144174545Y-101986333D01*
X144234396Y-101980894D01*
X144295973Y-101986143D01*
G37*
G36*
X143049036Y-101989833D02*
G01*
X143346866Y-102564000D01*
X143455212Y-102564000D01*
X143465492Y-102561450D01*
X143472240Y-102553944D01*
X143475826Y-102539380D01*
X143507578Y-102207551D01*
X143509678Y-102174237D01*
X143509581Y-102140922D01*
X143524040Y-102174823D01*
X143540160Y-102208626D01*
X143711228Y-102539380D01*
X143720709Y-102553584D01*
X143731887Y-102561390D01*
X143745373Y-102564000D01*
X143849371Y-102564000D01*
X143907892Y-101989833D01*
X143800034Y-101989833D01*
X143786367Y-101991772D01*
X143776392Y-101997112D01*
X143769450Y-102005400D01*
X143766573Y-102015577D01*
X143749818Y-102322248D01*
X143749378Y-102371536D01*
X143751430Y-102419603D01*
X143728618Y-102371536D01*
X143703852Y-102322248D01*
X143546803Y-102014453D01*
X143539916Y-102004312D01*
X143530146Y-101995988D01*
X143518423Y-101990540D01*
X143505380Y-101988710D01*
X143445687Y-101988710D01*
X143432492Y-101990642D01*
X143422826Y-101995988D01*
X143416120Y-102004247D01*
X143413203Y-102014453D01*
X143386922Y-102322248D01*
X143383796Y-102371780D01*
X143381549Y-102420189D01*
X143340956Y-102322248D01*
X143194508Y-102015577D01*
X143187107Y-102005431D01*
X143176971Y-101997112D01*
X143165034Y-101991659D01*
X143151912Y-101989833D01*
X143049036Y-101989833D01*
G37*
G36*
X142782575Y-101986573D02*
G01*
X142838939Y-102003267D01*
X142890827Y-102029739D01*
X142936392Y-102063986D01*
X142975642Y-102105493D01*
X143008541Y-102154111D01*
X143033590Y-102207540D01*
X143050111Y-102264607D01*
X143058013Y-102315291D01*
X143059819Y-102359277D01*
X143056364Y-102397524D01*
X143047546Y-102434799D01*
X143034624Y-102466615D01*
X143017822Y-102493755D01*
X142996560Y-102517497D01*
X142971580Y-102537013D01*
X142942449Y-102552520D01*
X142894103Y-102567243D01*
X142837669Y-102572401D01*
X142775729Y-102567907D01*
X142743439Y-102561896D01*
X142710662Y-102552569D01*
X142678456Y-102539923D01*
X142646280Y-102523455D01*
X142615719Y-102503235D01*
X142586587Y-102478368D01*
X142614919Y-102428005D01*
X142623036Y-102418550D01*
X142637487Y-102415158D01*
X142650173Y-102416965D01*
X142665136Y-102422974D01*
X142699916Y-102440315D01*
X142745101Y-102457705D01*
X142771619Y-102463460D01*
X142803426Y-102465521D01*
X142834993Y-102462803D01*
X142861214Y-102455165D01*
X142883828Y-102442085D01*
X142901465Y-102423853D01*
X142914012Y-102400815D01*
X142922177Y-102370657D01*
X142924700Y-102337029D01*
X142921591Y-102294258D01*
X142573984Y-102294258D01*
X142557342Y-102291326D01*
X142546580Y-102283364D01*
X142539161Y-102269554D01*
X142531242Y-102241110D01*
X142524005Y-102184349D01*
X142642834Y-102184349D01*
X142646427Y-102210873D01*
X142901465Y-102210873D01*
X142883789Y-102170830D01*
X142862742Y-102138988D01*
X142838450Y-102114104D01*
X142809649Y-102095314D01*
X142776891Y-102083912D01*
X142739092Y-102079959D01*
X142710517Y-102082729D01*
X142688436Y-102090315D01*
X142670069Y-102102680D01*
X142656782Y-102118549D01*
X142647973Y-102137617D01*
X142643300Y-102160266D01*
X142642834Y-102184349D01*
X142524005Y-102184349D01*
X142523525Y-102180586D01*
X142526552Y-102130566D01*
X142539432Y-102085129D01*
X142560209Y-102048891D01*
X142589266Y-102019780D01*
X142626838Y-101998235D01*
X142670065Y-101985416D01*
X142721214Y-101980894D01*
X142782575Y-101986573D01*
G37*
G36*
X142257543Y-102089436D02*
G01*
X142218201Y-102042407D01*
X142178360Y-102008591D01*
X142149094Y-101992114D01*
X142118790Y-101982426D01*
X142086866Y-101979184D01*
X142051237Y-101983986D01*
X142028053Y-101996575D01*
X142058339Y-102100085D01*
X142069232Y-102114348D01*
X142084082Y-102118549D01*
X142107822Y-102115765D01*
X142138743Y-102112932D01*
X142160567Y-102114663D01*
X142180069Y-102119673D01*
X142198317Y-102127798D01*
X142215582Y-102138968D01*
X142246552Y-102169498D01*
X142275031Y-102210336D01*
X142348548Y-102564000D01*
X142483761Y-102564000D01*
X142364375Y-101989833D01*
X142284996Y-101989833D01*
X142266407Y-101992123D01*
X142257592Y-101997405D01*
X142253199Y-102006733D01*
X142252267Y-102024516D01*
X142257543Y-102089436D01*
G37*
G36*
X141783720Y-101986573D02*
G01*
X141840083Y-102003267D01*
X141891972Y-102029739D01*
X141937536Y-102063986D01*
X141976787Y-102105493D01*
X142009685Y-102154111D01*
X142034734Y-102207540D01*
X142051256Y-102264607D01*
X142059158Y-102315291D01*
X142060964Y-102359277D01*
X142057508Y-102397524D01*
X142048691Y-102434799D01*
X142035769Y-102466615D01*
X142018967Y-102493755D01*
X141997705Y-102517497D01*
X141972725Y-102537013D01*
X141943593Y-102552520D01*
X141895247Y-102567243D01*
X141838813Y-102572401D01*
X141776873Y-102567907D01*
X141744584Y-102561896D01*
X141711807Y-102552569D01*
X141679600Y-102539923D01*
X141647424Y-102523455D01*
X141616864Y-102503235D01*
X141587732Y-102478368D01*
X141616064Y-102428005D01*
X141624180Y-102418550D01*
X141638632Y-102415158D01*
X141651317Y-102416965D01*
X141666280Y-102422974D01*
X141701060Y-102440315D01*
X141746245Y-102457705D01*
X141772763Y-102463460D01*
X141804570Y-102465521D01*
X141836138Y-102462803D01*
X141862358Y-102455165D01*
X141884972Y-102442085D01*
X141902609Y-102423853D01*
X141915156Y-102400815D01*
X141923321Y-102370657D01*
X141925844Y-102337029D01*
X141922735Y-102294258D01*
X141575129Y-102294258D01*
X141558486Y-102291326D01*
X141547725Y-102283364D01*
X141540305Y-102269554D01*
X141532386Y-102241110D01*
X141525150Y-102184349D01*
X141643979Y-102184349D01*
X141647571Y-102210873D01*
X141902609Y-102210873D01*
X141884933Y-102170830D01*
X141863887Y-102138988D01*
X141839595Y-102114104D01*
X141810794Y-102095314D01*
X141778036Y-102083912D01*
X141740237Y-102079959D01*
X141711661Y-102082729D01*
X141689581Y-102090315D01*
X141671213Y-102102680D01*
X141657927Y-102118549D01*
X141649118Y-102137617D01*
X141644445Y-102160266D01*
X141643979Y-102184349D01*
X141525150Y-102184349D01*
X141524670Y-102180586D01*
X141527697Y-102130566D01*
X141540576Y-102085129D01*
X141561353Y-102048891D01*
X141590411Y-102019780D01*
X141627983Y-101998235D01*
X141671209Y-101985416D01*
X141722358Y-101980894D01*
X141783720Y-101986573D01*
G37*
G36*
X141022456Y-102035165D02*
G01*
X141045676Y-102012128D01*
X141073649Y-101994327D01*
X141106400Y-101983305D01*
X141150928Y-101979184D01*
X141204773Y-101984881D01*
X141255268Y-102001850D01*
X141301811Y-102028728D01*
X141344466Y-102064816D01*
X141381293Y-102108275D01*
X141412951Y-102159973D01*
X141437410Y-102216640D01*
X141454570Y-102278577D01*
X141464835Y-102347414D01*
X141465561Y-102403972D01*
X141457440Y-102455936D01*
X141442016Y-102496002D01*
X141418288Y-102529059D01*
X141387892Y-102552813D01*
X141351478Y-102567314D01*
X141307634Y-102572401D01*
X141269180Y-102569598D01*
X141233438Y-102561367D01*
X141199923Y-102547782D01*
X141152770Y-102519581D01*
X141108527Y-102483399D01*
X141108527Y-102538794D01*
X141104434Y-102552931D01*
X141095409Y-102560988D01*
X141079853Y-102564000D01*
X140997201Y-102564000D01*
X140908326Y-102136477D01*
X141043510Y-102136477D01*
X141097048Y-102393860D01*
X141131122Y-102423800D01*
X141163482Y-102444809D01*
X141198457Y-102458095D01*
X141238904Y-102462688D01*
X141263960Y-102460126D01*
X141284480Y-102452918D01*
X141301269Y-102440298D01*
X141313935Y-102421020D01*
X141321463Y-102397030D01*
X141324780Y-102363916D01*
X141322910Y-102327255D01*
X141314961Y-102278577D01*
X141302554Y-102230778D01*
X141287704Y-102192164D01*
X141268890Y-102157888D01*
X141248381Y-102131690D01*
X141224446Y-102110690D01*
X141198848Y-102096177D01*
X141170976Y-102087374D01*
X141141060Y-102084404D01*
X141111066Y-102087444D01*
X141085226Y-102096177D01*
X141062986Y-102111612D01*
X141043510Y-102136477D01*
X140908326Y-102136477D01*
X140824326Y-101732401D01*
X140959539Y-101732401D01*
X141022456Y-102035165D01*
G37*
G36*
X140577494Y-102564000D02*
G01*
X140488248Y-102564000D01*
X140475421Y-102562379D01*
X140465387Y-102557845D01*
X140457251Y-102550067D01*
X140449853Y-102537133D01*
X140435785Y-102498542D01*
X140413412Y-102529024D01*
X140385129Y-102552276D01*
X140348785Y-102567077D01*
X140327738Y-102570990D01*
X140302281Y-102572401D01*
X140249331Y-102566798D01*
X140199113Y-102550029D01*
X140152683Y-102523284D01*
X140110209Y-102487063D01*
X140073564Y-102443051D01*
X140041479Y-102389415D01*
X140016484Y-102329965D01*
X139998053Y-102262360D01*
X139989464Y-102203495D01*
X140129751Y-102203495D01*
X140138688Y-102267391D01*
X140151673Y-102317833D01*
X140166824Y-102357810D01*
X140185895Y-102393097D01*
X140206538Y-102419896D01*
X140230640Y-102441261D01*
X140256413Y-102455702D01*
X140284468Y-102464274D01*
X140314884Y-102467182D01*
X140343945Y-102464180D01*
X140369644Y-102455458D01*
X140391889Y-102439993D01*
X140411360Y-102415158D01*
X140357822Y-102157726D01*
X140323804Y-102127684D01*
X140291877Y-102106533D01*
X140257732Y-102092908D01*
X140220216Y-102088312D01*
X140184429Y-102093458D01*
X140158883Y-102107532D01*
X140140886Y-102130566D01*
X140131639Y-102159767D01*
X140129751Y-102203495D01*
X139989464Y-102203495D01*
X139988786Y-102198845D01*
X139988527Y-102145416D01*
X139996844Y-102095989D01*
X140012512Y-102056756D01*
X140036436Y-102024207D01*
X140067613Y-102000482D01*
X140105038Y-101986033D01*
X140151339Y-101980894D01*
X140202948Y-101986344D01*
X140250307Y-102002436D01*
X140294549Y-102027382D01*
X140337599Y-102060371D01*
X140269406Y-101732401D01*
X140404619Y-101732401D01*
X140577494Y-102564000D01*
G37*
G36*
X139328925Y-101989833D02*
G01*
X139787124Y-102721829D01*
X139796963Y-102734930D01*
X139807299Y-102743909D01*
X139819818Y-102749393D01*
X139838171Y-102751480D01*
X139938897Y-102751480D01*
X139785854Y-102520915D01*
X139902602Y-101989833D01*
X139783803Y-101989833D01*
X139769457Y-101992008D01*
X139760551Y-101997698D01*
X139750830Y-102015577D01*
X139693433Y-102313309D01*
X139689623Y-102343546D01*
X139688060Y-102374272D01*
X139671793Y-102343253D01*
X139654501Y-102312722D01*
X139479916Y-102015577D01*
X139461549Y-101997112D01*
X139449551Y-101991615D01*
X139437320Y-101989833D01*
X139328925Y-101989833D01*
G37*
D11*
X150096993Y-108843409D02*
X150430326Y-108843409D01*
X150430326Y-109367219D02*
X150430326Y-108367219D01*
X150430326Y-108367219D02*
X149954136Y-108367219D01*
X149668421Y-108367219D02*
X149430326Y-109367219D01*
X149430326Y-109367219D02*
X149239850Y-108652933D01*
X149239850Y-108652933D02*
X149049374Y-109367219D01*
X149049374Y-109367219D02*
X148811279Y-108367219D01*
X147811278Y-108367219D02*
X147477945Y-109367219D01*
X147477945Y-109367219D02*
X147144612Y-108367219D01*
X146811278Y-108843409D02*
X146477945Y-108843409D01*
X146335088Y-109367219D02*
X146811278Y-109367219D01*
X146811278Y-109367219D02*
X146811278Y-108367219D01*
X146811278Y-108367219D02*
X146335088Y-108367219D01*
X145335088Y-109367219D02*
X145668421Y-108891028D01*
X145906516Y-109367219D02*
X145906516Y-108367219D01*
X145906516Y-108367219D02*
X145525564Y-108367219D01*
X145525564Y-108367219D02*
X145430326Y-108414838D01*
X145430326Y-108414838D02*
X145382707Y-108462457D01*
X145382707Y-108462457D02*
X145335088Y-108557695D01*
X145335088Y-108557695D02*
X145335088Y-108700552D01*
X145335088Y-108700552D02*
X145382707Y-108795790D01*
X145382707Y-108795790D02*
X145430326Y-108843409D01*
X145430326Y-108843409D02*
X145525564Y-108891028D01*
X145525564Y-108891028D02*
X145906516Y-108891028D01*
X144906516Y-109271980D02*
X144858897Y-109319600D01*
X144858897Y-109319600D02*
X144906516Y-109367219D01*
X144906516Y-109367219D02*
X144954135Y-109319600D01*
X144954135Y-109319600D02*
X144906516Y-109271980D01*
X144906516Y-109271980D02*
X144906516Y-109367219D01*
X143668421Y-109367219D02*
X143668421Y-108367219D01*
X143668421Y-108367219D02*
X143335088Y-109081504D01*
X143335088Y-109081504D02*
X143001755Y-108367219D01*
X143001755Y-108367219D02*
X143001755Y-109367219D01*
X141954136Y-109271980D02*
X142001755Y-109319600D01*
X142001755Y-109319600D02*
X142144612Y-109367219D01*
X142144612Y-109367219D02*
X142239850Y-109367219D01*
X142239850Y-109367219D02*
X142382707Y-109319600D01*
X142382707Y-109319600D02*
X142477945Y-109224361D01*
X142477945Y-109224361D02*
X142525564Y-109129123D01*
X142525564Y-109129123D02*
X142573183Y-108938647D01*
X142573183Y-108938647D02*
X142573183Y-108795790D01*
X142573183Y-108795790D02*
X142525564Y-108605314D01*
X142525564Y-108605314D02*
X142477945Y-108510076D01*
X142477945Y-108510076D02*
X142382707Y-108414838D01*
X142382707Y-108414838D02*
X142239850Y-108367219D01*
X142239850Y-108367219D02*
X142144612Y-108367219D01*
X142144612Y-108367219D02*
X142001755Y-108414838D01*
X142001755Y-108414838D02*
X141954136Y-108462457D01*
X141573183Y-108462457D02*
X141525564Y-108414838D01*
X141525564Y-108414838D02*
X141430326Y-108367219D01*
X141430326Y-108367219D02*
X141192231Y-108367219D01*
X141192231Y-108367219D02*
X141096993Y-108414838D01*
X141096993Y-108414838D02*
X141049374Y-108462457D01*
X141049374Y-108462457D02*
X141001755Y-108557695D01*
X141001755Y-108557695D02*
X141001755Y-108652933D01*
X141001755Y-108652933D02*
X141049374Y-108795790D01*
X141049374Y-108795790D02*
X141620802Y-109367219D01*
X141620802Y-109367219D02*
X141001755Y-109367219D01*
D13*
G36*
X138080757Y-113227487D02*
G01*
X135637840Y-113227487D01*
X134695184Y-116877208D01*
X133756559Y-113227487D01*
X131322069Y-113227487D01*
X131322069Y-119230000D01*
X132838450Y-119230000D01*
X132838450Y-114647515D01*
X134014846Y-119230000D01*
X135387979Y-119230000D01*
X136559979Y-114647515D01*
X136559979Y-119230000D01*
X138080757Y-119230000D01*
X138080757Y-113227487D01*
G37*
G36*
X130155565Y-113227487D02*
G01*
X127712648Y-113227487D01*
X126769993Y-116877208D01*
X125831367Y-113227487D01*
X123396877Y-113227487D01*
X123396877Y-119230000D01*
X124913258Y-119230000D01*
X124913258Y-114647515D01*
X126089654Y-119230000D01*
X127462787Y-119230000D01*
X128634787Y-114647515D01*
X128634787Y-119230000D01*
X130155565Y-119230000D01*
X130155565Y-113227487D01*
G37*
G36*
X122533722Y-117230750D02*
G01*
X120767114Y-117119741D01*
X120710576Y-117402914D01*
X120631180Y-117617555D01*
X120533374Y-117777365D01*
X120376957Y-117935608D01*
X120192439Y-118048526D01*
X119974208Y-118118620D01*
X119713817Y-118143363D01*
X119454896Y-118120063D01*
X119255070Y-118056483D01*
X119101256Y-117957983D01*
X118978400Y-117823260D01*
X118908849Y-117681683D01*
X118885833Y-117528237D01*
X118907564Y-117382086D01*
X118973592Y-117245019D01*
X119090631Y-117112414D01*
X119244502Y-117013119D01*
X119538991Y-116897439D01*
X120041713Y-116766200D01*
X120672237Y-116598753D01*
X121155912Y-116419081D01*
X121518715Y-116231879D01*
X121783408Y-116040066D01*
X122014752Y-115795538D01*
X122176455Y-115525625D01*
X122274321Y-115224857D01*
X122308042Y-114884919D01*
X122278625Y-114585176D01*
X122190259Y-114296311D01*
X122039497Y-114013339D01*
X121836928Y-113765739D01*
X121571290Y-113550981D01*
X121232030Y-113368538D01*
X120864343Y-113246697D01*
X120380851Y-113164385D01*
X119754483Y-113133698D01*
X119165906Y-113165773D01*
X118689129Y-113253896D01*
X118305350Y-113388347D01*
X117998499Y-113563077D01*
X117735478Y-113799469D01*
X117527757Y-114097779D01*
X117373978Y-114469176D01*
X117278960Y-114929616D01*
X119029082Y-115032930D01*
X119098067Y-114770304D01*
X119196913Y-114577092D01*
X119322173Y-114438321D01*
X119481152Y-114339128D01*
X119682932Y-114275639D01*
X119939131Y-114252575D01*
X120236382Y-114290605D01*
X120427128Y-114389228D01*
X120550867Y-114542222D01*
X120590893Y-114721154D01*
X120559001Y-114852853D01*
X120455704Y-114977609D01*
X120274996Y-115076790D01*
X119832519Y-115197794D01*
X119015571Y-115394647D01*
X118454234Y-115570743D01*
X118088625Y-115726092D01*
X117756624Y-115927677D01*
X117505293Y-116148583D01*
X117322191Y-116389211D01*
X117189563Y-116661784D01*
X117109519Y-116955174D01*
X117082222Y-117274713D01*
X117117855Y-117648932D01*
X117223689Y-118000578D01*
X117402058Y-118336071D01*
X117640811Y-118631301D01*
X117936161Y-118876038D01*
X118295621Y-119072829D01*
X118686297Y-119205911D01*
X119163061Y-119292487D01*
X119742393Y-119323789D01*
X120394190Y-119292883D01*
X120910551Y-119208979D01*
X121314884Y-119083145D01*
X121627596Y-118923145D01*
X121865474Y-118732843D01*
X122126352Y-118420571D01*
X122323773Y-118070496D01*
X122460116Y-117676613D01*
X122533722Y-117230750D01*
G37*
D11*
X150096993Y-106943409D02*
X150430326Y-106943409D01*
X150430326Y-107467219D02*
X150430326Y-106467219D01*
X150430326Y-106467219D02*
X149954136Y-106467219D01*
X149668421Y-106467219D02*
X149430326Y-107467219D01*
X149430326Y-107467219D02*
X149239850Y-106752933D01*
X149239850Y-106752933D02*
X149049374Y-107467219D01*
X149049374Y-107467219D02*
X148811279Y-106467219D01*
X147811278Y-106467219D02*
X147477945Y-107467219D01*
X147477945Y-107467219D02*
X147144612Y-106467219D01*
X146811278Y-106943409D02*
X146477945Y-106943409D01*
X146335088Y-107467219D02*
X146811278Y-107467219D01*
X146811278Y-107467219D02*
X146811278Y-106467219D01*
X146811278Y-106467219D02*
X146335088Y-106467219D01*
X145335088Y-107467219D02*
X145668421Y-106991028D01*
X145906516Y-107467219D02*
X145906516Y-106467219D01*
X145906516Y-106467219D02*
X145525564Y-106467219D01*
X145525564Y-106467219D02*
X145430326Y-106514838D01*
X145430326Y-106514838D02*
X145382707Y-106562457D01*
X145382707Y-106562457D02*
X145335088Y-106657695D01*
X145335088Y-106657695D02*
X145335088Y-106800552D01*
X145335088Y-106800552D02*
X145382707Y-106895790D01*
X145382707Y-106895790D02*
X145430326Y-106943409D01*
X145430326Y-106943409D02*
X145525564Y-106991028D01*
X145525564Y-106991028D02*
X145906516Y-106991028D01*
X144906516Y-107371980D02*
X144858897Y-107419600D01*
X144858897Y-107419600D02*
X144906516Y-107467219D01*
X144906516Y-107467219D02*
X144954135Y-107419600D01*
X144954135Y-107419600D02*
X144906516Y-107371980D01*
X144906516Y-107371980D02*
X144906516Y-107467219D01*
X143668421Y-107467219D02*
X143668421Y-106467219D01*
X143668421Y-106467219D02*
X143335088Y-107181504D01*
X143335088Y-107181504D02*
X143001755Y-106467219D01*
X143001755Y-106467219D02*
X143001755Y-107467219D01*
X141954136Y-107371980D02*
X142001755Y-107419600D01*
X142001755Y-107419600D02*
X142144612Y-107467219D01*
X142144612Y-107467219D02*
X142239850Y-107467219D01*
X142239850Y-107467219D02*
X142382707Y-107419600D01*
X142382707Y-107419600D02*
X142477945Y-107324361D01*
X142477945Y-107324361D02*
X142525564Y-107229123D01*
X142525564Y-107229123D02*
X142573183Y-107038647D01*
X142573183Y-107038647D02*
X142573183Y-106895790D01*
X142573183Y-106895790D02*
X142525564Y-106705314D01*
X142525564Y-106705314D02*
X142477945Y-106610076D01*
X142477945Y-106610076D02*
X142382707Y-106514838D01*
X142382707Y-106514838D02*
X142239850Y-106467219D01*
X142239850Y-106467219D02*
X142144612Y-106467219D01*
X142144612Y-106467219D02*
X142001755Y-106514838D01*
X142001755Y-106514838D02*
X141954136Y-106562457D01*
X141001755Y-107467219D02*
X141573183Y-107467219D01*
X141287469Y-107467219D02*
X141287469Y-106467219D01*
X141287469Y-106467219D02*
X141382707Y-106610076D01*
X141382707Y-106610076D02*
X141477945Y-106705314D01*
X141477945Y-106705314D02*
X141573183Y-106752933D01*
D13*
G36*
X134784612Y-103295729D02*
G01*
X134786688Y-103353248D01*
X134792916Y-103393792D01*
X134803785Y-103422857D01*
X134825645Y-103450701D01*
X134883653Y-103491123D01*
X134988799Y-103538506D01*
X135130949Y-103576120D01*
X135212606Y-103587346D01*
X135303750Y-103591263D01*
X135423884Y-103584707D01*
X135532712Y-103565762D01*
X135631646Y-103535209D01*
X135724889Y-103491244D01*
X135807399Y-103435499D01*
X135880286Y-103367536D01*
X135941968Y-103288951D01*
X135994440Y-103196712D01*
X136037456Y-103088977D01*
X136066829Y-102976323D01*
X136085472Y-102847457D01*
X136092044Y-102700143D01*
X136084897Y-102550333D01*
X136064465Y-102417274D01*
X136031960Y-102298974D01*
X135985253Y-102185767D01*
X135929162Y-102088256D01*
X135863921Y-102004661D01*
X135787216Y-101931707D01*
X135701247Y-101871687D01*
X135605024Y-101824043D01*
X135502655Y-101790229D01*
X135392154Y-101769487D01*
X135272243Y-101762372D01*
X135130216Y-101774951D01*
X135003820Y-101807801D01*
X134899284Y-101854452D01*
X134834438Y-101899881D01*
X134809159Y-101931022D01*
X134798290Y-101962651D01*
X134792062Y-102007958D01*
X134789986Y-102072438D01*
X134792794Y-102142536D01*
X134802320Y-102189187D01*
X134818684Y-102215321D01*
X134840544Y-102223503D01*
X134861502Y-102218480D01*
X134892445Y-102199323D01*
X134973778Y-102145345D01*
X135092602Y-102091367D01*
X135165398Y-102073661D01*
X135257222Y-102067187D01*
X135358254Y-102078291D01*
X135445167Y-102110296D01*
X135521194Y-102162087D01*
X135585973Y-102233272D01*
X135636036Y-102319545D01*
X135674023Y-102426713D01*
X135696180Y-102544196D01*
X135704064Y-102682313D01*
X135695449Y-102832550D01*
X135671946Y-102952323D01*
X135631716Y-103059001D01*
X135580478Y-103140268D01*
X135514562Y-103204891D01*
X135436985Y-103250300D01*
X135349301Y-103277093D01*
X135247697Y-103286448D01*
X135155683Y-103280526D01*
X135082466Y-103264344D01*
X134962909Y-103215495D01*
X134880966Y-103167257D01*
X134849876Y-103150083D01*
X134831018Y-103145764D01*
X134809159Y-103151259D01*
X134795603Y-103172875D01*
X134787421Y-103218060D01*
X134784612Y-103295729D01*
G37*
G36*
X133382780Y-103513105D02*
G01*
X133390963Y-103537041D01*
X133418318Y-103554138D01*
X133470952Y-103564396D01*
X133553506Y-103567815D01*
X133637648Y-103564396D01*
X133690282Y-103554138D01*
X133717515Y-103537041D01*
X133725697Y-103512983D01*
X133725697Y-102815547D01*
X133729433Y-102731210D01*
X133738764Y-102675718D01*
X133755030Y-102627670D01*
X133776256Y-102588768D01*
X133804423Y-102556512D01*
X133839759Y-102532592D01*
X133880981Y-102517878D01*
X133930617Y-102512686D01*
X133994603Y-102523996D01*
X134063119Y-102560680D01*
X134128174Y-102616313D01*
X134202459Y-102700387D01*
X134202459Y-103512983D01*
X134210642Y-103537041D01*
X134238729Y-103554138D01*
X134291364Y-103564396D01*
X134374528Y-103567815D01*
X134457937Y-103564396D01*
X134510572Y-103554138D01*
X134538538Y-103537163D01*
X134546720Y-103513227D01*
X134546720Y-101719385D01*
X134538538Y-101694961D01*
X134510572Y-101676521D01*
X134457937Y-101664919D01*
X134374528Y-101660767D01*
X134291364Y-101664919D01*
X134238729Y-101676399D01*
X134210642Y-101694717D01*
X134202459Y-101719263D01*
X134202459Y-102389344D01*
X134110481Y-102311245D01*
X134021475Y-102258796D01*
X133927148Y-102226412D01*
X133829501Y-102215687D01*
X133711269Y-102226674D01*
X133619818Y-102256720D01*
X133542057Y-102305736D01*
X133481821Y-102368827D01*
X133437014Y-102444861D01*
X133405983Y-102534912D01*
X133389091Y-102635064D01*
X133382780Y-102765233D01*
X133382780Y-103513105D01*
G37*
G36*
X132700610Y-102228998D02*
G01*
X132840561Y-102263192D01*
X132952669Y-102308499D01*
X133019591Y-102352463D01*
X133045481Y-102396304D01*
X133052320Y-102462372D01*
X133048290Y-102519036D01*
X133036688Y-102562267D01*
X133017515Y-102589256D01*
X132990893Y-102598660D01*
X132968046Y-102594552D01*
X132934228Y-102579242D01*
X132847400Y-102536133D01*
X132727843Y-102493147D01*
X132657571Y-102478745D01*
X132574214Y-102473607D01*
X132511435Y-102477377D01*
X132464183Y-102487407D01*
X132423439Y-102505446D01*
X132393108Y-102530150D01*
X132370562Y-102562120D01*
X132354884Y-102602568D01*
X132343283Y-102703928D01*
X132343283Y-102778422D01*
X132462107Y-102778422D01*
X132619753Y-102785021D01*
X132747749Y-102803091D01*
X132863992Y-102835599D01*
X132953401Y-102879050D01*
X133026505Y-102937899D01*
X133077721Y-103008988D01*
X133108473Y-103092544D01*
X133119364Y-103194368D01*
X133110768Y-103288907D01*
X133086636Y-103366803D01*
X133046926Y-103435017D01*
X132994434Y-103490635D01*
X132930291Y-103533989D01*
X132853628Y-103565861D01*
X132769816Y-103584707D01*
X132675331Y-103591263D01*
X132561833Y-103579690D01*
X132461496Y-103546078D01*
X132370814Y-103492302D01*
X132290038Y-103420293D01*
X132290038Y-103517257D01*
X132278436Y-103547421D01*
X132238869Y-103563053D01*
X132149354Y-103567815D01*
X132062648Y-103563053D01*
X132019539Y-103547421D01*
X132005861Y-103517257D01*
X132005861Y-103204504D01*
X132343283Y-103204504D01*
X132407979Y-103268858D01*
X132466992Y-103312215D01*
X132530553Y-103339741D01*
X132600226Y-103348974D01*
X132679346Y-103337270D01*
X132734804Y-103305376D01*
X132770654Y-103254816D01*
X132783286Y-103185331D01*
X132778851Y-103142211D01*
X132766189Y-103105708D01*
X132744593Y-103073961D01*
X132712212Y-103046357D01*
X132671744Y-103025624D01*
X132616591Y-103009598D01*
X132554764Y-103000622D01*
X132474441Y-102997264D01*
X132343283Y-102997264D01*
X132343283Y-103204504D01*
X132005861Y-103204504D01*
X132005861Y-102696967D01*
X132013901Y-102575978D01*
X132035903Y-102479591D01*
X132075395Y-102395483D01*
X132131524Y-102329870D01*
X132204213Y-102280295D01*
X132298953Y-102243775D01*
X132406163Y-102223290D01*
X132544173Y-102215687D01*
X132700610Y-102228998D01*
G37*
G36*
X131318440Y-103513105D02*
G01*
X131326622Y-103537041D01*
X131354710Y-103554138D01*
X131407344Y-103564396D01*
X131490509Y-103567815D01*
X131573918Y-103564396D01*
X131626552Y-103554138D01*
X131654518Y-103537041D01*
X131662700Y-103513105D01*
X131662700Y-102296531D01*
X131654518Y-102272595D01*
X131626552Y-102254888D01*
X131573918Y-102243286D01*
X131490509Y-102239134D01*
X131407344Y-102243286D01*
X131354710Y-102254888D01*
X131326622Y-102272595D01*
X131318440Y-102296531D01*
X131318440Y-103513105D01*
G37*
G36*
X131292550Y-101884738D02*
G01*
X131298363Y-101952594D01*
X131313271Y-101998167D01*
X131334926Y-102027742D01*
X131388261Y-102055415D01*
X131491974Y-102067187D01*
X131596805Y-102055656D01*
X131648412Y-102029085D01*
X131676974Y-101980993D01*
X131688712Y-101891454D01*
X131676597Y-101798276D01*
X131647069Y-101747840D01*
X131616222Y-101727723D01*
X131566293Y-101713377D01*
X131489288Y-101707662D01*
X131385632Y-101719332D01*
X131333583Y-101746496D01*
X131304440Y-101795267D01*
X131292550Y-101884738D01*
G37*
G36*
X129812927Y-103513105D02*
G01*
X129821109Y-103537041D01*
X129848464Y-103554138D01*
X129901099Y-103564396D01*
X129983653Y-103567815D01*
X130067794Y-103564396D01*
X130120429Y-103554138D01*
X130147662Y-103537041D01*
X130155844Y-103512983D01*
X130155844Y-102815547D01*
X130159580Y-102731210D01*
X130168911Y-102675718D01*
X130185177Y-102627670D01*
X130206402Y-102588768D01*
X130234569Y-102556512D01*
X130269905Y-102532592D01*
X130311128Y-102517878D01*
X130360764Y-102512686D01*
X130424750Y-102523996D01*
X130493265Y-102560680D01*
X130558320Y-102616313D01*
X130632606Y-102700387D01*
X130632606Y-103512983D01*
X130640788Y-103537041D01*
X130668876Y-103554138D01*
X130721510Y-103564396D01*
X130804675Y-103567815D01*
X130888084Y-103564396D01*
X130940718Y-103554138D01*
X130968684Y-103537041D01*
X130976866Y-103513105D01*
X130976866Y-102293845D01*
X130970027Y-102269909D01*
X130945481Y-102252812D01*
X130899685Y-102242554D01*
X130829344Y-102239134D01*
X130756926Y-102242554D01*
X130712595Y-102252812D01*
X130690003Y-102269909D01*
X130683164Y-102293845D01*
X130683164Y-102434651D01*
X130578124Y-102336352D01*
X130477634Y-102270397D01*
X130370345Y-102229233D01*
X130259647Y-102215687D01*
X130141416Y-102226674D01*
X130049965Y-102256720D01*
X129972156Y-102305619D01*
X129911967Y-102368217D01*
X129867163Y-102443551D01*
X129836130Y-102532958D01*
X129819217Y-102632154D01*
X129812927Y-102759860D01*
X129812927Y-103513105D01*
G37*
G36*
X129389367Y-101800470D02*
G01*
X129423237Y-101820258D01*
X129445398Y-101852984D01*
X129453890Y-101906964D01*
X129453890Y-103446671D01*
X129445398Y-103500650D01*
X129423237Y-103533377D01*
X129389367Y-103553165D01*
X129347278Y-103560000D01*
X128877355Y-103560000D01*
X128773221Y-103556594D01*
X128684036Y-103547055D01*
X128599015Y-103530343D01*
X128520760Y-103506877D01*
X128446914Y-103475527D01*
X128380687Y-103437267D01*
X128321440Y-103390673D01*
X128271388Y-103336273D01*
X128230914Y-103273785D01*
X128199703Y-103201207D01*
X128180446Y-103121967D01*
X128174720Y-103044525D01*
X128546650Y-103044525D01*
X128552162Y-103100659D01*
X128567899Y-103148450D01*
X128593271Y-103190436D01*
X128626639Y-103224654D01*
X128667017Y-103251166D01*
X128715422Y-103270816D01*
X128769756Y-103282181D01*
X128841695Y-103286448D01*
X129101325Y-103286448D01*
X129101325Y-102786238D01*
X128888224Y-102786238D01*
X128794508Y-102791185D01*
X128728367Y-102803946D01*
X128670903Y-102826024D01*
X128627250Y-102854260D01*
X128592527Y-102890665D01*
X128567166Y-102935104D01*
X128551978Y-102985526D01*
X128546650Y-103044525D01*
X128174720Y-103044525D01*
X128173691Y-103030603D01*
X128180792Y-102943490D01*
X128201046Y-102868304D01*
X128233602Y-102800031D01*
X128275418Y-102742152D01*
X128326631Y-102693189D01*
X128386182Y-102654103D01*
X128452103Y-102625296D01*
X128524790Y-102606353D01*
X128468789Y-102580801D01*
X128420254Y-102548956D01*
X128377903Y-102510533D01*
X128343073Y-102467013D01*
X128315592Y-102418362D01*
X128295324Y-102363942D01*
X128283045Y-102306010D01*
X128281604Y-102284441D01*
X128638241Y-102284441D01*
X128653262Y-102375666D01*
X128672290Y-102416292D01*
X128699057Y-102451259D01*
X128733114Y-102479707D01*
X128776238Y-102502062D01*
X128826880Y-102515332D01*
X128900558Y-102520502D01*
X129101325Y-102520502D01*
X129101325Y-102059371D01*
X128919609Y-102059371D01*
X128840586Y-102063642D01*
X128786496Y-102074515D01*
X128739878Y-102093346D01*
X128703820Y-102117745D01*
X128675257Y-102149229D01*
X128654605Y-102188454D01*
X128642498Y-102232736D01*
X128638241Y-102284441D01*
X128281604Y-102284441D01*
X128278838Y-102243042D01*
X128289618Y-102133289D01*
X128319870Y-102043618D01*
X128369806Y-101966310D01*
X128438084Y-101903545D01*
X128521757Y-101856292D01*
X128627983Y-101820990D01*
X128747029Y-101801099D01*
X128903244Y-101793635D01*
X129347278Y-101793635D01*
X129389367Y-101800470D01*
G37*
G36*
X126749511Y-103513105D02*
G01*
X126756350Y-103537041D01*
X126780286Y-103554138D01*
X126825348Y-103564396D01*
X126895690Y-103567815D01*
X126968841Y-103564396D01*
X127013171Y-103554138D01*
X127036374Y-103537041D01*
X127043213Y-103513105D01*
X127043213Y-103372299D01*
X127148257Y-103470514D01*
X127248866Y-103536552D01*
X127355870Y-103577753D01*
X127465387Y-103591263D01*
X127584803Y-103580244D01*
X127676413Y-103550230D01*
X127754174Y-103501214D01*
X127814410Y-103438122D01*
X127859139Y-103362262D01*
X127889637Y-103273381D01*
X127905926Y-103173944D01*
X127912107Y-103040251D01*
X127912107Y-102293845D01*
X127904658Y-102269909D01*
X127877302Y-102252812D01*
X127824057Y-102242554D01*
X127741381Y-102239134D01*
X127658094Y-102242554D01*
X127605460Y-102252812D01*
X127577372Y-102270031D01*
X127569190Y-102293967D01*
X127569190Y-102984563D01*
X127565640Y-103074896D01*
X127556978Y-103131231D01*
X127541023Y-103179226D01*
X127519364Y-103218304D01*
X127490625Y-103250519D01*
X127455129Y-103274480D01*
X127413913Y-103289102D01*
X127364270Y-103294263D01*
X127300426Y-103282827D01*
X127232501Y-103245781D01*
X127167481Y-103189593D01*
X127091085Y-103104364D01*
X127091085Y-102293845D01*
X127083635Y-102269909D01*
X127056280Y-102252812D01*
X127003646Y-102242554D01*
X126920237Y-102239134D01*
X126837072Y-102242554D01*
X126785048Y-102252812D01*
X126757693Y-102269909D01*
X126749511Y-102293845D01*
X126749511Y-103513105D01*
G37*
G36*
X125544783Y-103168722D02*
G01*
X125554919Y-103268357D01*
X125583740Y-103352027D01*
X125630683Y-103424759D01*
X125693771Y-103484651D01*
X125769946Y-103530614D01*
X125861810Y-103564518D01*
X125961311Y-103584377D01*
X126072103Y-103591263D01*
X126202529Y-103581371D01*
X126313904Y-103556336D01*
X126395969Y-103525439D01*
X126443719Y-103495764D01*
X126466922Y-103450823D01*
X126475104Y-103358866D01*
X126472418Y-103294630D01*
X126464235Y-103255917D01*
X126450558Y-103236622D01*
X126430041Y-103231737D01*
X126385711Y-103248712D01*
X126312561Y-103285837D01*
X126210833Y-103323572D01*
X126150429Y-103336541D01*
X126078942Y-103341158D01*
X125996388Y-103331632D01*
X125933496Y-103304277D01*
X125909994Y-103283937D01*
X125893196Y-103259092D01*
X125879518Y-103196078D01*
X125885932Y-103157715D01*
X125904797Y-103125736D01*
X125933357Y-103098821D01*
X125971720Y-103074445D01*
X126065997Y-103033412D01*
X126173953Y-102991036D01*
X126281908Y-102937669D01*
X126331714Y-102904199D01*
X126376064Y-102863907D01*
X126413223Y-102816256D01*
X126442986Y-102758517D01*
X126461520Y-102693269D01*
X126468265Y-102610872D01*
X126459576Y-102526110D01*
X126434193Y-102450160D01*
X126392624Y-102382493D01*
X126335764Y-102325108D01*
X126266049Y-102279699D01*
X126179326Y-102244385D01*
X126083735Y-102223178D01*
X125972330Y-102215687D01*
X125861078Y-102224235D01*
X125763381Y-102245607D01*
X125689619Y-102273206D01*
X125646510Y-102298852D01*
X125628070Y-102319734D01*
X125619888Y-102344159D01*
X125615125Y-102379574D01*
X125613049Y-102431964D01*
X125615125Y-102491926D01*
X125621964Y-102528684D01*
X125634909Y-102547002D01*
X125654082Y-102551765D01*
X125692306Y-102536866D01*
X125757152Y-102504870D01*
X125847400Y-102472875D01*
X125900617Y-102461902D01*
X125964148Y-102457976D01*
X126044870Y-102467623D01*
X126100802Y-102495223D01*
X126133653Y-102537355D01*
X126144521Y-102589012D01*
X126137896Y-102628387D01*
X126118632Y-102660087D01*
X126089434Y-102686432D01*
X126050244Y-102710767D01*
X125954012Y-102751800D01*
X125844713Y-102793443D01*
X125735415Y-102846078D01*
X125684262Y-102879627D01*
X125639061Y-102919961D01*
X125601149Y-102967431D01*
X125570795Y-103024497D01*
X125551676Y-103088836D01*
X125544783Y-103168722D01*
G37*
G36*
X115356601Y-115811108D02*
G01*
X114449923Y-115898742D01*
X114221474Y-115997182D01*
X114158932Y-116140860D01*
X114212299Y-116258267D01*
X114374085Y-116306017D01*
X114626315Y-116347025D01*
X115330760Y-116494206D01*
X115873981Y-116604311D01*
X116017827Y-116569459D01*
X116103215Y-116469961D01*
X116136884Y-116278491D01*
X116111264Y-115983590D01*
X116020038Y-115565057D01*
X115881463Y-115141660D01*
X115703768Y-114753316D01*
X115486086Y-114415837D01*
X115281325Y-114217960D01*
X114980571Y-114047695D01*
X114475764Y-113848323D01*
X113911849Y-113680429D01*
X113253377Y-113533739D01*
X112588253Y-113435098D01*
X112015261Y-113404534D01*
X111747981Y-113428171D01*
X111587763Y-113485989D01*
X111467450Y-113582252D01*
X111390024Y-113705075D01*
X111200150Y-114257845D01*
X111106520Y-114662076D01*
X111073192Y-115142053D01*
X111105922Y-115537687D01*
X111199803Y-115883179D01*
X111351824Y-116187486D01*
X111675815Y-116600525D01*
X112122557Y-116994733D01*
X113837044Y-118130609D01*
X115738035Y-119359736D01*
X115995321Y-119527140D01*
X116339117Y-119782179D01*
X116620558Y-120087775D01*
X115694991Y-119957022D01*
X113998831Y-119631628D01*
X113033729Y-119394565D01*
X112467477Y-119264799D01*
X112336025Y-119308616D01*
X112292208Y-119440068D01*
X112359057Y-119800155D01*
X112552864Y-120231024D01*
X112692336Y-120436455D01*
X112851158Y-120608526D01*
X113181423Y-120851405D01*
X113634235Y-121060861D01*
X114240771Y-121229224D01*
X115038102Y-121343426D01*
X116068349Y-121386000D01*
X116483650Y-121356995D01*
X116746812Y-121285054D01*
X116904246Y-121186013D01*
X117020305Y-121027430D01*
X117172766Y-120668072D01*
X117284008Y-120289009D01*
X117312083Y-120074293D01*
X117242860Y-119733723D01*
X116989633Y-119260867D01*
X116622493Y-118792426D01*
X116105987Y-118278351D01*
X115519536Y-117804675D01*
X114871242Y-117382908D01*
X112697798Y-116121760D01*
X112276594Y-115793683D01*
X111983241Y-115489220D01*
X111776677Y-115176905D01*
X111724832Y-114981390D01*
X111758844Y-114832206D01*
X111860216Y-114720734D01*
X112013530Y-114653104D01*
X112247267Y-114626921D01*
X112671344Y-114660154D01*
X113226974Y-114774101D01*
X113796547Y-114951287D01*
X114385882Y-115199353D01*
X114936447Y-115501237D01*
X115356601Y-115811108D01*
G37*
D12*
G36*
X150665721Y-103023945D02*
G01*
X150725333Y-103040598D01*
X150783133Y-103068646D01*
X150839779Y-103109024D01*
X150825811Y-103153232D01*
X150814362Y-103170916D01*
X150805517Y-103176440D01*
X150793251Y-103178438D01*
X150778210Y-103176497D01*
X150763758Y-103170622D01*
X150732388Y-103152988D01*
X150693279Y-103135354D01*
X150670186Y-103129607D01*
X150640614Y-103127489D01*
X150613550Y-103130994D01*
X150594324Y-103140409D01*
X150580851Y-103155235D01*
X150573088Y-103174627D01*
X150570501Y-103202044D01*
X150574943Y-103240574D01*
X150581492Y-103274133D01*
X150640385Y-103277544D01*
X150690165Y-103283902D01*
X150736979Y-103293503D01*
X150776077Y-103304907D01*
X150812089Y-103319308D01*
X150841244Y-103335144D01*
X150867201Y-103353505D01*
X150887727Y-103372074D01*
X150904921Y-103392512D01*
X150917540Y-103413204D01*
X150926830Y-103435064D01*
X150932652Y-103456582D01*
X150936919Y-103494035D01*
X150934576Y-103524286D01*
X150926014Y-103551326D01*
X150912228Y-103572939D01*
X150893425Y-103589876D01*
X150869226Y-103602346D01*
X150841808Y-103609561D01*
X150809508Y-103612116D01*
X150756935Y-103606791D01*
X150710086Y-103591453D01*
X150665710Y-103566540D01*
X150620006Y-103532102D01*
X150616801Y-103573525D01*
X150612624Y-103589209D01*
X150605993Y-103597315D01*
X150596034Y-103601482D01*
X150579431Y-103603177D01*
X150521958Y-103603177D01*
X150474189Y-103358054D01*
X150597841Y-103358054D01*
X150616709Y-103454872D01*
X150650601Y-103482990D01*
X150681510Y-103501620D01*
X150714339Y-103513046D01*
X150751989Y-103517008D01*
X150781173Y-103512710D01*
X150800532Y-103501327D01*
X150808569Y-103489653D01*
X150812120Y-103473067D01*
X150810103Y-103449304D01*
X150804328Y-103431740D01*
X150793754Y-103415158D01*
X150778730Y-103401062D01*
X150756065Y-103387754D01*
X150729254Y-103377525D01*
X150692272Y-103368459D01*
X150651258Y-103362302D01*
X150597841Y-103358054D01*
X150474189Y-103358054D01*
X150451295Y-103240574D01*
X150445395Y-103192773D01*
X150446945Y-103151034D01*
X150455858Y-103112428D01*
X150471491Y-103080790D01*
X150494056Y-103054848D01*
X150524110Y-103034872D01*
X150559388Y-103022735D01*
X150603474Y-103018361D01*
X150665721Y-103023945D01*
G37*
G36*
X150178995Y-103128613D02*
G01*
X150142112Y-103081584D01*
X150104761Y-103047768D01*
X150077324Y-103031291D01*
X150048915Y-103021603D01*
X150018986Y-103018361D01*
X149985584Y-103023163D01*
X149963848Y-103035752D01*
X149992241Y-103139262D01*
X150002453Y-103153525D01*
X150016375Y-103157726D01*
X150038632Y-103154942D01*
X150067621Y-103152109D01*
X150088080Y-103153840D01*
X150106364Y-103158850D01*
X150123470Y-103166975D01*
X150139657Y-103178145D01*
X150168691Y-103208675D01*
X150195390Y-103249513D01*
X150264312Y-103603177D01*
X150391074Y-103603177D01*
X150279150Y-103029010D01*
X150204732Y-103029010D01*
X150187305Y-103031300D01*
X150179041Y-103036582D01*
X150174922Y-103045910D01*
X150174049Y-103063693D01*
X150178995Y-103128613D01*
G37*
G36*
X149826003Y-103612116D02*
G01*
X149870002Y-103606730D01*
X149901307Y-103592319D01*
X149923273Y-103569862D01*
X149936876Y-103540249D01*
X149942103Y-103502359D01*
X149937241Y-103453211D01*
X149874730Y-103132569D01*
X149928631Y-103132569D01*
X149937913Y-103130683D01*
X149944659Y-103125291D01*
X149948147Y-103116852D01*
X149947545Y-103103456D01*
X149936874Y-103048599D01*
X149849222Y-103033504D01*
X149792069Y-102876798D01*
X149778880Y-102859457D01*
X149769903Y-102854880D01*
X149759233Y-102853302D01*
X149693563Y-102853302D01*
X149728779Y-103034042D01*
X149588141Y-103034042D01*
X149607330Y-103132569D01*
X149747968Y-103132569D01*
X149808601Y-103443686D01*
X149810153Y-103468796D01*
X149804754Y-103485696D01*
X149793082Y-103496785D01*
X149774575Y-103500790D01*
X149754196Y-103497712D01*
X149739083Y-103491264D01*
X149727360Y-103484816D01*
X149717514Y-103481739D01*
X149708858Y-103484816D01*
X149702996Y-103494049D01*
X149678084Y-103561216D01*
X149712109Y-103583301D01*
X149749113Y-103599269D01*
X149787758Y-103608939D01*
X149826003Y-103612116D01*
G37*
G36*
X149382565Y-103090560D02*
G01*
X149344448Y-103062011D01*
X149304942Y-103039659D01*
X149262521Y-103025100D01*
X149214358Y-103020071D01*
X149173340Y-103024318D01*
X149141039Y-103036045D01*
X149113981Y-103055361D01*
X149094053Y-103080790D01*
X149080809Y-103111673D01*
X149073628Y-103149618D01*
X149073089Y-103190524D01*
X149079261Y-103237740D01*
X149150473Y-103603177D01*
X149277235Y-103603177D01*
X149206023Y-103237740D01*
X149202094Y-103202701D01*
X149204617Y-103176293D01*
X149212206Y-103156310D01*
X149225412Y-103141013D01*
X149245110Y-103131195D01*
X149273801Y-103127489D01*
X149306112Y-103131482D01*
X149338556Y-103143756D01*
X149369713Y-103162527D01*
X149401570Y-103187964D01*
X149482491Y-103603177D01*
X149609253Y-103603177D01*
X149447183Y-102771578D01*
X149320421Y-102771578D01*
X149382565Y-103090560D01*
G37*
G36*
X148728265Y-103025320D02*
G01*
X148781865Y-103040783D01*
X148831579Y-103065896D01*
X148875700Y-103099548D01*
X148913835Y-103141351D01*
X148946637Y-103192458D01*
X148971748Y-103249810D01*
X148989227Y-103314970D01*
X148997292Y-103381696D01*
X148994540Y-103438117D01*
X148981526Y-103489731D01*
X148959872Y-103531564D01*
X148940383Y-103555100D01*
X148916947Y-103574817D01*
X148889072Y-103590867D01*
X148842479Y-103606134D01*
X148785849Y-103611578D01*
X148728636Y-103606335D01*
X148675345Y-103590867D01*
X148625881Y-103565661D01*
X148581693Y-103531564D01*
X148543446Y-103489265D01*
X148510893Y-103438117D01*
X148485946Y-103380662D01*
X148468395Y-103314970D01*
X148460972Y-103253678D01*
X148591586Y-103253678D01*
X148599461Y-103316093D01*
X148615279Y-103376611D01*
X148635192Y-103422701D01*
X148658538Y-103457119D01*
X148688339Y-103483709D01*
X148723325Y-103499677D01*
X148765104Y-103505235D01*
X148797881Y-103501720D01*
X148822553Y-103492177D01*
X148841041Y-103477334D01*
X148854497Y-103456826D01*
X148864453Y-103423604D01*
X148866866Y-103378068D01*
X148859122Y-103316093D01*
X148843379Y-103256031D01*
X148823308Y-103209797D01*
X148799542Y-103174823D01*
X148769208Y-103147742D01*
X148733619Y-103131486D01*
X148691144Y-103125828D01*
X148658997Y-103129346D01*
X148634795Y-103138911D01*
X148616647Y-103153829D01*
X148603446Y-103174530D01*
X148593789Y-103207873D01*
X148591586Y-103253678D01*
X148460972Y-103253678D01*
X148460377Y-103248764D01*
X148462991Y-103192458D01*
X148470525Y-103156840D01*
X148482075Y-103126106D01*
X148497475Y-103099548D01*
X148528190Y-103066099D01*
X148568137Y-103040783D01*
X148614426Y-103025510D01*
X148670536Y-103020071D01*
X148728265Y-103025320D01*
G37*
G36*
X148202094Y-103128613D02*
G01*
X148165210Y-103081584D01*
X148127859Y-103047768D01*
X148100423Y-103031291D01*
X148072013Y-103021603D01*
X148042084Y-103018361D01*
X148008682Y-103023163D01*
X147986946Y-103035752D01*
X148015339Y-103139262D01*
X148025552Y-103153525D01*
X148039474Y-103157726D01*
X148061730Y-103154942D01*
X148090719Y-103152109D01*
X148111178Y-103153840D01*
X148129462Y-103158850D01*
X148146569Y-103166975D01*
X148162755Y-103178145D01*
X148191790Y-103208675D01*
X148218488Y-103249513D01*
X148287411Y-103603177D01*
X148414173Y-103603177D01*
X148302248Y-103029010D01*
X148227831Y-103029010D01*
X148210404Y-103031300D01*
X148202139Y-103036582D01*
X148198021Y-103045910D01*
X148197148Y-103063693D01*
X148202094Y-103128613D01*
G37*
G36*
X147796208Y-103090560D02*
G01*
X147758091Y-103062011D01*
X147718584Y-103039659D01*
X147676164Y-103025100D01*
X147628001Y-103020071D01*
X147586983Y-103024318D01*
X147554682Y-103036045D01*
X147527624Y-103055361D01*
X147507696Y-103080790D01*
X147494452Y-103111673D01*
X147487271Y-103149618D01*
X147486732Y-103190524D01*
X147492904Y-103237740D01*
X147564116Y-103603177D01*
X147690878Y-103603177D01*
X147619666Y-103237740D01*
X147615737Y-103202701D01*
X147618260Y-103176293D01*
X147625848Y-103156310D01*
X147639055Y-103141013D01*
X147658753Y-103131195D01*
X147687443Y-103127489D01*
X147719754Y-103131482D01*
X147752198Y-103143756D01*
X147783356Y-103162527D01*
X147815213Y-103187964D01*
X147896134Y-103603177D01*
X148022896Y-103603177D01*
X147860825Y-102771578D01*
X147734063Y-102771578D01*
X147796208Y-103090560D01*
G37*
G36*
X147434515Y-103527070D02*
G01*
X147422150Y-103494049D01*
X147400763Y-103467182D01*
X147372645Y-103449304D01*
X147356697Y-103444236D01*
X147340496Y-103442562D01*
X147324713Y-103444308D01*
X147311279Y-103449304D01*
X147299534Y-103457186D01*
X147290167Y-103467182D01*
X147283219Y-103479301D01*
X147278718Y-103494049D01*
X147277228Y-103509942D01*
X147278993Y-103527070D01*
X147283897Y-103544372D01*
X147291633Y-103560385D01*
X147313523Y-103586959D01*
X147341550Y-103604544D01*
X147357172Y-103609381D01*
X147373332Y-103610992D01*
X147389182Y-103609329D01*
X147402916Y-103604544D01*
X147414865Y-103596856D01*
X147424073Y-103586959D01*
X147430778Y-103574897D01*
X147435064Y-103560385D01*
X147436397Y-103544681D01*
X147434515Y-103527070D01*
G37*
G36*
X146919772Y-103022218D02*
G01*
X146961309Y-103031844D01*
X147000303Y-103047711D01*
X147034765Y-103069066D01*
X147064936Y-103095972D01*
X147089858Y-103127831D01*
X147108623Y-103164076D01*
X147120495Y-103204719D01*
X147124551Y-103239698D01*
X147122687Y-103269966D01*
X147115549Y-103296505D01*
X147103230Y-103320777D01*
X147086503Y-103341548D01*
X147064899Y-103359178D01*
X147099383Y-103380769D01*
X147125624Y-103406219D01*
X147143759Y-103433330D01*
X147153284Y-103459904D01*
X147155766Y-103490114D01*
X147151040Y-103511390D01*
X147140082Y-103528881D01*
X147123746Y-103542751D01*
X147163056Y-103562187D01*
X147193539Y-103586128D01*
X147216146Y-103616420D01*
X147228984Y-103653539D01*
X147231082Y-103682777D01*
X147225779Y-103710595D01*
X147213027Y-103735947D01*
X147191569Y-103759003D01*
X147163613Y-103777238D01*
X147124754Y-103792611D01*
X147080733Y-103801793D01*
X147023546Y-103805214D01*
X146964558Y-103800803D01*
X146912217Y-103788117D01*
X146863830Y-103767936D01*
X146823373Y-103743079D01*
X146788371Y-103712696D01*
X146761183Y-103679283D01*
X146740946Y-103642335D01*
X146731970Y-103613176D01*
X146850523Y-103613176D01*
X146851125Y-103628920D01*
X146856140Y-103644984D01*
X146864864Y-103659987D01*
X146877013Y-103672936D01*
X146894082Y-103684607D01*
X146914023Y-103693559D01*
X146939602Y-103700825D01*
X146967486Y-103705119D01*
X147001793Y-103706687D01*
X147035216Y-103705215D01*
X147059770Y-103701362D01*
X147081287Y-103694643D01*
X147096086Y-103686561D01*
X147107371Y-103675840D01*
X147113763Y-103663895D01*
X147116283Y-103650437D01*
X147115182Y-103635612D01*
X147107800Y-103614230D01*
X147094254Y-103595361D01*
X147076330Y-103579353D01*
X147054229Y-103565123D01*
X147005594Y-103569618D01*
X146956821Y-103572158D01*
X146912491Y-103576310D01*
X146877000Y-103585005D01*
X146863760Y-103592328D01*
X146855018Y-103601516D01*
X146850523Y-103613176D01*
X146731970Y-103613176D01*
X146729584Y-103605424D01*
X146726042Y-103566538D01*
X146731141Y-103538550D01*
X146743639Y-103515179D01*
X146761870Y-103497419D01*
X146784601Y-103484586D01*
X146812520Y-103475340D01*
X146873703Y-103465521D01*
X146936076Y-103461906D01*
X146990206Y-103457705D01*
X147012132Y-103452804D01*
X147026705Y-103446226D01*
X147035545Y-103435951D01*
X147036323Y-103420727D01*
X147027497Y-103402811D01*
X147004632Y-103384384D01*
X146977292Y-103388878D01*
X146947846Y-103390539D01*
X146904907Y-103387226D01*
X146863994Y-103377398D01*
X146825375Y-103361350D01*
X146791271Y-103340176D01*
X146761343Y-103313492D01*
X146736499Y-103281704D01*
X146717734Y-103245411D01*
X146705862Y-103204719D01*
X146703073Y-103180154D01*
X146816335Y-103180154D01*
X146818840Y-103208089D01*
X146824267Y-103228091D01*
X146832212Y-103246142D01*
X146842687Y-103262283D01*
X146855430Y-103275793D01*
X146870381Y-103286668D01*
X146888174Y-103295137D01*
X146907744Y-103300301D01*
X146930626Y-103302123D01*
X146952711Y-103300252D01*
X146970056Y-103295137D01*
X146984827Y-103286518D01*
X146995473Y-103275549D01*
X147002867Y-103261942D01*
X147007105Y-103245605D01*
X147007989Y-103227896D01*
X147005640Y-103208089D01*
X146997681Y-103181141D01*
X146985552Y-103158931D01*
X146969186Y-103140678D01*
X146949203Y-103127256D01*
X146924643Y-103118797D01*
X146894311Y-103115765D01*
X146864111Y-103119049D01*
X146843221Y-103127663D01*
X146829098Y-103140678D01*
X146820030Y-103158235D01*
X146816335Y-103180154D01*
X146703073Y-103180154D01*
X146701939Y-103170164D01*
X146703984Y-103139799D01*
X146654937Y-103130322D01*
X146637978Y-103124046D01*
X146627443Y-103114095D01*
X146621827Y-103100085D01*
X146611798Y-103048599D01*
X146763152Y-103048599D01*
X146786187Y-103035973D01*
X146813252Y-103026519D01*
X146842363Y-103020913D01*
X146875443Y-103018948D01*
X146919772Y-103022218D01*
G37*
G36*
X146384515Y-103029010D02*
G01*
X146496439Y-103603177D01*
X146623705Y-103603177D01*
X146511780Y-103029010D01*
X146384515Y-103029010D01*
G37*
G36*
X146334414Y-102861704D02*
G01*
X146339439Y-102878972D01*
X146347649Y-102895263D01*
X146370730Y-102922716D01*
X146400268Y-102941425D01*
X146416726Y-102946677D01*
X146433424Y-102948410D01*
X146449266Y-102946619D01*
X146463146Y-102941425D01*
X146475311Y-102933181D01*
X146484899Y-102922716D01*
X146492030Y-102910101D01*
X146496714Y-102895263D01*
X146498352Y-102879297D01*
X146496576Y-102861704D01*
X146491517Y-102843835D01*
X146483433Y-102827022D01*
X146460764Y-102799031D01*
X146431730Y-102780273D01*
X146415536Y-102775014D01*
X146399307Y-102773288D01*
X146382993Y-102775087D01*
X146368853Y-102780273D01*
X146356447Y-102788529D01*
X146346596Y-102799031D01*
X146339247Y-102811705D01*
X146334369Y-102827022D01*
X146332617Y-102843535D01*
X146334414Y-102861704D01*
G37*
G36*
X146187273Y-103612116D02*
G01*
X146231272Y-103606730D01*
X146262577Y-103592319D01*
X146284543Y-103569862D01*
X146298146Y-103540249D01*
X146303373Y-103502359D01*
X146298511Y-103453211D01*
X146236000Y-103132569D01*
X146289901Y-103132569D01*
X146299183Y-103130683D01*
X146305930Y-103125291D01*
X146309417Y-103116852D01*
X146308815Y-103103456D01*
X146298144Y-103048599D01*
X146210492Y-103033504D01*
X146153339Y-102876798D01*
X146140150Y-102859457D01*
X146131173Y-102854880D01*
X146120503Y-102853302D01*
X146054833Y-102853302D01*
X146090049Y-103034042D01*
X145949411Y-103034042D01*
X145968600Y-103132569D01*
X146109238Y-103132569D01*
X146169871Y-103443686D01*
X146171423Y-103468796D01*
X146166024Y-103485696D01*
X146154352Y-103496785D01*
X146135845Y-103500790D01*
X146115466Y-103497712D01*
X146100353Y-103491264D01*
X146088630Y-103484816D01*
X146078784Y-103481739D01*
X146070128Y-103484816D01*
X146064267Y-103494049D01*
X146039354Y-103561216D01*
X146073379Y-103583301D01*
X146110383Y-103599269D01*
X146149028Y-103608939D01*
X146187273Y-103612116D01*
G37*
G36*
X145743835Y-103090560D02*
G01*
X145705719Y-103062011D01*
X145666212Y-103039659D01*
X145623791Y-103025100D01*
X145575628Y-103020071D01*
X145534610Y-103024318D01*
X145502310Y-103036045D01*
X145475252Y-103055361D01*
X145455323Y-103080790D01*
X145442079Y-103111673D01*
X145434899Y-103149618D01*
X145434359Y-103190524D01*
X145440531Y-103237740D01*
X145511743Y-103603177D01*
X145638505Y-103603177D01*
X145567293Y-103237740D01*
X145563364Y-103202701D01*
X145565887Y-103176293D01*
X145573476Y-103156310D01*
X145586682Y-103141013D01*
X145606380Y-103131195D01*
X145635071Y-103127489D01*
X145667382Y-103131482D01*
X145699826Y-103143756D01*
X145730983Y-103162527D01*
X145762840Y-103187964D01*
X145843761Y-103603177D01*
X145970523Y-103603177D01*
X145808453Y-102771578D01*
X145681691Y-102771578D01*
X145743835Y-103090560D01*
G37*
G36*
X144812904Y-103029010D02*
G01*
X144924828Y-103603177D01*
X145002314Y-103603177D01*
X145016902Y-103600166D01*
X145025379Y-103592107D01*
X145029242Y-103577971D01*
X145029013Y-103532102D01*
X145069718Y-103564748D01*
X145111674Y-103590036D01*
X145156771Y-103606464D01*
X145207798Y-103612116D01*
X145248789Y-103607875D01*
X145280888Y-103596191D01*
X145307711Y-103576826D01*
X145327783Y-103551153D01*
X145341187Y-103520007D01*
X145348437Y-103482032D01*
X145348976Y-103441120D01*
X145342804Y-103393860D01*
X145271683Y-103029010D01*
X145144921Y-103029010D01*
X145216042Y-103393860D01*
X145219940Y-103428883D01*
X145217342Y-103455290D01*
X145209630Y-103475291D01*
X145196279Y-103490626D01*
X145176619Y-103500428D01*
X145148264Y-103504112D01*
X145115951Y-103500197D01*
X145083601Y-103488187D01*
X145052518Y-103469616D01*
X145020586Y-103444223D01*
X144939666Y-103029010D01*
X144812904Y-103029010D01*
G37*
G36*
X144786434Y-103603177D02*
G01*
X144702765Y-103603177D01*
X144690740Y-103601556D01*
X144681333Y-103597022D01*
X144673706Y-103589244D01*
X144666770Y-103576310D01*
X144653581Y-103537719D01*
X144632607Y-103568201D01*
X144606091Y-103591453D01*
X144572019Y-103606254D01*
X144552287Y-103610167D01*
X144528422Y-103611578D01*
X144478781Y-103605975D01*
X144431702Y-103589206D01*
X144388173Y-103562461D01*
X144348354Y-103526240D01*
X144313999Y-103482228D01*
X144283919Y-103428592D01*
X144260487Y-103369142D01*
X144243207Y-103301537D01*
X144235156Y-103242672D01*
X144366675Y-103242672D01*
X144375052Y-103306568D01*
X144387226Y-103357010D01*
X144401431Y-103396987D01*
X144419309Y-103432274D01*
X144438662Y-103459073D01*
X144461258Y-103480438D01*
X144485420Y-103494879D01*
X144511721Y-103503451D01*
X144540237Y-103506359D01*
X144567482Y-103503357D01*
X144591574Y-103494635D01*
X144612429Y-103479170D01*
X144630683Y-103454335D01*
X144580491Y-103196903D01*
X144548599Y-103166861D01*
X144518667Y-103145710D01*
X144486657Y-103132085D01*
X144451485Y-103127489D01*
X144417935Y-103132635D01*
X144393985Y-103146709D01*
X144377113Y-103169743D01*
X144368444Y-103198944D01*
X144366675Y-103242672D01*
X144235156Y-103242672D01*
X144234520Y-103238022D01*
X144234277Y-103184593D01*
X144242074Y-103135166D01*
X144256763Y-103095933D01*
X144279192Y-103063384D01*
X144308420Y-103039659D01*
X144343506Y-103025210D01*
X144386914Y-103020071D01*
X144435296Y-103025521D01*
X144479695Y-103041613D01*
X144521172Y-103066559D01*
X144561532Y-103099548D01*
X144497601Y-102771578D01*
X144624363Y-102771578D01*
X144786434Y-103603177D01*
G37*
G36*
X144194389Y-103527070D02*
G01*
X144182024Y-103494049D01*
X144160638Y-103467182D01*
X144132519Y-103449304D01*
X144116571Y-103444236D01*
X144100371Y-103442562D01*
X144084587Y-103444308D01*
X144071153Y-103449304D01*
X144059409Y-103457186D01*
X144050042Y-103467182D01*
X144043093Y-103479301D01*
X144038593Y-103494049D01*
X144037103Y-103509942D01*
X144038867Y-103527070D01*
X144043771Y-103544372D01*
X144051507Y-103560385D01*
X144073397Y-103586959D01*
X144101424Y-103604544D01*
X144117046Y-103609381D01*
X144133206Y-103610992D01*
X144149056Y-103609329D01*
X144162790Y-103604544D01*
X144174740Y-103596856D01*
X144183948Y-103586959D01*
X144190653Y-103574897D01*
X144194939Y-103560385D01*
X144196271Y-103544681D01*
X144194389Y-103527070D01*
G37*
G36*
X143698332Y-103029010D02*
G01*
X143810256Y-103603177D01*
X143937522Y-103603177D01*
X143825598Y-103029010D01*
X143698332Y-103029010D01*
G37*
G36*
X143648232Y-102861704D02*
G01*
X143653256Y-102878972D01*
X143661466Y-102895263D01*
X143684547Y-102922716D01*
X143714086Y-102941425D01*
X143730543Y-102946677D01*
X143747241Y-102948410D01*
X143763084Y-102946619D01*
X143776963Y-102941425D01*
X143789128Y-102933181D01*
X143798716Y-102922716D01*
X143805847Y-102910101D01*
X143810531Y-102895263D01*
X143812169Y-102879297D01*
X143810394Y-102861704D01*
X143805335Y-102843835D01*
X143797250Y-102827022D01*
X143774581Y-102799031D01*
X143745547Y-102780273D01*
X143729353Y-102775014D01*
X143713124Y-102773288D01*
X143696811Y-102775087D01*
X143682670Y-102780273D01*
X143670264Y-102788529D01*
X143660413Y-102799031D01*
X143653064Y-102811705D01*
X143648186Y-102827022D01*
X143646434Y-102843535D01*
X143648232Y-102861704D01*
G37*
G36*
X143385941Y-103025320D02*
G01*
X143439541Y-103040783D01*
X143489255Y-103065896D01*
X143533376Y-103099548D01*
X143571511Y-103141351D01*
X143604314Y-103192458D01*
X143629425Y-103249810D01*
X143646903Y-103314970D01*
X143654968Y-103381696D01*
X143652216Y-103438117D01*
X143639202Y-103489731D01*
X143617549Y-103531564D01*
X143598060Y-103555100D01*
X143574623Y-103574817D01*
X143546749Y-103590867D01*
X143500155Y-103606134D01*
X143443526Y-103611578D01*
X143386312Y-103606335D01*
X143333021Y-103590867D01*
X143283558Y-103565661D01*
X143239369Y-103531564D01*
X143201122Y-103489265D01*
X143168569Y-103438117D01*
X143143622Y-103380662D01*
X143126071Y-103314970D01*
X143118648Y-103253678D01*
X143249262Y-103253678D01*
X143257138Y-103316093D01*
X143272955Y-103376611D01*
X143292868Y-103422701D01*
X143316214Y-103457119D01*
X143346015Y-103483709D01*
X143381001Y-103499677D01*
X143422780Y-103505235D01*
X143455557Y-103501720D01*
X143480229Y-103492177D01*
X143498717Y-103477334D01*
X143512173Y-103456826D01*
X143522129Y-103423604D01*
X143524542Y-103378068D01*
X143516798Y-103316093D01*
X143501055Y-103256031D01*
X143480984Y-103209797D01*
X143457218Y-103174823D01*
X143426884Y-103147742D01*
X143391295Y-103131486D01*
X143348820Y-103125828D01*
X143316673Y-103129346D01*
X143292471Y-103138911D01*
X143274323Y-103153829D01*
X143261122Y-103174530D01*
X143251465Y-103207873D01*
X143249262Y-103253678D01*
X143118648Y-103253678D01*
X143118053Y-103248764D01*
X143120667Y-103192458D01*
X143128201Y-103156840D01*
X143139752Y-103126106D01*
X143155151Y-103099548D01*
X143185866Y-103066099D01*
X143225814Y-103040783D01*
X143272102Y-103025510D01*
X143328212Y-103020071D01*
X143385941Y-103025320D01*
G37*
G36*
X142983922Y-103604837D02*
G01*
X142999908Y-103627621D01*
X143019413Y-103643428D01*
X143041307Y-103653275D01*
X143061179Y-103656324D01*
X143115080Y-103656324D01*
X142652408Y-102820280D01*
X142637752Y-102799250D01*
X142620259Y-102784181D01*
X142600034Y-102774724D01*
X142578265Y-102771578D01*
X142523860Y-102771578D01*
X142983922Y-103604837D01*
G37*
G36*
X142029543Y-103412374D02*
G01*
X142019364Y-103414744D01*
X142011362Y-103421851D01*
X141969505Y-103486233D01*
X142009487Y-103523920D01*
X142052496Y-103554955D01*
X142098831Y-103579680D01*
X142147886Y-103597326D01*
X142202479Y-103608301D01*
X142263466Y-103612116D01*
X142317945Y-103608428D01*
X142365098Y-103597961D01*
X142406028Y-103581341D01*
X142443748Y-103557846D01*
X142475543Y-103529402D01*
X142502015Y-103495758D01*
X142522752Y-103457683D01*
X142538177Y-103414315D01*
X142548085Y-103364795D01*
X142551685Y-103314069D01*
X142549357Y-103258880D01*
X142540529Y-103198564D01*
X142525867Y-103138870D01*
X142506101Y-103083337D01*
X142481270Y-103031551D01*
X142451366Y-102982902D01*
X142417861Y-102939467D01*
X142380657Y-102900881D01*
X142339625Y-102866996D01*
X142295602Y-102838607D01*
X142248308Y-102815542D01*
X142198830Y-102798647D01*
X142147374Y-102788454D01*
X142093519Y-102785012D01*
X142040004Y-102788537D01*
X141994334Y-102798474D01*
X141955308Y-102814126D01*
X141918930Y-102836025D01*
X141888415Y-102861375D01*
X141863122Y-102890232D01*
X141922885Y-102960183D01*
X141935753Y-102971955D01*
X141954392Y-102976987D01*
X141969413Y-102972248D01*
X141985075Y-102960476D01*
X142004630Y-102945089D01*
X142031420Y-102929701D01*
X142068377Y-102917978D01*
X142119027Y-102913190D01*
X142167770Y-102918043D01*
X142213870Y-102932486D01*
X142256705Y-102955999D01*
X142295844Y-102988466D01*
X142329777Y-103028558D01*
X142359499Y-103078006D01*
X142382468Y-103133509D01*
X142399387Y-103198564D01*
X142407645Y-103265119D01*
X142405387Y-103320050D01*
X142393676Y-103370134D01*
X142374841Y-103409590D01*
X142348163Y-103441652D01*
X142314391Y-103465228D01*
X142275272Y-103479543D01*
X142229852Y-103484523D01*
X142178195Y-103481202D01*
X142134048Y-103470553D01*
X142093931Y-103451795D01*
X142054318Y-103423560D01*
X142041953Y-103415451D01*
X142029543Y-103412374D01*
G37*
G36*
X141675726Y-103090560D02*
G01*
X141637610Y-103062011D01*
X141598103Y-103039659D01*
X141555682Y-103025100D01*
X141507519Y-103020071D01*
X141466501Y-103024318D01*
X141434201Y-103036045D01*
X141407143Y-103055361D01*
X141387214Y-103080790D01*
X141373970Y-103111673D01*
X141366790Y-103149618D01*
X141366250Y-103190524D01*
X141372422Y-103237740D01*
X141443635Y-103603177D01*
X141570397Y-103603177D01*
X141499185Y-103237740D01*
X141495255Y-103202701D01*
X141497778Y-103176293D01*
X141505367Y-103156310D01*
X141518573Y-103141013D01*
X141538272Y-103131195D01*
X141566962Y-103127489D01*
X141599273Y-103131482D01*
X141631717Y-103143756D01*
X141662874Y-103162527D01*
X141694731Y-103187964D01*
X141775652Y-103603177D01*
X141902414Y-103603177D01*
X141740344Y-102771578D01*
X141613582Y-102771578D01*
X141675726Y-103090560D01*
G37*
G36*
X141052323Y-103023945D02*
G01*
X141111935Y-103040598D01*
X141169735Y-103068646D01*
X141226381Y-103109024D01*
X141212413Y-103153232D01*
X141200964Y-103170916D01*
X141192118Y-103176440D01*
X141179852Y-103178438D01*
X141164811Y-103176497D01*
X141150360Y-103170622D01*
X141118990Y-103152988D01*
X141079881Y-103135354D01*
X141056788Y-103129607D01*
X141027216Y-103127489D01*
X141000152Y-103130994D01*
X140980925Y-103140409D01*
X140967453Y-103155235D01*
X140959690Y-103174627D01*
X140957102Y-103202044D01*
X140961545Y-103240574D01*
X140968094Y-103274133D01*
X141026987Y-103277544D01*
X141076767Y-103283902D01*
X141123581Y-103293503D01*
X141162679Y-103304907D01*
X141198690Y-103319308D01*
X141227846Y-103335144D01*
X141253802Y-103353505D01*
X141274328Y-103372074D01*
X141291522Y-103392512D01*
X141304141Y-103413204D01*
X141313431Y-103435064D01*
X141319254Y-103456582D01*
X141323521Y-103494035D01*
X141321177Y-103524286D01*
X141312615Y-103551326D01*
X141298829Y-103572939D01*
X141280026Y-103589876D01*
X141255827Y-103602346D01*
X141228409Y-103609561D01*
X141196110Y-103612116D01*
X141143536Y-103606791D01*
X141096688Y-103591453D01*
X141052312Y-103566540D01*
X141006608Y-103532102D01*
X141003402Y-103573525D01*
X140999225Y-103589209D01*
X140992594Y-103597315D01*
X140982636Y-103601482D01*
X140966033Y-103603177D01*
X140908560Y-103603177D01*
X140860791Y-103358054D01*
X140984443Y-103358054D01*
X141003310Y-103454872D01*
X141037202Y-103482990D01*
X141068111Y-103501620D01*
X141100941Y-103513046D01*
X141138590Y-103517008D01*
X141167774Y-103512710D01*
X141187134Y-103501327D01*
X141195171Y-103489653D01*
X141198721Y-103473067D01*
X141196705Y-103449304D01*
X141190930Y-103431740D01*
X141180356Y-103415158D01*
X141165332Y-103401062D01*
X141142666Y-103387754D01*
X141115856Y-103377525D01*
X141078873Y-103368459D01*
X141037859Y-103362302D01*
X140984443Y-103358054D01*
X140860791Y-103358054D01*
X140837897Y-103240574D01*
X140831997Y-103192773D01*
X140833546Y-103151034D01*
X140842459Y-103112428D01*
X140858093Y-103080790D01*
X140880658Y-103054848D01*
X140910712Y-103034872D01*
X140945990Y-103022735D01*
X140990076Y-103018361D01*
X141052323Y-103023945D01*
G37*
G36*
X140534410Y-103029010D02*
G01*
X140646334Y-103603177D01*
X140773600Y-103603177D01*
X140661676Y-103029010D01*
X140534410Y-103029010D01*
G37*
G36*
X140484310Y-102861704D02*
G01*
X140489335Y-102878972D01*
X140497545Y-102895263D01*
X140520626Y-102922716D01*
X140550164Y-102941425D01*
X140566621Y-102946677D01*
X140583320Y-102948410D01*
X140599162Y-102946619D01*
X140613041Y-102941425D01*
X140625206Y-102933181D01*
X140634794Y-102922716D01*
X140641926Y-102910101D01*
X140646609Y-102895263D01*
X140648247Y-102879297D01*
X140646472Y-102861704D01*
X140641413Y-102843835D01*
X140633328Y-102827022D01*
X140610660Y-102799031D01*
X140581625Y-102780273D01*
X140565431Y-102775014D01*
X140549202Y-102773288D01*
X140532889Y-102775087D01*
X140518748Y-102780273D01*
X140506342Y-102788529D01*
X140496491Y-102799031D01*
X140489142Y-102811705D01*
X140484264Y-102827022D01*
X140482512Y-102843535D01*
X140484310Y-102861704D01*
G37*
G36*
X140294258Y-103099548D02*
G01*
X140254370Y-103067357D01*
X140211964Y-103042151D01*
X140166489Y-103025933D01*
X140142308Y-103021570D01*
X140116068Y-103020071D01*
X140075050Y-103024318D01*
X140042749Y-103036045D01*
X140015691Y-103055361D01*
X139995763Y-103080790D01*
X139982519Y-103111673D01*
X139975338Y-103149618D01*
X139974799Y-103190524D01*
X139980971Y-103237740D01*
X140052183Y-103603177D01*
X140178945Y-103603177D01*
X140107733Y-103237740D01*
X140103804Y-103202701D01*
X140106327Y-103176293D01*
X140113915Y-103156310D01*
X140127122Y-103141013D01*
X140146820Y-103131195D01*
X140175510Y-103127489D01*
X140207821Y-103131482D01*
X140240265Y-103143756D01*
X140271423Y-103162527D01*
X140303280Y-103187964D01*
X140384201Y-103603177D01*
X140510963Y-103603177D01*
X140399038Y-103029010D01*
X140321552Y-103029010D01*
X140307214Y-103031982D01*
X140298535Y-103040040D01*
X140294167Y-103054216D01*
X140294258Y-103099548D01*
G37*
G36*
X139909896Y-103603177D02*
G01*
X139629719Y-103603177D01*
X139566762Y-103598552D01*
X139511292Y-103585298D01*
X139460162Y-103563602D01*
X139416953Y-103535765D01*
X139379787Y-103500974D01*
X139349954Y-103460490D01*
X139327619Y-103414929D01*
X139313455Y-103365333D01*
X139310673Y-103336319D01*
X139446311Y-103336319D01*
X139449239Y-103361962D01*
X139455778Y-103386500D01*
X139465451Y-103409541D01*
X139478576Y-103430439D01*
X139495676Y-103448717D01*
X139516346Y-103463517D01*
X139542754Y-103475584D01*
X139572379Y-103482960D01*
X139609386Y-103485647D01*
X139748971Y-103485647D01*
X139702717Y-103248389D01*
X139563636Y-103248389D01*
X139528766Y-103250547D01*
X139502820Y-103256254D01*
X139480515Y-103266224D01*
X139464947Y-103278920D01*
X139453910Y-103295201D01*
X139447774Y-103314726D01*
X139446311Y-103336319D01*
X139310673Y-103336319D01*
X139309015Y-103319021D01*
X139314299Y-103281428D01*
X139328110Y-103250290D01*
X139350792Y-103224064D01*
X139384157Y-103202181D01*
X139431241Y-103185130D01*
X139395803Y-103170575D01*
X139365845Y-103153819D01*
X139338976Y-103133997D01*
X139316798Y-103112688D01*
X139298003Y-103088967D01*
X139283413Y-103063986D01*
X139272436Y-103037298D01*
X139265095Y-103009422D01*
X139262481Y-102985849D01*
X139402938Y-102985849D01*
X139406603Y-103027350D01*
X139418367Y-103065513D01*
X139436188Y-103094589D01*
X139460138Y-103116303D01*
X139489086Y-103131094D01*
X139525920Y-103140757D01*
X139572566Y-103144293D01*
X139682430Y-103144293D01*
X139636818Y-102910357D01*
X139519306Y-102910357D01*
X139473129Y-102914088D01*
X139442057Y-102923610D01*
X139421899Y-102937224D01*
X139408706Y-102957154D01*
X139402938Y-102985849D01*
X139262481Y-102985849D01*
X139259712Y-102960877D01*
X139263080Y-102919932D01*
X139275727Y-102883120D01*
X139298389Y-102852179D01*
X139329904Y-102828222D01*
X139374913Y-102809094D01*
X139426893Y-102798141D01*
X139496637Y-102794000D01*
X139752177Y-102794000D01*
X139909896Y-103603177D01*
G37*
G36*
X138682897Y-103029010D02*
G01*
X138794821Y-103603177D01*
X138872307Y-103603177D01*
X138886895Y-103600166D01*
X138895372Y-103592107D01*
X138899235Y-103577971D01*
X138899006Y-103532102D01*
X138939711Y-103564748D01*
X138981667Y-103590036D01*
X139026764Y-103606464D01*
X139077791Y-103612116D01*
X139118782Y-103607875D01*
X139150881Y-103596191D01*
X139177704Y-103576826D01*
X139197776Y-103551153D01*
X139211180Y-103520007D01*
X139218430Y-103482032D01*
X139218969Y-103441120D01*
X139212797Y-103393860D01*
X139141676Y-103029010D01*
X139014914Y-103029010D01*
X139086035Y-103393860D01*
X139089933Y-103428883D01*
X139087335Y-103455290D01*
X139079623Y-103475291D01*
X139066272Y-103490626D01*
X139046612Y-103500428D01*
X139018257Y-103504112D01*
X138985944Y-103500197D01*
X138953594Y-103488187D01*
X138922511Y-103469616D01*
X138890579Y-103444223D01*
X138809659Y-103029010D01*
X138682897Y-103029010D01*
G37*
G36*
X138245091Y-103140922D02*
G01*
X138258326Y-103153574D01*
X138273393Y-103157189D01*
X138292077Y-103151571D01*
X138314014Y-103138969D01*
X138343140Y-103126414D01*
X138360731Y-103122325D01*
X138383852Y-103120797D01*
X138419022Y-103125395D01*
X138445996Y-103138138D01*
X138466061Y-103158429D01*
X138476130Y-103183470D01*
X138476603Y-103200859D01*
X138471138Y-103214537D01*
X138460977Y-103226028D01*
X138446179Y-103236666D01*
X138408215Y-103253714D01*
X138364480Y-103270225D01*
X138321478Y-103290643D01*
X138302032Y-103303760D01*
X138285849Y-103319757D01*
X138273299Y-103338911D01*
X138264829Y-103362011D01*
X138261813Y-103387886D01*
X138265333Y-103421313D01*
X138276540Y-103461243D01*
X138293864Y-103497712D01*
X138317013Y-103530213D01*
X138345933Y-103558138D01*
X138379692Y-103580530D01*
X138419618Y-103597852D01*
X138463052Y-103608413D01*
X138512904Y-103612116D01*
X138565019Y-103606791D01*
X138611959Y-103591990D01*
X138651710Y-103569618D01*
X138681889Y-103541627D01*
X138642413Y-103489017D01*
X138626248Y-103474461D01*
X138605731Y-103469429D01*
X138594550Y-103471267D01*
X138584848Y-103476708D01*
X138563508Y-103492388D01*
X138533970Y-103508068D01*
X138515085Y-103513277D01*
X138487899Y-103515298D01*
X138466082Y-103513749D01*
X138448011Y-103509436D01*
X138418336Y-103494049D01*
X138398644Y-103471969D01*
X138388706Y-103445933D01*
X138387967Y-103427004D01*
X138393286Y-103412911D01*
X138403408Y-103401200D01*
X138418198Y-103390539D01*
X138456438Y-103373491D01*
X138500905Y-103356980D01*
X138544548Y-103335975D01*
X138564049Y-103322218D01*
X138580177Y-103305444D01*
X138592422Y-103285257D01*
X138600602Y-103260162D01*
X138603139Y-103231948D01*
X138598999Y-103195242D01*
X138589161Y-103161014D01*
X138573079Y-103128075D01*
X138551504Y-103098343D01*
X138524490Y-103072388D01*
X138492940Y-103051290D01*
X138455018Y-103034335D01*
X138413612Y-103023766D01*
X138366266Y-103020071D01*
X138314051Y-103025213D01*
X138271012Y-103039659D01*
X138233866Y-103062845D01*
X138206623Y-103091146D01*
X138245091Y-103140922D01*
G37*
D14*
X137968359Y-121228940D02*
X137968359Y-120128940D01*
X137968359Y-120128940D02*
X137601692Y-120914655D01*
X137601692Y-120914655D02*
X137235025Y-120128940D01*
X137235025Y-120128940D02*
X137235025Y-121228940D01*
X136711216Y-121228940D02*
X136711216Y-120128940D01*
X136187406Y-121228940D02*
X136187406Y-120128940D01*
X136187406Y-120128940D02*
X135558834Y-121228940D01*
X135558834Y-121228940D02*
X135558834Y-120128940D01*
X135035025Y-121228940D02*
X135035025Y-120128940D01*
X133673120Y-121228940D02*
X133673120Y-120128940D01*
X133673120Y-120128940D02*
X133306453Y-120914655D01*
X133306453Y-120914655D02*
X132939786Y-120128940D01*
X132939786Y-120128940D02*
X132939786Y-121228940D01*
X132206453Y-120128940D02*
X131996929Y-120128940D01*
X131996929Y-120128940D02*
X131892167Y-120181321D01*
X131892167Y-120181321D02*
X131787405Y-120286083D01*
X131787405Y-120286083D02*
X131735024Y-120495607D01*
X131735024Y-120495607D02*
X131735024Y-120862274D01*
X131735024Y-120862274D02*
X131787405Y-121071798D01*
X131787405Y-121071798D02*
X131892167Y-121176560D01*
X131892167Y-121176560D02*
X131996929Y-121228940D01*
X131996929Y-121228940D02*
X132206453Y-121228940D01*
X132206453Y-121228940D02*
X132311215Y-121176560D01*
X132311215Y-121176560D02*
X132415977Y-121071798D01*
X132415977Y-121071798D02*
X132468358Y-120862274D01*
X132468358Y-120862274D02*
X132468358Y-120495607D01*
X132468358Y-120495607D02*
X132415977Y-120286083D01*
X132415977Y-120286083D02*
X132311215Y-120181321D01*
X132311215Y-120181321D02*
X132206453Y-120128940D01*
X131263596Y-121228940D02*
X131263596Y-120128940D01*
X131263596Y-120128940D02*
X131001691Y-120128940D01*
X131001691Y-120128940D02*
X130844548Y-120181321D01*
X130844548Y-120181321D02*
X130739786Y-120286083D01*
X130739786Y-120286083D02*
X130687405Y-120390845D01*
X130687405Y-120390845D02*
X130635024Y-120600369D01*
X130635024Y-120600369D02*
X130635024Y-120757512D01*
X130635024Y-120757512D02*
X130687405Y-120967036D01*
X130687405Y-120967036D02*
X130739786Y-121071798D01*
X130739786Y-121071798D02*
X130844548Y-121176560D01*
X130844548Y-121176560D02*
X131001691Y-121228940D01*
X131001691Y-121228940D02*
X131263596Y-121228940D01*
X130163596Y-120128940D02*
X130163596Y-121019417D01*
X130163596Y-121019417D02*
X130111215Y-121124179D01*
X130111215Y-121124179D02*
X130058834Y-121176560D01*
X130058834Y-121176560D02*
X129954072Y-121228940D01*
X129954072Y-121228940D02*
X129744548Y-121228940D01*
X129744548Y-121228940D02*
X129639786Y-121176560D01*
X129639786Y-121176560D02*
X129587405Y-121124179D01*
X129587405Y-121124179D02*
X129535024Y-121019417D01*
X129535024Y-121019417D02*
X129535024Y-120128940D01*
X128382643Y-121124179D02*
X128435024Y-121176560D01*
X128435024Y-121176560D02*
X128592167Y-121228940D01*
X128592167Y-121228940D02*
X128696929Y-121228940D01*
X128696929Y-121228940D02*
X128854072Y-121176560D01*
X128854072Y-121176560D02*
X128958834Y-121071798D01*
X128958834Y-121071798D02*
X129011215Y-120967036D01*
X129011215Y-120967036D02*
X129063596Y-120757512D01*
X129063596Y-120757512D02*
X129063596Y-120600369D01*
X129063596Y-120600369D02*
X129011215Y-120390845D01*
X129011215Y-120390845D02*
X128958834Y-120286083D01*
X128958834Y-120286083D02*
X128854072Y-120181321D01*
X128854072Y-120181321D02*
X128696929Y-120128940D01*
X128696929Y-120128940D02*
X128592167Y-120128940D01*
X128592167Y-120128940D02*
X128435024Y-120181321D01*
X128435024Y-120181321D02*
X128382643Y-120233702D01*
X127963596Y-120914655D02*
X127439786Y-120914655D01*
X128068358Y-121228940D02*
X127701691Y-120128940D01*
X127701691Y-120128940D02*
X127335024Y-121228940D01*
X126339786Y-121228940D02*
X126706453Y-120705131D01*
X126968358Y-121228940D02*
X126968358Y-120128940D01*
X126968358Y-120128940D02*
X126549310Y-120128940D01*
X126549310Y-120128940D02*
X126444548Y-120181321D01*
X126444548Y-120181321D02*
X126392167Y-120233702D01*
X126392167Y-120233702D02*
X126339786Y-120338464D01*
X126339786Y-120338464D02*
X126339786Y-120495607D01*
X126339786Y-120495607D02*
X126392167Y-120600369D01*
X126392167Y-120600369D02*
X126444548Y-120652750D01*
X126444548Y-120652750D02*
X126549310Y-120705131D01*
X126549310Y-120705131D02*
X126968358Y-120705131D01*
X125868358Y-121228940D02*
X125868358Y-120128940D01*
X125868358Y-120128940D02*
X125606453Y-120128940D01*
X125606453Y-120128940D02*
X125449310Y-120181321D01*
X125449310Y-120181321D02*
X125344548Y-120286083D01*
X125344548Y-120286083D02*
X125292167Y-120390845D01*
X125292167Y-120390845D02*
X125239786Y-120600369D01*
X125239786Y-120600369D02*
X125239786Y-120757512D01*
X125239786Y-120757512D02*
X125292167Y-120967036D01*
X125292167Y-120967036D02*
X125344548Y-121071798D01*
X125344548Y-121071798D02*
X125449310Y-121176560D01*
X125449310Y-121176560D02*
X125606453Y-121228940D01*
X125606453Y-121228940D02*
X125868358Y-121228940D01*
X123982644Y-121176560D02*
X123825501Y-121228940D01*
X123825501Y-121228940D02*
X123563596Y-121228940D01*
X123563596Y-121228940D02*
X123458834Y-121176560D01*
X123458834Y-121176560D02*
X123406453Y-121124179D01*
X123406453Y-121124179D02*
X123354072Y-121019417D01*
X123354072Y-121019417D02*
X123354072Y-120914655D01*
X123354072Y-120914655D02*
X123406453Y-120809893D01*
X123406453Y-120809893D02*
X123458834Y-120757512D01*
X123458834Y-120757512D02*
X123563596Y-120705131D01*
X123563596Y-120705131D02*
X123773120Y-120652750D01*
X123773120Y-120652750D02*
X123877882Y-120600369D01*
X123877882Y-120600369D02*
X123930263Y-120547988D01*
X123930263Y-120547988D02*
X123982644Y-120443226D01*
X123982644Y-120443226D02*
X123982644Y-120338464D01*
X123982644Y-120338464D02*
X123930263Y-120233702D01*
X123930263Y-120233702D02*
X123877882Y-120181321D01*
X123877882Y-120181321D02*
X123773120Y-120128940D01*
X123773120Y-120128940D02*
X123511215Y-120128940D01*
X123511215Y-120128940D02*
X123354072Y-120181321D01*
X122673120Y-120705131D02*
X122673120Y-121228940D01*
X123039787Y-120128940D02*
X122673120Y-120705131D01*
X122673120Y-120705131D02*
X122306453Y-120128940D01*
X121992168Y-121176560D02*
X121835025Y-121228940D01*
X121835025Y-121228940D02*
X121573120Y-121228940D01*
X121573120Y-121228940D02*
X121468358Y-121176560D01*
X121468358Y-121176560D02*
X121415977Y-121124179D01*
X121415977Y-121124179D02*
X121363596Y-121019417D01*
X121363596Y-121019417D02*
X121363596Y-120914655D01*
X121363596Y-120914655D02*
X121415977Y-120809893D01*
X121415977Y-120809893D02*
X121468358Y-120757512D01*
X121468358Y-120757512D02*
X121573120Y-120705131D01*
X121573120Y-120705131D02*
X121782644Y-120652750D01*
X121782644Y-120652750D02*
X121887406Y-120600369D01*
X121887406Y-120600369D02*
X121939787Y-120547988D01*
X121939787Y-120547988D02*
X121992168Y-120443226D01*
X121992168Y-120443226D02*
X121992168Y-120338464D01*
X121992168Y-120338464D02*
X121939787Y-120233702D01*
X121939787Y-120233702D02*
X121887406Y-120181321D01*
X121887406Y-120181321D02*
X121782644Y-120128940D01*
X121782644Y-120128940D02*
X121520739Y-120128940D01*
X121520739Y-120128940D02*
X121363596Y-120181321D01*
X121049311Y-120128940D02*
X120420739Y-120128940D01*
X120735025Y-121228940D02*
X120735025Y-120128940D01*
X120054073Y-120652750D02*
X119687406Y-120652750D01*
X119530263Y-121228940D02*
X120054073Y-121228940D01*
X120054073Y-121228940D02*
X120054073Y-120128940D01*
X120054073Y-120128940D02*
X119530263Y-120128940D01*
X119058835Y-121228940D02*
X119058835Y-120128940D01*
X119058835Y-120128940D02*
X118692168Y-120914655D01*
X118692168Y-120914655D02*
X118325501Y-120128940D01*
X118325501Y-120128940D02*
X118325501Y-121228940D01*
D11*
X130777945Y-108483600D02*
X130635088Y-108531219D01*
X130635088Y-108531219D02*
X130396993Y-108531219D01*
X130396993Y-108531219D02*
X130301755Y-108483600D01*
X130301755Y-108483600D02*
X130254136Y-108435980D01*
X130254136Y-108435980D02*
X130206517Y-108340742D01*
X130206517Y-108340742D02*
X130206517Y-108245504D01*
X130206517Y-108245504D02*
X130254136Y-108150266D01*
X130254136Y-108150266D02*
X130301755Y-108102647D01*
X130301755Y-108102647D02*
X130396993Y-108055028D01*
X130396993Y-108055028D02*
X130587469Y-108007409D01*
X130587469Y-108007409D02*
X130682707Y-107959790D01*
X130682707Y-107959790D02*
X130730326Y-107912171D01*
X130730326Y-107912171D02*
X130777945Y-107816933D01*
X130777945Y-107816933D02*
X130777945Y-107721695D01*
X130777945Y-107721695D02*
X130730326Y-107626457D01*
X130730326Y-107626457D02*
X130682707Y-107578838D01*
X130682707Y-107578838D02*
X130587469Y-107531219D01*
X130587469Y-107531219D02*
X130349374Y-107531219D01*
X130349374Y-107531219D02*
X130206517Y-107578838D01*
X129777945Y-108531219D02*
X129777945Y-107531219D01*
X129777945Y-107531219D02*
X129206517Y-108531219D01*
X129206517Y-108531219D02*
X129206517Y-107531219D01*
D10*
X127333333Y-126233609D02*
X127190476Y-126281228D01*
X127190476Y-126281228D02*
X127142857Y-126328847D01*
X127142857Y-126328847D02*
X127095238Y-126424085D01*
X127095238Y-126424085D02*
X127095238Y-126566942D01*
X127095238Y-126566942D02*
X127142857Y-126662180D01*
X127142857Y-126662180D02*
X127190476Y-126709800D01*
X127190476Y-126709800D02*
X127285714Y-126757419D01*
X127285714Y-126757419D02*
X127666666Y-126757419D01*
X127666666Y-126757419D02*
X127666666Y-125757419D01*
X127666666Y-125757419D02*
X127333333Y-125757419D01*
X127333333Y-125757419D02*
X127238095Y-125805038D01*
X127238095Y-125805038D02*
X127190476Y-125852657D01*
X127190476Y-125852657D02*
X127142857Y-125947895D01*
X127142857Y-125947895D02*
X127142857Y-126043133D01*
X127142857Y-126043133D02*
X127190476Y-126138371D01*
X127190476Y-126138371D02*
X127238095Y-126185990D01*
X127238095Y-126185990D02*
X127333333Y-126233609D01*
X127333333Y-126233609D02*
X127666666Y-126233609D01*
X126714285Y-126471704D02*
X126238095Y-126471704D01*
X126809523Y-126757419D02*
X126476190Y-125757419D01*
X126476190Y-125757419D02*
X126142857Y-126757419D01*
X125238095Y-126757419D02*
X125571428Y-126281228D01*
X125809523Y-126757419D02*
X125809523Y-125757419D01*
X125809523Y-125757419D02*
X125428571Y-125757419D01*
X125428571Y-125757419D02*
X125333333Y-125805038D01*
X125333333Y-125805038D02*
X125285714Y-125852657D01*
X125285714Y-125852657D02*
X125238095Y-125947895D01*
X125238095Y-125947895D02*
X125238095Y-126090752D01*
X125238095Y-126090752D02*
X125285714Y-126185990D01*
X125285714Y-126185990D02*
X125333333Y-126233609D01*
X125333333Y-126233609D02*
X125428571Y-126281228D01*
X125428571Y-126281228D02*
X125809523Y-126281228D01*
X124285714Y-126757419D02*
X124857142Y-126757419D01*
X124571428Y-126757419D02*
X124571428Y-125757419D01*
X124571428Y-125757419D02*
X124666666Y-125900276D01*
X124666666Y-125900276D02*
X124761904Y-125995514D01*
X124761904Y-125995514D02*
X124857142Y-126043133D01*
D12*
X105839819Y-110166666D02*
X106554104Y-110166666D01*
X106554104Y-110166666D02*
X106696961Y-110119047D01*
X106696961Y-110119047D02*
X106792200Y-110023809D01*
X106792200Y-110023809D02*
X106839819Y-109880952D01*
X106839819Y-109880952D02*
X106839819Y-109785714D01*
X105839819Y-111119047D02*
X105839819Y-110642857D01*
X105839819Y-110642857D02*
X106316009Y-110595238D01*
X106316009Y-110595238D02*
X106268390Y-110642857D01*
X106268390Y-110642857D02*
X106220771Y-110738095D01*
X106220771Y-110738095D02*
X106220771Y-110976190D01*
X106220771Y-110976190D02*
X106268390Y-111071428D01*
X106268390Y-111071428D02*
X106316009Y-111119047D01*
X106316009Y-111119047D02*
X106411247Y-111166666D01*
X106411247Y-111166666D02*
X106649342Y-111166666D01*
X106649342Y-111166666D02*
X106744580Y-111119047D01*
X106744580Y-111119047D02*
X106792200Y-111071428D01*
X106792200Y-111071428D02*
X106839819Y-110976190D01*
X106839819Y-110976190D02*
X106839819Y-110738095D01*
X106839819Y-110738095D02*
X106792200Y-110642857D01*
X106792200Y-110642857D02*
X106744580Y-110595238D01*
X100667236Y-91639719D02*
X101172312Y-92144795D01*
X101172312Y-92144795D02*
X101306999Y-92212139D01*
X101306999Y-92212139D02*
X101441686Y-92212139D01*
X101441686Y-92212139D02*
X101576373Y-92144795D01*
X101576373Y-92144795D02*
X101643717Y-92077452D01*
X100397862Y-91909093D02*
X99960129Y-92346826D01*
X99960129Y-92346826D02*
X100465205Y-92380498D01*
X100465205Y-92380498D02*
X100364190Y-92481513D01*
X100364190Y-92481513D02*
X100330518Y-92582528D01*
X100330518Y-92582528D02*
X100330518Y-92649872D01*
X100330518Y-92649872D02*
X100364190Y-92750887D01*
X100364190Y-92750887D02*
X100532549Y-92919246D01*
X100532549Y-92919246D02*
X100633564Y-92952917D01*
X100633564Y-92952917D02*
X100700907Y-92952917D01*
X100700907Y-92952917D02*
X100801923Y-92919246D01*
X100801923Y-92919246D02*
X101003953Y-92717215D01*
X101003953Y-92717215D02*
X101037625Y-92616200D01*
X101037625Y-92616200D02*
X101037625Y-92548856D01*
D10*
X127833333Y-133233609D02*
X127690476Y-133281228D01*
X127690476Y-133281228D02*
X127642857Y-133328847D01*
X127642857Y-133328847D02*
X127595238Y-133424085D01*
X127595238Y-133424085D02*
X127595238Y-133566942D01*
X127595238Y-133566942D02*
X127642857Y-133662180D01*
X127642857Y-133662180D02*
X127690476Y-133709800D01*
X127690476Y-133709800D02*
X127785714Y-133757419D01*
X127785714Y-133757419D02*
X128166666Y-133757419D01*
X128166666Y-133757419D02*
X128166666Y-132757419D01*
X128166666Y-132757419D02*
X127833333Y-132757419D01*
X127833333Y-132757419D02*
X127738095Y-132805038D01*
X127738095Y-132805038D02*
X127690476Y-132852657D01*
X127690476Y-132852657D02*
X127642857Y-132947895D01*
X127642857Y-132947895D02*
X127642857Y-133043133D01*
X127642857Y-133043133D02*
X127690476Y-133138371D01*
X127690476Y-133138371D02*
X127738095Y-133185990D01*
X127738095Y-133185990D02*
X127833333Y-133233609D01*
X127833333Y-133233609D02*
X128166666Y-133233609D01*
X127214285Y-133471704D02*
X126738095Y-133471704D01*
X127309523Y-133757419D02*
X126976190Y-132757419D01*
X126976190Y-132757419D02*
X126642857Y-133757419D01*
X125738095Y-133757419D02*
X126071428Y-133281228D01*
X126309523Y-133757419D02*
X126309523Y-132757419D01*
X126309523Y-132757419D02*
X125928571Y-132757419D01*
X125928571Y-132757419D02*
X125833333Y-132805038D01*
X125833333Y-132805038D02*
X125785714Y-132852657D01*
X125785714Y-132852657D02*
X125738095Y-132947895D01*
X125738095Y-132947895D02*
X125738095Y-133090752D01*
X125738095Y-133090752D02*
X125785714Y-133185990D01*
X125785714Y-133185990D02*
X125833333Y-133233609D01*
X125833333Y-133233609D02*
X125928571Y-133281228D01*
X125928571Y-133281228D02*
X126309523Y-133281228D01*
X125357142Y-132852657D02*
X125309523Y-132805038D01*
X125309523Y-132805038D02*
X125214285Y-132757419D01*
X125214285Y-132757419D02*
X124976190Y-132757419D01*
X124976190Y-132757419D02*
X124880952Y-132805038D01*
X124880952Y-132805038D02*
X124833333Y-132852657D01*
X124833333Y-132852657D02*
X124785714Y-132947895D01*
X124785714Y-132947895D02*
X124785714Y-133043133D01*
X124785714Y-133043133D02*
X124833333Y-133185990D01*
X124833333Y-133185990D02*
X125404761Y-133757419D01*
X125404761Y-133757419D02*
X124785714Y-133757419D01*
%TO.C,BAR1*%
X105500000Y-124300000D02*
X147500000Y-124300000D01*
X105500000Y-128300000D02*
X147500000Y-128300000D01*
D15*
%TO.C,J5*%
X107320000Y-109340000D02*
X107320000Y-110500000D01*
X108130000Y-109340000D02*
X107320000Y-109340000D01*
X108940000Y-109340000D02*
X108940000Y-109833292D01*
X108940000Y-109340000D02*
X111415000Y-109340000D01*
X108940000Y-111166708D02*
X108940000Y-111660000D01*
X108940000Y-111660000D02*
X111415000Y-111660000D01*
X111415000Y-109340000D02*
X111415000Y-110182077D01*
X111415000Y-110817923D02*
X111415000Y-111660000D01*
%TO.C,J3*%
X101803449Y-94887824D02*
X106247615Y-99331990D01*
X102152259Y-94539014D02*
X101803449Y-94887824D01*
X102298423Y-92101824D02*
X101478180Y-92922068D01*
X102871180Y-92674580D02*
X102298423Y-92101824D01*
X103443936Y-93247337D02*
X103095126Y-93596147D01*
X103443936Y-93247337D02*
X107888102Y-97691503D01*
X106843053Y-98736552D02*
X106247615Y-99331990D01*
X107888102Y-97691503D02*
X107292664Y-98286941D01*
D10*
%TO.C,BAR2*%
X105500000Y-131800000D02*
X147500000Y-131800000D01*
X105500000Y-135800000D02*
X147500000Y-135800000D01*
%TD*%
%LPC*%
D16*
%TO.C,J1*%
X122900000Y-99680000D03*
X125440000Y-99680000D03*
X127980000Y-99680000D03*
X130520000Y-99680000D03*
X133060000Y-99680000D03*
X135600000Y-99680000D03*
X138140000Y-99680000D03*
X140680000Y-99680000D03*
X143220000Y-99680000D03*
X145760000Y-99680000D03*
X148300000Y-99680000D03*
X150840000Y-99680000D03*
X153380000Y-99680000D03*
X155920000Y-99680000D03*
X158460000Y-99680000D03*
X161000000Y-99680000D03*
X122900000Y-97140000D03*
X125440000Y-97140000D03*
X127980000Y-97140000D03*
X130520000Y-97140000D03*
X133060000Y-97140000D03*
X135600000Y-97140000D03*
X138140000Y-97140000D03*
X140680000Y-97140000D03*
X143220000Y-97140000D03*
X145760000Y-97140000D03*
X148300000Y-97140000D03*
X150840000Y-97140000D03*
X153380000Y-97140000D03*
X155920000Y-97140000D03*
X158460000Y-97140000D03*
X161000000Y-97140000D03*
X122900000Y-94600000D03*
X125440000Y-94600000D03*
X127980000Y-94600000D03*
X130520000Y-94600000D03*
X133060000Y-94600000D03*
X135600000Y-94600000D03*
X138140000Y-94600000D03*
X140680000Y-94600000D03*
X143220000Y-94600000D03*
X145760000Y-94600000D03*
X148300000Y-94600000D03*
X150840000Y-94600000D03*
X153380000Y-94600000D03*
X155920000Y-94600000D03*
X158460000Y-94600000D03*
D17*
X161000000Y-94600000D03*
D18*
X166950000Y-96840000D03*
X116950000Y-96840000D03*
%TD*%
D19*
%TO.C,J2*%
X94475000Y-126150000D03*
D20*
X94475000Y-133350000D03*
D21*
X88475000Y-123000000D03*
X88475000Y-136500000D03*
%TD*%
D22*
%TO.C,J4*%
X122900000Y-89800000D03*
X125440000Y-89800000D03*
X127980000Y-89800000D03*
X130520000Y-89800000D03*
X133060000Y-89800000D03*
X135600000Y-89800000D03*
X138140000Y-89800000D03*
X140680000Y-89800000D03*
X143220000Y-89800000D03*
X145760000Y-89800000D03*
X148300000Y-89800000D03*
X150840000Y-89800000D03*
X153380000Y-89800000D03*
X155920000Y-89800000D03*
X158460000Y-89800000D03*
D23*
X161000000Y-89800000D03*
%TD*%
D19*
%TO.C,J7*%
X156600000Y-126150000D03*
D24*
X156600000Y-133350000D03*
D21*
X162600000Y-136500000D03*
X162600000Y-123000000D03*
%TD*%
D25*
%TO.C,J8*%
X87010000Y-104000000D03*
X87010000Y-120260000D03*
D26*
X92720000Y-105270000D03*
X92720000Y-107560000D03*
X92720000Y-116700000D03*
X92720000Y-118990000D03*
X87900000Y-108578000D03*
X86120000Y-109594000D03*
X87900000Y-110610000D03*
X86120000Y-111626000D03*
X87900000Y-112642000D03*
X86120000Y-113658000D03*
X87900000Y-114674000D03*
D27*
X86120000Y-115690000D03*
D28*
X83580000Y-105780000D03*
X83580000Y-118480000D03*
%TD*%
D25*
%TO.C,J9*%
X163000000Y-120260000D03*
X163000000Y-104000000D03*
D26*
X157290000Y-118990000D03*
X157290000Y-116700000D03*
X157290000Y-107560000D03*
X157290000Y-105270000D03*
X162110000Y-115682000D03*
X163890000Y-114666000D03*
X162110000Y-113650000D03*
X163890000Y-112634000D03*
X162110000Y-111618000D03*
X163890000Y-110602000D03*
X162110000Y-109586000D03*
D27*
X163890000Y-108570000D03*
D28*
X166430000Y-118480000D03*
X166430000Y-105780000D03*
%TD*%
D29*
%TO.C,J800*%
X82620000Y-99740000D03*
D30*
X86800000Y-99740000D03*
D29*
X82620000Y-91100000D03*
D30*
X86800000Y-91100000D03*
D31*
X86300000Y-98310000D03*
X86300000Y-92530000D03*
%TD*%
D27*
%TO.C,CAP+1*%
X98500000Y-125000000D03*
%TD*%
D32*
%TO.C,H1*%
X148000000Y-119400000D03*
%TD*%
%TO.C,H2*%
X94000000Y-92100000D03*
%TD*%
D27*
%TO.C,CAP-1*%
X98500000Y-135200000D03*
%TD*%
D32*
%TO.C,H3*%
X164000000Y-129000000D03*
%TD*%
%TO.C,H4*%
X86000000Y-129000000D03*
%TD*%
D33*
%TO.C,BAR1*%
X151500000Y-126300000D03*
X101500000Y-126300000D03*
%TD*%
D34*
%TO.C,J5*%
X108130000Y-110500000D03*
D35*
X109400000Y-110500000D03*
X110670000Y-110500000D03*
%TD*%
D36*
%TO.C,J3*%
X102050936Y-93494824D03*
D35*
X102948962Y-94392850D03*
X103846987Y-95290875D03*
X104745013Y-96188901D03*
X105643038Y-97086926D03*
X106541064Y-97984952D03*
%TD*%
D37*
%TO.C,NT2*%
X103550000Y-133825000D03*
X104625000Y-133825000D03*
%TD*%
D33*
%TO.C,BAR2*%
X151500000Y-133800000D03*
X101500000Y-133800000D03*
%TD*%
%LPD*%
M02*
