%TF.GenerationSoftware,KiCad,Pcbnew,9.0.3*%
%TF.CreationDate,2025-09-28T00:53:36+02:00*%
%TF.ProjectId,MMS2,4d4d5332-2e6b-4696-9361-645f70636258,rev?*%
%TF.SameCoordinates,Original*%
%TF.FileFunction,Soldermask,Bot*%
%TF.FilePolarity,Negative*%
%FSLAX46Y46*%
G04 Gerber Fmt 4.6, Leading zero omitted, Abs format (unit mm)*
G04 Created by KiCad (PCBNEW 9.0.3) date 2025-09-28 00:53:36*
%MOMM*%
%LPD*%
G01*
G04 APERTURE LIST*
G04 Aperture macros list*
%AMRoundRect*
0 Rectangle with rounded corners*
0 $1 Rounding radius*
0 $2 $3 $4 $5 $6 $7 $8 $9 X,Y pos of 4 corners*
0 Add a 4 corners polygon primitive as box body*
4,1,4,$2,$3,$4,$5,$6,$7,$8,$9,$2,$3,0*
0 Add four circle primitives for the rounded corners*
1,1,$1+$1,$2,$3*
1,1,$1+$1,$4,$5*
1,1,$1+$1,$6,$7*
1,1,$1+$1,$8,$9*
0 Add four rect primitives between the rounded corners*
20,1,$1+$1,$2,$3,$4,$5,0*
20,1,$1+$1,$4,$5,$6,$7,0*
20,1,$1+$1,$6,$7,$8,$9,0*
20,1,$1+$1,$8,$9,$2,$3,0*%
%AMRotRect*
0 Rectangle, with rotation*
0 The origin of the aperture is its center*
0 $1 length*
0 $2 width*
0 $3 Rotation angle, in degrees counterclockwise*
0 Add horizontal line*
21,1,$1,$2,0,0,$3*%
G04 Aperture macros list end*
%ADD10C,5.600000*%
%ADD11O,1.800000X1.000000*%
%ADD12O,2.100000X1.000000*%
%ADD13C,0.650000*%
%ADD14R,1.500000X1.500000*%
%ADD15R,2.000000X0.900000*%
%ADD16RoundRect,1.025000X-1.025000X1.025000X-1.025000X-1.025000X1.025000X-1.025000X1.025000X1.025000X0*%
%ADD17C,4.100000*%
%ADD18C,3.250000*%
%ADD19C,1.500000*%
%ADD20C,2.300000*%
%ADD21C,2.900000*%
%ADD22RoundRect,0.102000X-0.825000X-0.825000X0.825000X-0.825000X0.825000X0.825000X-0.825000X0.825000X0*%
%ADD23C,1.854000*%
%ADD24RoundRect,1.025000X1.025000X-1.025000X1.025000X1.025000X-1.025000X1.025000X-1.025000X-1.025000X0*%
%ADD25R,1.700000X1.700000*%
%ADD26C,1.700000*%
%ADD27RoundRect,0.750000X1.750000X1.750000X-1.750000X1.750000X-1.750000X-1.750000X1.750000X-1.750000X0*%
%ADD28R,1.000000X1.000000*%
%ADD29C,1.000000*%
%ADD30RotRect,1.000000X1.000000X225.000000*%
%ADD31R,1.150000X5.000000*%
G04 APERTURE END LIST*
D10*
%TO.C,H3*%
X164000000Y-129000000D03*
%TD*%
%TO.C,H2*%
X94000000Y-92100000D03*
%TD*%
D11*
%TO.C,J800*%
X82620000Y-99740000D03*
D12*
X86800000Y-99740000D03*
D11*
X82620000Y-91100000D03*
D12*
X86800000Y-91100000D03*
D13*
X86300000Y-98310000D03*
X86300000Y-92530000D03*
%TD*%
D14*
%TO.C,CAP+1*%
X98500000Y-125000000D03*
%TD*%
D15*
%TO.C,J7*%
X162600000Y-123000000D03*
X162600000Y-136500000D03*
D16*
X156600000Y-133350000D03*
D17*
X156600000Y-126150000D03*
%TD*%
D10*
%TO.C,H1*%
X148000000Y-119400000D03*
%TD*%
D18*
%TO.C,J9*%
X166430000Y-105780000D03*
X166430000Y-118480000D03*
D14*
X163890000Y-108570000D03*
D19*
X162110000Y-109586000D03*
X163890000Y-110602000D03*
X162110000Y-111618000D03*
X163890000Y-112634000D03*
X162110000Y-113650000D03*
X163890000Y-114666000D03*
X162110000Y-115682000D03*
X157290000Y-105270000D03*
X157290000Y-107560000D03*
X157290000Y-116700000D03*
X157290000Y-118990000D03*
D20*
X163000000Y-104000000D03*
X163000000Y-120260000D03*
%TD*%
D14*
%TO.C,CAP-1*%
X98500000Y-135200000D03*
%TD*%
D18*
%TO.C,J8*%
X83580000Y-118480000D03*
X83580000Y-105780000D03*
D14*
X86120000Y-115690000D03*
D19*
X87900000Y-114674000D03*
X86120000Y-113658000D03*
X87900000Y-112642000D03*
X86120000Y-111626000D03*
X87900000Y-110610000D03*
X86120000Y-109594000D03*
X87900000Y-108578000D03*
X92720000Y-118990000D03*
X92720000Y-116700000D03*
X92720000Y-107560000D03*
X92720000Y-105270000D03*
D20*
X87010000Y-120260000D03*
X87010000Y-104000000D03*
%TD*%
D21*
%TO.C,J1*%
X116950000Y-96840000D03*
X166950000Y-96840000D03*
D22*
X161000000Y-94600000D03*
D23*
X158460000Y-94600000D03*
X155920000Y-94600000D03*
X153380000Y-94600000D03*
X150840000Y-94600000D03*
X148300000Y-94600000D03*
X145760000Y-94600000D03*
X143220000Y-94600000D03*
X140680000Y-94600000D03*
X138140000Y-94600000D03*
X135600000Y-94600000D03*
X133060000Y-94600000D03*
X130520000Y-94600000D03*
X127980000Y-94600000D03*
X125440000Y-94600000D03*
X122900000Y-94600000D03*
X161000000Y-97140000D03*
X158460000Y-97140000D03*
X155920000Y-97140000D03*
X153380000Y-97140000D03*
X150840000Y-97140000D03*
X148300000Y-97140000D03*
X145760000Y-97140000D03*
X143220000Y-97140000D03*
X140680000Y-97140000D03*
X138140000Y-97140000D03*
X135600000Y-97140000D03*
X133060000Y-97140000D03*
X130520000Y-97140000D03*
X127980000Y-97140000D03*
X125440000Y-97140000D03*
X122900000Y-97140000D03*
X161000000Y-99680000D03*
X158460000Y-99680000D03*
X155920000Y-99680000D03*
X153380000Y-99680000D03*
X150840000Y-99680000D03*
X148300000Y-99680000D03*
X145760000Y-99680000D03*
X143220000Y-99680000D03*
X140680000Y-99680000D03*
X138140000Y-99680000D03*
X135600000Y-99680000D03*
X133060000Y-99680000D03*
X130520000Y-99680000D03*
X127980000Y-99680000D03*
X125440000Y-99680000D03*
X122900000Y-99680000D03*
%TD*%
D15*
%TO.C,J2*%
X88475000Y-136500000D03*
X88475000Y-123000000D03*
D24*
X94475000Y-133350000D03*
D17*
X94475000Y-126150000D03*
%TD*%
D25*
%TO.C,J4*%
X161000000Y-89800000D03*
D26*
X158460000Y-89800000D03*
X155920000Y-89800000D03*
X153380000Y-89800000D03*
X150840000Y-89800000D03*
X148300000Y-89800000D03*
X145760000Y-89800000D03*
X143220000Y-89800000D03*
X140680000Y-89800000D03*
X138140000Y-89800000D03*
X135600000Y-89800000D03*
X133060000Y-89800000D03*
X130520000Y-89800000D03*
X127980000Y-89800000D03*
X125440000Y-89800000D03*
X122900000Y-89800000D03*
%TD*%
D10*
%TO.C,H4*%
X86000000Y-129000000D03*
%TD*%
D27*
%TO.C,BAR1*%
X151500000Y-126300000D03*
X101500000Y-126300000D03*
%TD*%
D28*
%TO.C,J5*%
X108130000Y-110500000D03*
D29*
X109400000Y-110500000D03*
X110670000Y-110500000D03*
%TD*%
D30*
%TO.C,J3*%
X102050936Y-93494824D03*
D29*
X102948962Y-94392850D03*
X103846987Y-95290875D03*
X104745013Y-96188901D03*
X105643038Y-97086926D03*
X106541064Y-97984952D03*
%TD*%
D31*
%TO.C,NT2*%
X103875000Y-133800000D03*
X104950000Y-133800000D03*
%TD*%
D27*
%TO.C,BAR2*%
X151500000Y-133800000D03*
X101500000Y-133800000D03*
%TD*%
M02*
